<?xml version="1.0" standalone="no"?>
<!DOCTYPE svg PUBLIC "-//W3C//DTD SVG 1.1//EN" "http://www.w3.org/Graphics/SVG/1.1/DTD/svg11.dtd" >
<svg>
<metadata>
Created by FontForge 20120731 at Fri Feb  9 14:10:10 2018
 By www-data
</metadata>
<defs>
<font id="MFJiaHei_Noncommercial-Regular" horiz-adv-x="700" >
  <font-face 
    font-family="MF JiaHei (Noncommercial) Regular"
    font-weight="400"
    font-stretch="normal"
    units-per-em="1000"
    panose-1="0 0 0 0 0 0 0 0 0 0"
    ascent="880"
    descent="-120"
    x-height="484"
    cap-height="764"
    bbox="-373 -493 949 879"
    underline-thickness="50"
    underline-position="-50"
    unicode-range="U+000D-FFE5"
  />
<missing-glyph horiz-adv-x="650" 
d="M44 780h590v-954h-590v954zM565 730h-453l227 -386zM588 -84v774l-226 -387zM565 -124l-226 386l-227 -386h453zM89 -84l227 387l-227 387v-774z" />
    <glyph glyph-name=".notdef" horiz-adv-x="650" 
d="M44 780h590v-954h-590v954zM565 730h-453l227 -386zM588 -84v774l-226 -387zM565 -124l-226 386l-227 -386h453zM89 -84l227 387l-227 387v-774z" />
    <glyph glyph-name="NULL" horiz-adv-x="0" 
 />
    <glyph glyph-name="NULL" horiz-adv-x="0" 
 />
    <glyph glyph-name="nonmarkingreturn" unicode="&#xd;" horiz-adv-x="250" 
 />
    <glyph glyph-name="cid1" unicode=" " horiz-adv-x="250" 
 />
    <glyph glyph-name="cid4" unicode="#" horiz-adv-x="563" 
d="M14 153h99l41 315h-98v72h108l31 238l95 -11l-30 -227h104l31 238l95 -11l-30 -227h89v-72h-98l-42 -315h98v-72h-107l-35 -268l-95 10l34 258h-104l-35 -268l-95 10l34 258h-90v72zM209 153h104l41 315h-103z" />
    <glyph glyph-name="cid5" unicode="$" horiz-adv-x="509" 
d="M305 829v-107h132l46 -39v-211h-84v181h-94v-317h132l46 -40v-365l-46 -40h-132v-131h-90v131h-142l-46 40v221h84v-191h104v305h-142l-46 40v377l46 39h142v107h90zM111 336h104v317h-104v-317zM399 -39v305h-94v-305h94z" />
    <glyph glyph-name="cid6" unicode="%" horiz-adv-x="536" 
d="M424 783l-239 -982l-75 12l240 983zM471 -120h-124l-30 29v167l30 28h124l30 -28v-167zM187 500h-124l-30 28v167l30 28h124l30 -28v-167zM96 558h59v107h-59v-107zM380 -61h59v107h-59v-107z" />
    <glyph glyph-name="cid7" unicode="&#x26;" horiz-adv-x="481" 
d="M402 -189l-82 150l-63 -137l-40 -23h-145l-42 34v291l4 14l95 158l-93 182l-5 14v270l43 34h195l43 -34v-270l-4 -13l-86 -182l85 -159l61 133l79 -24l-88 -197l118 -211zM267 51l-90 168l-62 -100v-250h70zM116 502l58 -124l53 124v228h-111v-228z" />
    <glyph glyph-name="cid8" unicode="'" horiz-adv-x="162" 
d="M130 615h-100v138h100v-138z" />
    <glyph glyph-name="cid9" unicode="(" horiz-adv-x="237" 
d="M149 -199q-36 63 -59.5 144t-35.5 171t-12 185t12 185t35.5 171t59.5 144l70 -36q-33 -57 -54.5 -132t-32.5 -159t-10.5 -173t11 -173t32 -159.5t54.5 -132.5l-70 -35v0z" />
    <glyph glyph-name="cid10" unicode=")" horiz-adv-x="238" 
d="M18 -164q32 57 54 132.5t32.5 159.5t10.5 173t-10.5 173t-32.5 159t-54 132l71 36q36 -63 59.5 -144t35.5 -171t12 -185t-12 -185t-35.5 -171t-59.5 -144z" />
    <glyph glyph-name="cid11" unicode="*" horiz-adv-x="253" 
d="M149 538h-45v79l-69 -39l-22 39l68 39l-68 40l22 39l69 -40v80h45v-80l69 40l23 -39l-69 -40l69 -39l-23 -39l-69 39v-79z" />
    <glyph glyph-name="cid12" unicode="+" horiz-adv-x="496" 
d="M4 341h194v305h100v-305h194v-80h-194v-305h-100v305h-194v80z" />
    <glyph glyph-name="cid13" unicode="," horiz-adv-x="170" 
d="M120 -202h-100l30 137h100z" />
    <glyph glyph-name="cid14" unicode="-" horiz-adv-x="548" 
d="M518 341v-80h-488v80h488z" />
    <glyph glyph-name="cid15" unicode="." horiz-adv-x="162" 
d="M130 -202h-100v137h100v-137z" />
    <glyph glyph-name="cid16" unicode="/" horiz-adv-x="317" 
d="M79 -196l-75 10l235 955l75 -11z" />
    <glyph glyph-name="cid17" unicode="0" horiz-adv-x="448" 
d="M374 -183h-299l-45 40v867l45 40h299l45 -40v-867zM329 -103v643l-168 -643h168zM120 43l167 641h-167v-641z" />
    <glyph glyph-name="cid18" unicode="1" horiz-adv-x="284" 
d="M274 -183h-256v80h82v787h-79v80h124l45 -40v-827h84v-80z" />
    <glyph glyph-name="cid19" unicode="2" horiz-adv-x="443" 
d="M26 470v254l44 40h308l45 -40v-270l-6 -20l-279 -413v-124h287v-80h-332l-45 40v175l6 20l279 413v219h-218v-214h-89z" />
    <glyph glyph-name="cid20" unicode="3" horiz-adv-x="456" 
d="M378 764l45 -40v-380l-13 -28l-26 -23l26 -20l16 -31v-385l-45 -40h-307l-45 40v235h90v-195h217v327l-35 27h-178v80h176l34 30v323h-214v-214h-90v254l45 40h304z" />
    <glyph glyph-name="cid21" unicode="4" horiz-adv-x="473" 
d="M108 771v-662h179v655h90v-655h81v-80h-81v-212h-90v212h-224l-45 40v702h90z" />
    <glyph glyph-name="cid22" unicode="5" horiz-adv-x="425" 
d="M120 112v-215h195v370h-240l-45 40v417l45 40h330v-80h-285v-337h240l45 -40v-450l-45 -40h-285l-45 40v255h90z" />
    <glyph glyph-name="cid23" unicode="6" horiz-adv-x="429" 
d="M120 347h234l45 -40v-450l-45 -40h-279l-45 40v867l45 40l279 1l45 -40v-225h-90v185h-189v-338zM120 267v-370h189v370h-189z" />
    <glyph glyph-name="cid24" unicode="7" horiz-adv-x="407" 
d="M4 764h346l44 -46l-161 -907l-88 12l153 861h-294v80z" />
    <glyph glyph-name="cid25" unicode="8" horiz-adv-x="462" 
d="M379 764l45 -40v-380l-13 -28l-26 -23l31 -20l17 -31v-385l-45 -40h-315l-45 40v385l17 31l31 20l-26 23l-13 28v380l45 40h297zM343 -103v327l-36 27h-153l-36 -27v-327h225zM300 331l34 30v323h-207v-323l34 -30h139z" />
    <glyph glyph-name="cid26" unicode="9" horiz-adv-x="428" 
d="M308 -104v371h-234l-45 39v418l45 40h279l45 -40v-867l-45 -40h-278l-46 39v225h90v-185h189zM119 346h189v338h-189v-338z" />
    <glyph glyph-name="cid27" unicode=":" horiz-adv-x="170" 
d="M134 59v-138h-99v138h99zM134 680v-137h-99v137h99z" />
    <glyph glyph-name="cid28" unicode=";" horiz-adv-x="170" 
d="M35 543v137h100v-137h-100zM20 -79l30 138h100l-30 -138h-100z" />
    <glyph glyph-name="cid29" unicode="&#x3c;" horiz-adv-x="321" 
d="M218 -142l-203 434v18l203 434l92 -19l-200 -424l200 -425z" />
    <glyph glyph-name="cid30" unicode="=" horiz-adv-x="550" 
d="M30 448h489v-80h-489v80zM30 233h489v-80h-489v80z" />
    <glyph glyph-name="cid31" unicode="&#x3e;" horiz-adv-x="321" 
d="M15 -124l200 425l-200 424l92 19l203 -434v-18l-203 -434z" />
    <glyph glyph-name="cid32" unicode="?" horiz-adv-x="390" 
d="M247 -61v-109h-94v109h94zM10 484v237l47 38h273l47 -38v-317l-5 -17l-125 -191v-205h-94v214l5 18l124 190v270h-178v-199h-94z" />
    <glyph glyph-name="cid33" unicode="@" horiz-adv-x="554" 
d="M518 -20v-135l-49 -40h-381l-50 40v912l50 40h381l49 -40v-690l-49 -45h-242l-49 40v496l49 40h150v-506h52v625h-302v-832h302v95h89zM298 92v436h-41v-436h41z" />
    <glyph glyph-name="cid34" unicode="A" horiz-adv-x="473" 
d="M21 -180l76 907l45 37h189l45 -37l76 -907l-90 -6l-30 347h-193l-29 -347zM146 241h180l-37 443h-105z" />
    <glyph glyph-name="cid35" unicode="B" horiz-adv-x="429" 
d="M30 -183v947h321l45 -40v-380l-14 -28l-26 -23l26 -20l17 -31v-385l-45 -40h-324zM273 251h-153v-354h189v327zM120 684v-353h151l35 30v323h-186z" />
    <glyph glyph-name="cid36" unicode="C" horiz-adv-x="429" 
d="M399 78v-221l-45 -40h-279l-45 40v867l45 40h279l45 -40v-235h-90v195h-189v-787h189v181h90z" />
    <glyph glyph-name="cid37" unicode="D" horiz-adv-x="429" 
d="M30 -183v947h324l45 -40v-867l-45 -40h-324zM120 684v-787h189v787h-189z" />
    <glyph glyph-name="cid38" unicode="E" horiz-adv-x="377" 
d="M369 -183h-294l-45 40v867l45 40h294v-80h-249v-353h249v-80h-249v-354h249v-80z" />
    <glyph glyph-name="cid39" unicode="F" horiz-adv-x="370" 
d="M30 -183v907l45 40h294v-80h-249v-353h249v-80h-249v-434h-90z" />
    <glyph glyph-name="cid40" unicode="G" horiz-adv-x="429" 
d="M212 293h142l45 -40v-396l-45 -40h-279l-45 40v867l45 40h279l45 -39v-325h-90v285h-189v-788h189v316h-97v80z" />
    <glyph glyph-name="cid41" unicode="H" horiz-adv-x="430" 
d="M399 764v-947h-90v428h-189v-428h-90v947h90v-439h189v439h90z" />
    <glyph glyph-name="cid42" unicode="I" horiz-adv-x="152" 
d="M120 764v-947h-90v947h90z" />
    <glyph glyph-name="cid43" unicode="J" horiz-adv-x="221" 
d="M191 764v-907l-45 -40h-142v80h97v867h90z" />
    <glyph glyph-name="cid44" unicode="K" horiz-adv-x="420" 
d="M119 764v-418l189 294v124h90v-155l-196 -299l196 -302v-191h-90v161l-189 296v-457h-90v947h90z" />
    <glyph glyph-name="cid45" unicode="L" horiz-adv-x="249" 
d="M119 764v-867h128v-80h-173l-45 40v907h90z" />
    <glyph glyph-name="cid46" unicode="M" horiz-adv-x="567" 
d="M29 -183v943l119 8l136 -676l136 676l118 -8v-943h-89v717l-122 -600h-87l-121 600v-717h-90z" />
    <glyph glyph-name="cid47" unicode="N" horiz-adv-x="458" 
d="M29 -183v947l87 11l223 -678v667h90v-947l-88 -11l-223 678v-667h-89z" />
    <glyph glyph-name="cid48" unicode="O" horiz-adv-x="446" 
d="M374 -183h-299l-45 40v867l45 40h299l45 -40v-867zM120 -103h209v787h-209v-787z" />
    <glyph glyph-name="cid49" unicode="P" horiz-adv-x="410" 
d="M344 764l45 -40v-481l-45 -40h-234v-386h-90v947h324zM110 684v-401h189v401h-189z" />
    <glyph glyph-name="cid50" unicode="Q" horiz-adv-x="423" 
d="M226 -277l-19 94h-137l-45 40v867l45 40h279l45 -40v-867l-45 -40h-56l18 -94h-85zM115 -103h77l-32 162l89 -1l30 -161h25v787h-189v-787z" />
    <glyph glyph-name="cid51" unicode="R" horiz-adv-x="439" 
d="M352 764l45 -40v-480l-45 -40h-40l54 -307h49v-80h-87l-45 34l-61 353h-103v-387h-90v947h323zM119 684v-400h188v400h-188z" />
    <glyph glyph-name="cid52" unicode="S" horiz-adv-x="425" 
d="M307 532v152h-189v-348h234l45 -40v-439l-45 -40h-279l-45 40v197h90v-157h189v359h-234l-45 40v428l45 40h279l45 -40v-192h-90z" />
    <glyph glyph-name="cid53" unicode="T" horiz-adv-x="416" 
d="M7 764h402v-80h-156v-867h-90v867h-156v80z" />
    <glyph glyph-name="cid54" unicode="U" horiz-adv-x="425" 
d="M397 764v-907l-45 -40h-279l-45 40v907h90v-867h189v867h90z" />
    <glyph glyph-name="cid55" unicode="V" horiz-adv-x="429" 
d="M417 757l-158 -951h-89l-158 951l88 11l114 -684l114 684z" />
    <glyph glyph-name="cid56" unicode="W" horiz-adv-x="655" 
d="M108 770l88 -647l87 562h89l88 -562l87 647l89 -10l-128 -953l-89 -1l-91 584l-92 -584l-89 1l-128 953z" />
    <glyph glyph-name="cid57" unicode="X" horiz-adv-x="481" 
d="M458 753l-170 -464l170 -463l-86 -25l-132 360l-132 -360l-85 25l170 463l-170 464l85 24l132 -360l132 360z" />
    <glyph glyph-name="cid58" unicode="Y" horiz-adv-x="457" 
d="M447 753l-174 -474v-462h-90v465l-173 471l86 24l132 -362l133 362z" />
    <glyph glyph-name="cid59" unicode="Z" horiz-adv-x="408" 
d="M26 764h325l43 -51l-277 -816h271v-80h-332l-43 51l277 816h-264v80z" />
    <glyph glyph-name="cid60" unicode="[" horiz-adv-x="219" 
d="M206 -183h-131l-47 38v871l47 38h131v-75h-84v-796h84v-76z" />
    <glyph glyph-name="cid61" unicode="\" horiz-adv-x="292" 
d="M79 765l199 -934l-74 -12l-200 933z" />
    <glyph glyph-name="cid62" unicode="]" horiz-adv-x="221" 
d="M13 -107h84v796h-84v75h131l48 -38v-871l-48 -38h-131v76z" />
    <glyph glyph-name="cid63" unicode="^" horiz-adv-x="264" 
d="M76 572h-62l83 185h69l84 -185h-63l-55 128z" />
    <glyph glyph-name="cid64" unicode="_" horiz-adv-x="478" 
d="M450 -115h-422v65h422v-65z" />
    <glyph glyph-name="cid65" unicode="`" horiz-adv-x="159" 
d="M117 753l20 -138h-90l-30 138h100z" />
    <glyph glyph-name="cid66" unicode="a" horiz-adv-x="387" 
d="M364 -183h-291l-45 40v587l45 40h259v-587h32v-80zM118 -103h124v507h-124v-507z" />
    <glyph glyph-name="cid67" unicode="b" horiz-adv-x="345" 
d="M28 764h90v-280h169l45 -40v-587l-45 -40h-259v947zM118 404v-507h124v507h-124z" />
    <glyph glyph-name="cid68" unicode="c" horiz-adv-x="358" 
d="M331 10v-153l-45 -40h-214l-44 40v587l45 40h213l45 -40v-140h-90v100h-123v-507h123v113h90z" />
    <glyph glyph-name="cid69" unicode="d" horiz-adv-x="345" 
d="M316 764v-947h-258l-45 40v587l45 40h168v280h90zM103 -103h123v507h-123v-507z" />
    <glyph glyph-name="cid70" unicode="e" horiz-adv-x="355" 
d="M118 111v-214h213v-80h-258l-45 40v587l45 40h213l45 -40v-333h-213zM118 190h123v214h-123v-214z" />
    <glyph glyph-name="cid71" unicode="f" horiz-adv-x="287" 
d="M278 404h-103v-587h-90v587h-77v80h77v241l45 39h148v-79h-103v-201h103v-80z" />
    <glyph glyph-name="cid72" unicode="g" horiz-adv-x="354" 
d="M325 483v-936l-45 -40h-251v80h206v230h-169l-45 40v586l45 40h259zM111 -103h124v507h-124v-507z" />
    <glyph glyph-name="cid73" unicode="h" horiz-adv-x="344" 
d="M241 -183v587h-123v-587h-90v947h90v-280h168l45 -40v-627h-90z" />
    <glyph glyph-name="cid74" unicode="i" horiz-adv-x="148" 
d="M118 484v-667h-90v667h90zM118 692v-137h-90v137h90z" />
    <glyph glyph-name="cid75" unicode="j" horiz-adv-x="216" 
d="M188 692v-137h-90v137h90zM188 484v-937l-45 -40h-142v80h97v897h90z" />
    <glyph glyph-name="cid76" unicode="k" horiz-adv-x="341" 
d="M332 484v-122l-131 -196l131 -203v-155h-90v129l-124 196v-325h-90v956h90v-565l124 190v95h90z" />
    <glyph glyph-name="cid77" unicode="l" horiz-adv-x="148" 
d="M118 764v-956h-90v956h90z" />
    <glyph glyph-name="cid78" unicode="m" horiz-adv-x="563" 
d="M236 -183v587h-118v-587h-90v711h90v-44h142l45 -40v40h187l45 -40v-627h-90v587h-121v-587h-90z" />
    <glyph glyph-name="cid79" unicode="n" horiz-adv-x="359" 
d="M242 -183v587h-124v-587h-90v711h90v-44h169l45 -40v-627h-90z" />
    <glyph glyph-name="cid80" unicode="o" horiz-adv-x="359" 
d="M286 -183h-213l-45 40v587l45 40h213l45 -40v-587zM118 -103h123v507h-123v-507z" />
    <glyph glyph-name="cid81" unicode="p" horiz-adv-x="343" 
d="M286 483l45 -40v-586l-45 -40h-169v-310h-89v976h258zM117 404v-507h124v507h-124z" />
    <glyph glyph-name="cid82" unicode="q" horiz-adv-x="345" 
d="M316 483v-976h-90v310h-169l-45 40v586l45 40h259zM102 -103h124v507h-124v-507z" />
    <glyph glyph-name="cid83" unicode="r" horiz-adv-x="335" 
d="M242 339v52l-124 -38v-536h-90v673h90v-52l155 47l59 -38v-108h-90z" />
    <glyph glyph-name="cid84" unicode="s" horiz-adv-x="359" 
d="M241 313v91h-124v-212h169l45 -40v-295l-45 -40h-214l-45 40v131h90v-91h124v216h-169l-45 39v292l45 40h214l45 -40v-131h-90z" />
    <glyph glyph-name="cid85" unicode="t" horiz-adv-x="303" 
d="M4 484h103v233h90v-233h94v-80h-94v-507h93v-80h-138l-45 40v547h-103v80z" />
    <glyph glyph-name="cid86" unicode="u" horiz-adv-x="387" 
d="M332 484v-587h32v-80h-291l-45 40v627h90v-587h124v587h90z" />
    <glyph glyph-name="cid87" unicode="v" horiz-adv-x="411" 
d="M399 476l-149 -672h-88l-149 672l89 15l104 -472l104 472z" />
    <glyph glyph-name="cid88" unicode="w" horiz-adv-x="573" 
d="M116 484l42 -542l83 489h88l83 -489l42 542l88 -12l-62 -666l-109 -1l-86 405l-86 -405l-109 1l-63 666z" />
    <glyph glyph-name="cid89" unicode="x" horiz-adv-x="426" 
d="M403 470l-141 -323l141 -324l-83 -29l-107 243l-107 -243l-83 29l141 324l-141 323l83 29l107 -243l107 243z" />
    <glyph glyph-name="cid90" unicode="y" horiz-adv-x="413" 
d="M109 486l98 -486l110 486l89 -15l-156 -685l1 -3h-1l-55 -244l-44 -32h-120v80h83l45 201l-139 684z" />
    <glyph glyph-name="cid91" unicode="z" horiz-adv-x="353" 
d="M34 484h258l42 -53l-210 -534h197v-80h-261l-42 53l211 534h-195v80z" />
    <glyph glyph-name="cid92" unicode="{" horiz-adv-x="262" 
d="M241 685h-46v-336l-9 -23l-22 -25l22 -26l9 -22v-357h46v-80h-96l-50 40v384l-19 22h-73v77h73l19 22v363l50 40h96v-79z" />
    <glyph glyph-name="cid93" unicode="|" horiz-adv-x="158" 
d="M128 768v-959h-100v959h100z" />
    <glyph glyph-name="cid94" unicode="}" horiz-adv-x="262" 
d="M21 764h96l50 -40v-363l18 -22h74v-77h-74l-18 -22v-384l-50 -40h-96v80h46v357l9 22l22 26l-22 25l-9 23v336h-46v79z" />
    <glyph glyph-name="cid95" unicode="~" horiz-adv-x="391" 
d="M10 315q17 26 34 43t35 27q26 15 54 13q25 0 51 -16q15 -9 27 -23t22 -31q11 -20 25 -28q4 -3 9 -3q4 0 9 3q9 5 19.5 17t21.5 34l62 -32q-32 -61 -70 -80q-22 -12 -42 -11q-22 0 -40 9q-17 9 -31 24t-25 34q-9 18 -24 28q-9 5 -16 6q-7 0 -19 -5q-21 -10 -43 -46z" />
    <glyph glyph-name="cid96" unicode="&#x3000;" horiz-adv-x="1000" 
 />
    <glyph glyph-name="cid97" unicode="&#x3001;" horiz-adv-x="649" 
d="M130 -65v-137h-100v137h100z" />
    <glyph glyph-name="cid98" unicode="&#x3002;" horiz-adv-x="649" 
d="M153 -203h-98l-25 23v110l25 24h98l25 -24v-110zM80 -156h48v63h-48v-63z" />
    <glyph glyph-name="cid99" unicode="&#xb7;" horiz-adv-x="650" 
d="M375 408v-108h-100v108h100z" />
    <glyph glyph-name="cid99" unicode="&#x30fb;" horiz-adv-x="650" 
d="M375 408v-108h-100v108h100z" />
    <glyph glyph-name="cid99" unicode="&#x2022;" horiz-adv-x="650" 
d="M375 408v-108h-100v108h100z" />
    <glyph glyph-name="cid104" unicode="&#x3005;" horiz-adv-x="650" 
d="M162 775v-144h417l48 -49l-222 -745l-96 -5l-243 455l93 27l187 -347l170 584h-403l-50 40v184h99z" />
    <glyph glyph-name="cid105" unicode="&#x2014;" horiz-adv-x="650" 
d="M49 371h551v-80h-551v80z" />
    <glyph glyph-name="cid108" unicode="&#x2026;" horiz-adv-x="650" 
d="M93 341h68v-80h-68v80zM488 341h68v-80h-68v80zM290 341h68v-80h-68v80z" />
    <glyph glyph-name="cid108" unicode="&#x22ef;" horiz-adv-x="650" 
d="M93 341h68v-80h-68v80zM488 341h68v-80h-68v80zM290 341h68v-80h-68v80z" />
    <glyph glyph-name="cid109" unicode="&#x2018;" horiz-adv-x="650" 
d="M647 753v-138h-100v138h100z" />
    <glyph glyph-name="cid110" unicode="&#x2019;" horiz-adv-x="650" 
d="M130 753v-138h-100v138h100z" />
    <glyph glyph-name="cid111" unicode="&#x201c;" horiz-adv-x="650" 
d="M520 753v-138h-89v138h89zM641 753v-138h-90v138h90z" />
    <glyph glyph-name="cid112" unicode="&#x201d;" horiz-adv-x="650" 
d="M119 754v-138h-89v138h89zM240 754v-138h-90v138h90z" />
    <glyph glyph-name="cid115" unicode="&#x3008;" horiz-adv-x="650" 
d="M528 -162l-143 454v18l143 454l92 -19l-140 -444l140 -445z" />
    <glyph glyph-name="cid116" unicode="&#x3009;" horiz-adv-x="650" 
d="M30 -144l140 445l-140 444l92 19l143 -454v-18l-143 -454z" />
    <glyph glyph-name="cid117" unicode="&#x300a;" horiz-adv-x="650" 
d="M387 -160l-132 454v14l132 454l77 -15l-129 -446l129 -447zM543 -160l-132 454v14l132 454l77 -15l-129 -446l129 -447z" />
    <glyph glyph-name="cid118" unicode="&#x300b;" horiz-adv-x="650" 
d="M186 -146l129 447l-129 446l78 15l131 -454v-14l-131 -454zM30 -146l129 447l-129 446l78 15l131 -454v-14l-131 -454z" />
    <glyph glyph-name="cid119" unicode="&#x300c;" horiz-adv-x="650" 
d="M466 -23v766l48 38h126v-76h-79v-728h-95z" />
    <glyph glyph-name="cid120" unicode="&#x300d;" horiz-adv-x="650" 
d="M204 623v-766l-48 -38h-126v76h79v728h95z" />
    <glyph glyph-name="cid121" unicode="&#x300e;" horiz-adv-x="650" 
d="M434 -23v766l60 48h141v-116h-66v-698h-135zM516 22v693h67v31h-62l-35 -28v-696h30z" />
    <glyph glyph-name="cid122" unicode="&#x300f;" horiz-adv-x="650" 
d="M231 631v-766l-60 -48h-141v116h66v698h135zM149 586v-693h-67v-31h62l35 28v696h-30z" />
    <glyph glyph-name="cid123" unicode="&#x3016;" horiz-adv-x="650" 
d="M383 753h234q-147 -455 3 -905h-237v905zM439 -96h95q-82 394 -1 793h-94v-793z" />
    <glyph glyph-name="cid124" unicode="&#x3017;" horiz-adv-x="650" 
d="M267 -152h-237q150 449 2 905h235v-905zM211 697h-94q81 -399 -1 -793h95v793z" />
    <glyph glyph-name="cid125" unicode="&#x3010;" horiz-adv-x="650" 
d="M473 753h144q-147 -455 3 -905h-147v905z" />
    <glyph glyph-name="cid126" unicode="&#x3011;" horiz-adv-x="650" 
d="M178 -152h-148q151 448 3 905h145v-905z" />
    <glyph glyph-name="cid162" unicode="&#xb0;" horiz-adv-x="202" 
d="M150 560h-98l-25 23v111l25 23h98l25 -23v-111zM77 607h48v63h-48v-63z" />
    <glyph glyph-name="cid166" unicode="&#xff04;" horiz-adv-x="509" 
d="M305 829v-107h132l46 -39v-211h-84v181h-94v-317h132l46 -40v-365l-46 -40h-132v-131h-90v131h-142l-46 40v221h84v-191h104v305h-142l-46 40v377l46 39h142v107h90zM111 336h104v317h-104v-317zM399 -39v305h-94v-305h94z" />
    <glyph glyph-name="cid262" unicode="&#xff01;" horiz-adv-x="649" 
d="M125 -91v-109h-95v109h95zM125 789v-768h-95v768h95z" />
    <glyph glyph-name="cid265" unicode="&#xffe5;" horiz-adv-x="498" 
d="M479 671l-148 -263h142v-80h-173v-162h173v-80h-173v-195h-109v195h-170v80h170v162h-170v80h140l-148 263l90 56l143 -274l143 274z" />
    <glyph glyph-name="cid269" unicode="&#xff08;" horiz-adv-x="650" 
d="M560 -199q-36 63 -59.5 144t-35.5 171t-12 185t12 185t35.5 171t59.5 144l70 -36q-33 -57 -54.5 -132t-32.5 -159t-10.5 -173t11 -173t32 -159.5t54.5 -132.5l-70 -35v0z" />
    <glyph glyph-name="cid270" unicode="&#xff09;" horiz-adv-x="650" 
d="M37 -164q32 57 54 132.5t32.5 159.5t10.5 173t-10.5 173t-32.5 159t-54 132l70 36q36 -63 59.5 -144t35.5 -171t12 -185t-12 -185t-35.5 -171t-59.5 -144z" />
    <glyph glyph-name="cid273" unicode="&#xff0c;" horiz-adv-x="649" 
d="M160 -65l-30 -137h-100l30 137h100z" />
    <glyph glyph-name="cid287" unicode="&#xff1a;" horiz-adv-x="649" 
d="M129 59v-138h-99v138h99zM129 680v-137h-99v137h99z" />
    <glyph glyph-name="cid288" unicode="&#xff1b;" horiz-adv-x="649" 
d="M35 543v137h100v-137h-100zM20 -79l30 138h100l-30 -138h-100z" />
    <glyph glyph-name="cid292" unicode="&#xff1f;" horiz-adv-x="649" 
d="M267 -91v-109h-94v109h94zM30 514v237l47 38h273l47 -38v-317l-5 -17l-125 -191v-205h-94v214l5 18l124 190v270h-178v-199h-94z" />
    <glyph glyph-name="cid401" unicode="&#x306e;" horiz-adv-x="650" 
d="M390 677v-800l-50 -40h-254l-50 40v840l50 40h499l50 -40v-840l-50 -40h-117v80h67v760h-145zM290 -83v760h-154v-760h154z" />
    <glyph glyph-name="cid573" unicode="&#xe78d;" horiz-adv-x="650" 
d="M620 775l-30 -137h-100l30 137h100z" />
    <glyph glyph-name="cid573" unicode="&#xfe10;" horiz-adv-x="650" 
d="M620 775l-30 -137h-100l30 137h100z" />
    <glyph glyph-name="cid574" unicode="&#xe78e;" horiz-adv-x="650" 
d="M603 627h-98l-25 23v110l25 24h98l25 -24v-110zM530 674h48v63h-48v-63z" />
    <glyph glyph-name="cid574" unicode="&#xfe12;" horiz-adv-x="650" 
d="M603 627h-98l-25 23v110l25 24h98l25 -24v-110zM530 674h48v63h-48v-63z" />
    <glyph glyph-name="cid575" unicode="&#xe78f;" horiz-adv-x="650" 
d="M620 782v-137h-100v137h100z" />
    <glyph glyph-name="cid575" unicode="&#xfe11;" horiz-adv-x="650" 
d="M620 782v-137h-100v137h100z" />
    <glyph glyph-name="cid576" unicode="&#xe790;" horiz-adv-x="650" 
d="M619 59v-138h-99v138h99zM619 680v-137h-99v137h99z" />
    <glyph glyph-name="cid576" unicode="&#xfe13;" horiz-adv-x="650" 
d="M619 59v-138h-99v138h99zM619 680v-137h-99v137h99z" />
    <glyph glyph-name="cid577" unicode="&#xe791;" horiz-adv-x="650" 
d="M515 543v137h100v-137h-100zM500 -79l30 138h100l-30 -138h-100z" />
    <glyph glyph-name="cid577" unicode="&#xfe14;" horiz-adv-x="650" 
d="M515 543v137h100v-137h-100zM500 -79l30 138h100l-30 -138h-100z" />
    <glyph glyph-name="cid578" unicode="&#xe792;" horiz-adv-x="650" 
d="M618 -91v-109h-95v109h95zM618 789v-768h-95v768h95z" />
    <glyph glyph-name="cid578" unicode="&#xfe15;" horiz-adv-x="650" 
d="M618 -91v-109h-95v109h95zM618 789v-768h-95v768h95z" />
    <glyph glyph-name="cid579" unicode="&#xe793;" horiz-adv-x="650" 
d="M497 -91v-109h-94v109h94zM260 514v237l47 38h273l47 -38v-317l-5 -17l-125 -191v-205h-94v214l5 18l124 190v270h-178v-199h-94z" />
    <glyph glyph-name="cid579" unicode="&#xfe16;" horiz-adv-x="650" 
d="M497 -91v-109h-94v109h94zM260 514v237l47 38h273l47 -38v-317l-5 -17l-125 -191v-205h-94v214l5 18l124 190v270h-178v-199h-94z" />
    <glyph glyph-name="cid580" unicode="&#xfe35;" 
d="M-79 320q63 36 144 59.5t171 35.5t185 12t185 -12t171 -35.5t144 -59.5l-36 -70q-57 32 -132 54t-159 32.5t-173 10.5t-173 -10.5t-159.5 -32.5t-132.5 -54l-35 70v0z" />
    <glyph glyph-name="cid581" unicode="&#xfe36;" 
d="M-44 843q57 -33 132.5 -54.5t159.5 -32t173 -11t173 10.5t159 32.5t132 54.5l36 -70q-63 -36 -144 -59.5t-171 -35.5t-185 -12t-185 12t-171 35.5t-144 59.5z" />
    <glyph glyph-name="cid584" unicode="&#xfe3f;" 
d="M-42 352l454 143h18l454 -143l-19 -92l-444 140l-445 -140z" />
    <glyph glyph-name="cid585" unicode="&#xfe40;" 
d="M-24 850l445 -140l444 140l19 -92l-454 -143h-18l-454 143z" />
    <glyph glyph-name="cid586" unicode="&#xfe3d;" 
d="M-40 493l454 132h14l454 -132l-15 -77l-446 129l-447 -129zM-40 337l454 132h14l454 -132l-15 -77l-446 129l-447 -129z" />
    <glyph glyph-name="cid587" unicode="&#xfe3e;" 
d="M-26 694l447 -129l446 129l15 -78l-454 -131h-14l-454 131zM-26 850l447 -129l446 129l15 -78l-454 -131h-14l-454 131z" />
    <glyph glyph-name="cid588" unicode="&#xfe41;" 
d="M97 414h766l38 -48v-126h-76v79h-728v95z" />
    <glyph glyph-name="cid589" unicode="&#xfe42;" 
d="M743 676h-766l-38 48v126h76v-79h728v-95z" />
    <glyph glyph-name="cid590" unicode="&#xfe43;" 
d="M97 446h766l48 -60v-141h-116v66h-698v135zM142 364h693v-67h31v62l-28 35h-696v-30z" />
    <glyph glyph-name="cid591" unicode="&#xfe44;" 
d="M751 649h-766l-48 60v141h116v-66h698v-135zM706 731h-693v67h-31v-62l28 -35h696v30z" />
    <glyph glyph-name="cid592" unicode="&#xe794;" 
d="M873 497v-234q-455 147 -905 -3v237h905zM24 441v-95q394 82 793 1v94h-793z" />
    <glyph glyph-name="cid592" unicode="&#xfe17;" 
d="M873 497v-234q-455 147 -905 -3v237h905zM24 441v-95q394 82 793 1v94h-793z" />
    <glyph glyph-name="cid593" unicode="&#xe795;" 
d="M-32 613v237q449 -150 905 -2v-235h-905zM817 669v94q-399 -81 -793 1v-95h793z" />
    <glyph glyph-name="cid593" unicode="&#xfe18;" 
d="M-32 613v237q449 -150 905 -2v-235h-905zM817 669v94q-399 -81 -793 1v-95h793z" />
    <glyph glyph-name="cid594" unicode="&#xfe3b;" 
d="M873 407v-144q-455 147 -905 -3v147h905z" />
    <glyph glyph-name="cid595" unicode="&#xfe3c;" 
d="M-32 702v148q448 -151 905 -3v-145h-905z" />
    <glyph glyph-name="cid598" unicode="&#xfe31;" 
d="M491 831v-551h-80v551h80z" />
    <glyph glyph-name="cid599" unicode="&#x205d;" 
d="M461 787v-68h-80v68h80zM461 392v-68h-80v68h80zM461 590v-68h-80v68h80z" />
    <glyph glyph-name="cid599" unicode="&#xfe19;" 
d="M461 787v-68h-80v68h80zM461 392v-68h-80v68h80zM461 590v-68h-80v68h80z" />
    <glyph glyph-name="cid599" unicode="&#xe796;" 
d="M461 787v-68h-80v68h80zM461 392v-68h-80v68h80zM461 590v-68h-80v68h80z" />
    <glyph glyph-name="cid814" horiz-adv-x="155" 
d="M124 -91v-109h-95v109h95zM124 789v-768h-95v768h95z" />
    <glyph glyph-name="cid815" horiz-adv-x="271" 
d="M119 753v-138h-89v138h89zM240 753v-138h-90v138h90z" />
    <glyph glyph-name="cid816" horiz-adv-x="563" 
d="M14 153h99l41 315h-98v72h108l31 238l95 -11l-30 -227h104l31 238l95 -11l-30 -227h89v-72h-98l-42 -315h98v-72h-107l-35 -268l-95 10l34 258h-104l-35 -268l-95 10l34 258h-90v72zM209 153h104l41 315h-103z" />
    <glyph glyph-name="cid817" horiz-adv-x="509" 
d="M305 829v-107h132l46 -39v-211h-84v181h-94v-317h132l46 -40v-365l-46 -40h-132v-131h-90v131h-142l-46 40v221h84v-191h104v305h-142l-46 40v377l46 39h142v107h90zM111 336h104v317h-104v-317zM399 -39v305h-94v-305h94z" />
    <glyph glyph-name="cid818" horiz-adv-x="536" 
d="M424 783l-239 -982l-75 12l240 983zM471 -120h-124l-30 29v167l30 28h124l30 -28v-167zM187 500h-124l-30 28v167l30 28h124l30 -28v-167zM96 558h59v107h-59v-107zM380 -61h59v107h-59v-107z" />
    <glyph glyph-name="cid819" horiz-adv-x="481" 
d="M402 -189l-82 150l-63 -137l-40 -23h-145l-42 34v291l4 14l95 158l-93 182l-5 14v270l43 34h195l43 -34v-270l-4 -13l-86 -182l85 -159l61 133l79 -24l-88 -197l118 -211zM267 51l-90 168l-62 -100v-250h70zM116 502l58 -124l53 124v228h-111v-228z" />
    <glyph glyph-name="cid820" horiz-adv-x="162" 
d="M130 615h-100v138h100v-138z" />
    <glyph glyph-name="cid821" horiz-adv-x="237" 
d="M149 -199q-36 63 -59.5 144t-35.5 171t-12 185t12 185t35.5 171t59.5 144l70 -36q-33 -57 -54.5 -132t-32.5 -159t-10.5 -173t11 -173t32 -159.5t54.5 -132.5l-70 -35v0z" />
    <glyph glyph-name="cid822" horiz-adv-x="238" 
d="M18 -164q32 57 54 132.5t32.5 159.5t10.5 173t-10.5 173t-32.5 159t-54 132l71 36q36 -63 59.5 -144t35.5 -171t12 -185t-12 -185t-35.5 -171t-59.5 -144z" />
    <glyph glyph-name="cid823" horiz-adv-x="253" 
d="M149 538h-45v79l-69 -39l-22 39l68 39l-68 40l22 39l69 -40v80h45v-80l69 40l23 -39l-69 -40l69 -39l-23 -39l-69 39v-79z" />
    <glyph glyph-name="cid824" horiz-adv-x="496" 
d="M4 341h194v305h100v-305h194v-80h-194v-305h-100v305h-194v80z" />
    <glyph glyph-name="cid825" horiz-adv-x="170" 
d="M120 -202h-100l30 137h100z" />
    <glyph glyph-name="cid826" horiz-adv-x="548" 
d="M518 341v-80h-488v80h488z" />
    <glyph glyph-name="cid827" horiz-adv-x="162" 
d="M130 -202h-100v137h100v-137z" />
    <glyph glyph-name="cid828" horiz-adv-x="317" 
d="M79 -196l-75 10l235 955l75 -11z" />
    <glyph glyph-name="cid829" horiz-adv-x="448" 
d="M374 -183h-299l-45 40v867l45 40h299l45 -40v-867zM329 -103v643l-168 -643h168zM120 43l167 641h-167v-641z" />
    <glyph glyph-name="cid830" horiz-adv-x="284" 
d="M274 -183h-256v80h82v787h-79v80h124l45 -40v-827h84v-80z" />
    <glyph glyph-name="cid831" horiz-adv-x="443" 
d="M26 470v254l44 40h308l45 -40v-270l-6 -20l-279 -413v-124h287v-80h-332l-45 40v175l6 20l279 413v219h-218v-214h-89z" />
    <glyph glyph-name="cid832" horiz-adv-x="456" 
d="M378 764l45 -40v-380l-13 -28l-26 -23l26 -20l16 -31v-385l-45 -40h-307l-45 40v235h90v-195h217v327l-35 27h-178v80h176l34 30v323h-214v-214h-90v254l45 40h304z" />
    <glyph glyph-name="cid833" horiz-adv-x="473" 
d="M108 771v-662h179v655h90v-655h81v-80h-81v-212h-90v212h-224l-45 40v702h90z" />
    <glyph glyph-name="cid834" horiz-adv-x="425" 
d="M120 112v-215h195v370h-240l-45 40v417l45 40h330v-80h-285v-337h240l45 -40v-450l-45 -40h-285l-45 40v255h90z" />
    <glyph glyph-name="cid835" horiz-adv-x="429" 
d="M120 347h234l45 -40v-450l-45 -40h-279l-45 40v867l45 40l279 1l45 -40v-225h-90v185h-189v-338zM120 267v-370h189v370h-189z" />
    <glyph glyph-name="cid836" horiz-adv-x="407" 
d="M4 764h346l44 -46l-161 -907l-88 12l153 861h-294v80z" />
    <glyph glyph-name="cid837" horiz-adv-x="462" 
d="M379 764l45 -40v-380l-13 -28l-26 -23l31 -20l17 -31v-385l-45 -40h-315l-45 40v385l17 31l31 20l-26 23l-13 28v380l45 40h297zM343 -103v327l-36 27h-153l-36 -27v-327h225zM300 331l34 30v323h-207v-323l34 -30h139z" />
    <glyph glyph-name="cid838" horiz-adv-x="428" 
d="M308 -104v371h-234l-45 39v418l45 40h279l45 -40v-867l-45 -40h-278l-46 39v225h90v-185h189zM119 346h189v338h-189v-338z" />
    <glyph glyph-name="cid839" horiz-adv-x="170" 
d="M134 59v-138h-99v138h99zM134 680v-137h-99v137h99z" />
    <glyph glyph-name="cid840" horiz-adv-x="170" 
d="M35 543v137h100v-137h-100zM20 -79l30 138h100l-30 -138h-100z" />
    <glyph glyph-name="cid841" horiz-adv-x="321" 
d="M218 -142l-203 434v18l203 434l92 -19l-200 -424l200 -425z" />
    <glyph glyph-name="cid842" horiz-adv-x="550" 
d="M30 448h489v-80h-489v80zM30 233h489v-80h-489v80z" />
    <glyph glyph-name="cid843" horiz-adv-x="321" 
d="M15 -124l200 425l-200 424l92 19l203 -434v-18l-203 -434z" />
    <glyph glyph-name="cid844" horiz-adv-x="390" 
d="M247 -61v-109h-94v109h94zM10 484v237l47 38h273l47 -38v-317l-5 -17l-125 -191v-205h-94v214l5 18l124 190v270h-178v-199h-94z" />
    <glyph glyph-name="cid845" horiz-adv-x="554" 
d="M518 -20v-135l-49 -40h-381l-50 40v912l50 40h381l49 -40v-690l-49 -45h-242l-49 40v496l49 40h150v-506h52v625h-302v-832h302v95h89zM298 92v436h-41v-436h41z" />
    <glyph glyph-name="cid846" horiz-adv-x="473" 
d="M21 -180l76 907l45 37h189l45 -37l76 -907l-90 -6l-30 347h-193l-29 -347zM146 241h180l-37 443h-105z" />
    <glyph glyph-name="cid847" horiz-adv-x="429" 
d="M30 -183v947h321l45 -40v-380l-14 -28l-26 -23l26 -20l17 -31v-385l-45 -40h-324zM273 251h-153v-354h189v327zM120 684v-353h151l35 30v323h-186z" />
    <glyph glyph-name="cid848" horiz-adv-x="429" 
d="M399 78v-221l-45 -40h-279l-45 40v867l45 40h279l45 -40v-235h-90v195h-189v-787h189v181h90z" />
    <glyph glyph-name="cid849" horiz-adv-x="429" 
d="M30 -183v947h324l45 -40v-867l-45 -40h-324zM120 684v-787h189v787h-189z" />
    <glyph glyph-name="cid850" horiz-adv-x="377" 
d="M369 -183h-294l-45 40v867l45 40h294v-80h-249v-353h249v-80h-249v-354h249v-80z" />
    <glyph glyph-name="cid851" horiz-adv-x="370" 
d="M30 -183v907l45 40h294v-80h-249v-353h249v-80h-249v-434h-90z" />
    <glyph glyph-name="cid852" horiz-adv-x="429" 
d="M212 293h142l45 -40v-396l-45 -40h-279l-45 40v867l45 40h279l45 -39v-325h-90v285h-189v-788h189v316h-97v80z" />
    <glyph glyph-name="cid853" horiz-adv-x="430" 
d="M399 764v-947h-90v428h-189v-428h-90v947h90v-439h189v439h90z" />
    <glyph glyph-name="cid854" horiz-adv-x="152" 
d="M120 764v-947h-90v947h90z" />
    <glyph glyph-name="cid855" horiz-adv-x="221" 
d="M191 764v-907l-45 -40h-142v80h97v867h90z" />
    <glyph glyph-name="cid856" horiz-adv-x="420" 
d="M119 764v-418l189 294v124h90v-155l-196 -299l196 -302v-191h-90v161l-189 296v-457h-90v947h90z" />
    <glyph glyph-name="cid857" horiz-adv-x="249" 
d="M119 764v-867h128v-80h-173l-45 40v907h90z" />
    <glyph glyph-name="cid858" horiz-adv-x="567" 
d="M29 -183v943l119 8l136 -676l136 676l118 -8v-943h-89v717l-122 -600h-87l-121 600v-717h-90z" />
    <glyph glyph-name="cid859" horiz-adv-x="458" 
d="M29 -183v947l87 11l223 -678v667h90v-947l-88 -11l-223 678v-667h-89z" />
    <glyph glyph-name="cid860" horiz-adv-x="446" 
d="M374 -183h-299l-45 40v867l45 40h299l45 -40v-867zM120 -103h209v787h-209v-787z" />
    <glyph glyph-name="cid861" horiz-adv-x="410" 
d="M344 764l45 -40v-481l-45 -40h-234v-386h-90v947h324zM110 684v-401h189v401h-189z" />
    <glyph glyph-name="cid862" horiz-adv-x="423" 
d="M226 -277l-19 94h-137l-45 40v867l45 40h279l45 -40v-867l-45 -40h-56l18 -94h-85zM115 -103h77l-32 162l89 -1l30 -161h25v787h-189v-787z" />
    <glyph glyph-name="cid863" horiz-adv-x="439" 
d="M352 764l45 -40v-480l-45 -40h-40l54 -307h49v-80h-87l-45 34l-61 353h-103v-387h-90v947h323zM119 684v-400h188v400h-188z" />
    <glyph glyph-name="cid864" horiz-adv-x="425" 
d="M307 532v152h-189v-348h234l45 -40v-439l-45 -40h-279l-45 40v197h90v-157h189v359h-234l-45 40v428l45 40h279l45 -40v-192h-90z" />
    <glyph glyph-name="cid865" horiz-adv-x="416" 
d="M7 764h402v-80h-156v-867h-90v867h-156v80z" />
    <glyph glyph-name="cid866" horiz-adv-x="425" 
d="M397 764v-907l-45 -40h-279l-45 40v907h90v-867h189v867h90z" />
    <glyph glyph-name="cid867" horiz-adv-x="429" 
d="M417 757l-158 -951h-89l-158 951l88 11l114 -684l114 684z" />
    <glyph glyph-name="cid868" horiz-adv-x="655" 
d="M108 770l88 -647l87 562h89l88 -562l87 647l89 -10l-128 -953l-89 -1l-91 584l-92 -584l-89 1l-128 953z" />
    <glyph glyph-name="cid869" horiz-adv-x="481" 
d="M458 753l-170 -464l170 -463l-86 -25l-132 360l-132 -360l-85 25l170 463l-170 464l85 24l132 -360l132 360z" />
    <glyph glyph-name="cid870" horiz-adv-x="457" 
d="M447 753l-174 -474v-462h-90v465l-173 471l86 24l132 -362l133 362z" />
    <glyph glyph-name="cid871" horiz-adv-x="408" 
d="M26 764h325l43 -51l-277 -816h271v-80h-332l-43 51l277 816h-264v80z" />
    <glyph glyph-name="cid872" horiz-adv-x="219" 
d="M206 -183h-131l-47 38v871l47 38h131v-75h-84v-796h84v-76z" />
    <glyph glyph-name="cid873" horiz-adv-x="292" 
d="M79 765l199 -934l-74 -12l-200 933z" />
    <glyph glyph-name="cid874" horiz-adv-x="221" 
d="M13 -107h84v796h-84v75h131l48 -38v-871l-48 -38h-131v76z" />
    <glyph glyph-name="cid875" horiz-adv-x="264" 
d="M76 572h-62l83 185h69l84 -185h-63l-55 128z" />
    <glyph glyph-name="cid876" horiz-adv-x="478" 
d="M450 -115h-422v65h422v-65z" />
    <glyph glyph-name="cid877" horiz-adv-x="159" 
d="M117 753l20 -138h-90l-30 138h100z" />
    <glyph glyph-name="cid878" horiz-adv-x="387" 
d="M364 -183h-291l-45 40v587l45 40h259v-587h32v-80zM118 -103h124v507h-124v-507z" />
    <glyph glyph-name="cid879" horiz-adv-x="345" 
d="M28 764h90v-280h169l45 -40v-587l-45 -40h-259v947zM118 404v-507h124v507h-124z" />
    <glyph glyph-name="cid880" horiz-adv-x="358" 
d="M331 10v-153l-45 -40h-214l-44 40v587l45 40h213l45 -40v-140h-90v100h-123v-507h123v113h90z" />
    <glyph glyph-name="cid881" horiz-adv-x="345" 
d="M316 764v-947h-258l-45 40v587l45 40h168v280h90zM103 -103h123v507h-123v-507z" />
    <glyph glyph-name="cid882" horiz-adv-x="355" 
d="M118 111v-214h213v-80h-258l-45 40v587l45 40h213l45 -40v-333h-213zM118 190h123v214h-123v-214z" />
    <glyph glyph-name="cid883" horiz-adv-x="287" 
d="M278 404h-103v-587h-90v587h-77v80h77v241l45 39h148v-79h-103v-201h103v-80z" />
    <glyph glyph-name="cid884" horiz-adv-x="354" 
d="M325 483v-936l-45 -40h-251v80h206v230h-169l-45 40v586l45 40h259zM111 -103h124v507h-124v-507z" />
    <glyph glyph-name="cid885" horiz-adv-x="344" 
d="M241 -183v587h-123v-587h-90v947h90v-280h168l45 -40v-627h-90z" />
    <glyph glyph-name="cid886" horiz-adv-x="148" 
d="M118 484v-667h-90v667h90zM118 692v-137h-90v137h90z" />
    <glyph glyph-name="cid887" horiz-adv-x="216" 
d="M188 692v-137h-90v137h90zM188 484v-937l-45 -40h-142v80h97v897h90z" />
    <glyph glyph-name="cid888" horiz-adv-x="341" 
d="M332 484v-122l-131 -196l131 -203v-155h-90v129l-124 196v-325h-90v956h90v-565l124 190v95h90z" />
    <glyph glyph-name="cid889" horiz-adv-x="148" 
d="M118 764v-956h-90v956h90z" />
    <glyph glyph-name="cid890" horiz-adv-x="563" 
d="M236 -183v587h-118v-587h-90v711h90v-44h142l45 -40v40h187l45 -40v-627h-90v587h-121v-587h-90z" />
    <glyph glyph-name="cid891" horiz-adv-x="359" 
d="M242 -183v587h-124v-587h-90v711h90v-44h169l45 -40v-627h-90z" />
    <glyph glyph-name="cid892" horiz-adv-x="359" 
d="M286 -183h-213l-45 40v587l45 40h213l45 -40v-587zM118 -103h123v507h-123v-507z" />
    <glyph glyph-name="cid893" horiz-adv-x="343" 
d="M286 483l45 -40v-586l-45 -40h-169v-310h-89v976h258zM117 404v-507h124v507h-124z" />
    <glyph glyph-name="cid894" horiz-adv-x="345" 
d="M316 483v-976h-90v310h-169l-45 40v586l45 40h259zM102 -103h124v507h-124v-507z" />
    <glyph glyph-name="cid895" horiz-adv-x="335" 
d="M242 339v52l-124 -38v-536h-90v673h90v-52l155 47l59 -38v-108h-90z" />
    <glyph glyph-name="cid896" horiz-adv-x="359" 
d="M241 313v91h-124v-212h169l45 -40v-295l-45 -40h-214l-45 40v131h90v-91h124v216h-169l-45 39v292l45 40h214l45 -40v-131h-90z" />
    <glyph glyph-name="cid897" horiz-adv-x="303" 
d="M4 484h103v233h90v-233h94v-80h-94v-507h93v-80h-138l-45 40v547h-103v80z" />
    <glyph glyph-name="cid898" horiz-adv-x="387" 
d="M332 484v-587h32v-80h-291l-45 40v627h90v-587h124v587h90z" />
    <glyph glyph-name="cid899" horiz-adv-x="411" 
d="M399 476l-149 -672h-88l-149 672l89 15l104 -472l104 472z" />
    <glyph glyph-name="cid900" horiz-adv-x="573" 
d="M116 484l42 -542l83 489h88l83 -489l42 542l88 -12l-62 -666l-109 -1l-86 405l-86 -405l-109 1l-63 666z" />
    <glyph glyph-name="cid901" horiz-adv-x="426" 
d="M403 470l-141 -323l141 -324l-83 -29l-107 243l-107 -243l-83 29l141 324l-141 323l83 29l107 -243l107 243z" />
    <glyph glyph-name="cid902" horiz-adv-x="413" 
d="M109 486l98 -486l110 486l89 -15l-156 -685l1 -3h-1l-55 -244l-44 -32h-120v80h83l45 201l-139 684z" />
    <glyph glyph-name="cid903" horiz-adv-x="353" 
d="M34 484h258l42 -53l-210 -534h197v-80h-261l-42 53l211 534h-195v80z" />
    <glyph glyph-name="cid904" horiz-adv-x="262" 
d="M241 685h-46v-336l-9 -23l-22 -25l22 -26l9 -22v-357h46v-80h-96l-50 40v384l-19 22h-73v77h73l19 22v363l50 40h96v-79z" />
    <glyph glyph-name="cid905" horiz-adv-x="158" 
d="M128 768v-959h-100v959h100z" />
    <glyph glyph-name="cid906" horiz-adv-x="262" 
d="M21 764h96l50 -40v-363l18 -22h74v-77h-74l-18 -22v-384l-50 -40h-96v80h46v357l9 22l22 26l-22 25l-9 23v336h-46v79z" />
    <glyph glyph-name="cid907" horiz-adv-x="391" 
d="M10 315q17 26 34 43t35 27q26 15 54 13q25 0 51 -16q15 -9 27 -23t22 -31q11 -20 25 -28q4 -3 9 -3q4 0 9 3q9 5 19.5 17t21.5 34l62 -32q-32 -61 -70 -80q-22 -12 -42 -11q-22 0 -40 9q-17 9 -31 24t-25 34q-9 18 -24 28q-9 5 -16 6q-7 0 -19 -5q-21 -10 -43 -46z" />
    <glyph glyph-name="cid940" unicode="&#x554a;" 
d="M309 -43h18v343h-18v79h18v337h-29v-911h-83v949l41 38h111l41 -38v-397l-15 -20l15 -21v-397l-41 -38h-58v76zM65 745h96l37 -32v-814l-37 -32h-96l-38 32v814zM524 -118h51v827h-157v80h254v-80h-15v-867l-41 -40h-92v80zM455 627h76l27 -25v-609l-27 -25h-76l-27 25
v609zM124 681h-22v-750h22v750zM504 577h-22v-560h22v560z" />
    <glyph glyph-name="cid941" unicode="&#x963f;" 
d="M144 -48h29v338h-29v80h29v338h-43v-906h-100v946l50 40h143l50 -40v-398l-19 -20l19 -20v-398l-50 -40h-79v80zM349 602h124l42 -34v-577l-42 -34h-124l-42 34v577zM673 691h-24v-848l-50 -40h-163v80h114v808h-257v79h380v-79zM427 524h-33v-489h33v489z" />
    <glyph glyph-name="cid942" unicode="&#x57c3;" 
d="M672 114h-147l142 -284l-94 -26l-109 212l-109 -212l-94 26l142 284h-145v79h157v147h-100l-49 40v109h99v-69h296v-80h-146v-147h157v-79zM232 -156h-204v80h52v589h-52v80h52v191h100v-191h52v-80h-52v-589h52v-80zM416 776l-49 -176h188v133h100v-173l-50 -40h-300
l-49 48l63 225z" />
    <glyph glyph-name="cid943" unicode="&#x6328;" 
d="M673 116h-139l137 -286l-94 -26l-106 218l-105 -218l-94 26l136 286h-135v79h148v151h-91l-49 40v116h99v-76h282v-80h-141v-151h152v-79zM255 555h-64v-340h64v-80h-64v-291l-50 -40h-104v80h54v251h-64v80h64v340h-64v80h64v161h100v-161h64v-80zM424 778l-45 -175h175
v132h100v-172l-50 -40h-287l-49 48l59 224z" />
    <glyph glyph-name="cid944" unicode="&#x54ce;" 
d="M78 755h137l49 -39v-838l-49 -40h-137l-50 40v838zM418 438v-292l62 -87l64 87v292h100v-319l-104 -142l66 -92h63v-80h-124l-65 90l-65 -90h-124v80h63l67 92l-103 142v319h100zM431 799v-118h98v118h100v-118h42v-80h-42v-118h-100v118h-98v-118h-100v118h-42v80h42
v118h100zM169 676h-46v-758h46v758z" />
    <glyph glyph-name="cid945" unicode="&#x5509;" 
d="M78 755h137l49 -39v-838l-49 -40h-137l-50 40v838zM671 114h-135l124 -284l-94 -26l-89 204l-89 -204l-94 26l124 284h-131v79h140v147h-79l-49 40v118h99v-78h262v-80h-133v-147h144v-79zM446 778l-49 -179h155v136h100v-176l-50 -40h-267l-49 48l63 228zM169 676h-46
v-758h46v758z" />
    <glyph glyph-name="cid946" unicode="&#x54c0;" 
d="M411 -193h-181l-50 40v165l-64 -96l-88 37l177 267h-87l-50 40v268l50 39h464l50 -39v-268l-50 -40h-265l-67 -101h30v-232h131v-80zM532 488h-364v-189h364v189zM32 706h268v88h100v-88h268v-80h-636v80zM455 201l57 -105h155v-80h-111l100 -183l-91 -31l-201 367z" />
    <glyph glyph-name="cid947" unicode="&#x7691;" 
d="M78 691h27v90h100v-90h28l50 -40v-778l-50 -40h-155l-50 40v778zM307 394h318l50 -40v-232l-50 -40h-213v-196h261v-80h-309l-51 40v276l49 40h213v153h-268v79zM537 797v-277h41v243h96v-283l-50 -40h-267l-50 40v283h95v-243h41v277h94zM183 611h-55v-309h55v309z
M183 -87v309h-55v-309h55z" />
    <glyph glyph-name="cid948" unicode="&#x764c;" 
d="M27 191h55v270h-55v80h55v150l50 40h221v65h99v-65h217v-80h-487v-807l-50 -40h-105v80h55v227h-55v80zM315 70v-180h72v212h99v-212h71v180h100v-220l-50 -39h-341l-50 39v220h99zM292 619h289l50 -40v-133l-50 -40h-289l-50 40v133zM246 373h130l44 -40v-167l-44 -40
h-130l-43 40v167zM496 373h130l44 -40v-167l-44 -40h-130l-43 40v167zM531 540h-189v-54h189v54zM583 292h-43v-85h43v85zM333 292h-43v-85h43v85z" />
    <glyph glyph-name="cid949" unicode="&#x853c;" 
d="M310 558h278l50 -40v-220l-50 -40h-278l-50 40v220zM457 574v71h-212v-71h-100v71h-116v80h116v71h100v-71h212v71h99v-71h116v-80h-116v-71h-99zM478 -115h75v265h-244l-49 39v57h99v-17h244l50 -40v-344l-50 -40h-125v80zM254 -195h-98l-50 40v466h-70v80h120l50 -40
v-466h48v-80zM457 -174h-143l-50 40v264h100v-225h93v-79zM376 -69l41 141v59h90v-59l41 -141l-68 -13l-18 63l-18 -63zM215 417h-83l-50 40v100h100v-60h33v-80zM538 338v30h-178v-30h178zM538 478h-178v-30h178v30z" />
    <glyph glyph-name="cid950" unicode="&#x77ee;" 
d="M29 -182l75 461h-78v79h84v280h-31l-47 37v123h95v-85h151v-75h-68v-280h68v-79h-68l76 -461l-94 -10l-35 255l-34 -255zM428 260v-50h246v-80h-25v-128l-90 -68l67 -50h48v-80h-93l-95 74l-97 -74h-92v80h49l68 50l-86 68v128h-31v80h31v50h100zM435 276v259h-136v80
h136v63h-128v76h271v42h95v-80l-47 -38h-91v-63h137v-80h-137v-259h-100zM412 506l-26 -230h-88l27 230h87zM647 506l24 -230h-86l-25 230h87zM549 32v98h-121v-98l59 -44z" />
    <glyph glyph-name="cid951" unicode="&#x827e;" 
d="M595 511v-214l-9 -12l-174 -205l165 -194h93v-85h-144l-15 18l-161 189l-161 -189l-15 -18h-144v85h93l165 194l-174 205l-9 12v214h100v-187l145 -171l145 171v187h100zM452 548v85h-204v-85h-99v85h-121v80h121v85h99v-85h204v85h99v-85h121v-80h-121v-85h-99z" />
    <glyph glyph-name="cid952" unicode="&#x788d;" 
d="M27 314l60 383h-56v80h266v-80h-115l-35 -222h95l47 -37v-582l-47 -37h-130l-47 37v458h-38zM368 796h246l50 -40v-332l-50 -40h-246l-50 40v332zM673 83h-54v-238l-50 -40h-92v80h43v198h-211v80h211v100h-202v79h346v-79h-45v-100h54v-80zM196 401h-38v-508h38v508z
M371 -144l-43 194h94l43 -194h-94zM564 717h-146v-87h146v87zM564 464v86h-146v-86h146z" />
    <glyph glyph-name="cid953" unicode="&#x7231;" 
d="M275 109l155 -112l139 104v39h-356l-63 -301l-49 -34h-72v80h29l85 404h-108v80h125l19 89l98 -14l-16 -75h409v-80h-426l-14 -69h389l50 -40v-113l-16 -12l-149 -112l80 -58h84v-80h-121l-15 10l-101 73l-95 -72l-14 -11h-139v80h99l75 57l-149 109zM29 412v112l50 40
h25l-22 97h100l22 -97h100l-22 97h99l22 -97h93l22 97h100l-23 -97h26l50 -40v-122h-100v82h-442v-72h-100zM667 798v-70l-50 -40h-579v80h529v30h100z" />
    <glyph glyph-name="cid954" unicode="&#x9698;" 
d="M132 -50h27v336h-27v79h27v335h-40v-898h-92v938l46 40h132l46 -40v-395l-17 -20l17 -20v-394l-46 -40h-73v79zM257 -116h20v324l44 41h288l45 -41v-324h20v-80h-417v80zM660 512h-390v80h390v-80zM417 486l-30 -208h-99l31 208h98zM612 486l31 -208h-99l-30 208h98z
M319 613l-31 171h99l30 -171h-98zM514 613l30 171h99l-31 -171h-98zM366 -116h25v283h-25v-283zM565 167h-24v-283h24v283zM454 -116h23v283h-23v-283z" />
    <glyph glyph-name="cid955" unicode="&#x978d;" 
d="M316 640h-15v-123l-45 -35h-31v-58h54l40 -36v-269l-40 -35h-54v-70h91v-80h-91v-132h-101v132h-92v80h92v70h-55l-40 35v269l40 36h54v58h-32l-45 35v123h-16v80h16v77h90v-77h75v77h90v-77h15v-80zM479 529v-87h194v-79h-29v-267l-77 -111l65 -101h42v-80h-94l-69 100
l-68 -100h-95v80h43l65 101l-77 111v267h-40v79h40v87h100zM552 798v-59h71l50 -40v-158h-100v118h-135v-103h-100v143l50 40h71v59h93zM544 121v242h-65v-242l32 -51zM211 553v87h-75v-87h75zM109 155h20v197h-20v-197zM239 352h-19v-197h19v197z" />
    <glyph glyph-name="cid956" unicode="&#x6c28;" 
d="M42 184v110l50 35h125v45h100v-45h125l50 -35v-110h-99v75h-251v-29h71v-68h291v-80h-70v-124l-24 -12l-43 -21l78 -39h72v-80h-100l-12 6l-132 66l-131 -66l-12 -6h-101v80h72l78 39l-66 33v124h-83v80h83v22h-71zM31 471h554l50 -40v-547h33v-80h-83l-50 40v547h-504
v80zM131 795v-42h509v-80h-559l-50 40v82h100zM56 613h559v-80h-559v80zM334 2v80h-121v-80l60 -30z" />
    <glyph glyph-name="cid957" unicode="&#x5b89;" 
d="M214 501v-63h458v-80h-77v-247l-17 -12l-151 -104l150 -107h93v-80h-130l-15 10l-173 124l-178 -124l-14 -10h-130v80h93l154 108l-146 104l-17 12v246h-86v80h86v63h100zM30 527v147l50 40h220v82h100v-82h220l50 -40v-147h-100v107h-440v-107h-100zM496 148v210h-282
v-211l138 -99z" />
    <glyph glyph-name="cid958" unicode="&#x4ffa;" 
d="M268 439h120v102h100v-102h120l50 -40v-372l-50 -40h-120v-104h183v-79h-233l-50 40v143h-120l-50 40v372zM73 -197v901h-47v80h97l49 -40v-941h-99zM579 460l-95 183h-95l-86 -183l-94 26l73 157h-76v79h113l35 75l95 -26l-23 -49h245v-79h-82l84 -157zM559 67v106h-71
v-106h71zM559 359h-71v-106h71v106zM318 253h70v106h-70v-106zM318 67h70v106h-70v-106z" />
    <glyph glyph-name="cid959" unicode="&#x6309;" 
d="M414 514v-86h259v-79h-30v-242l-104 -118l92 -105h42v-80h-94l-101 115l-100 -115h-95v80h43l91 105l-103 118v242h-42v79h42v86h100zM254 558h-65v-342h65v-80h-65v-292l-50 -40h-106v80h56v252h-60v80h60v342h-60v80h60v158h100v-158h65v-80zM522 796v-88h100l50 -40
v-148h-100v108h-199v-93h-100v133l50 40h99v88h100zM543 132v217h-129v-217l64 -74z" />
    <glyph glyph-name="cid960" unicode="&#x6697;" 
d="M78 744h139l50 -40v-807l-50 -40h-139l-50 40v807zM355 275h253l50 -40v-391l-50 -40h-253l-50 40v391zM670 657h-378v79h139v58h100v-58h139v-79zM675 324h-388v80h388v-80zM515 436l37 188h100l-38 -188h-99zM348 436l-37 188h99l38 -188h-100zM558 -116v116h-153v-116
h153zM558 195h-153v-116h153v116zM172 -63v329h-49v-329h49zM172 664h-49v-319h49v319z" />
    <glyph glyph-name="cid961" unicode="&#x5cb8;" 
d="M667 0h-191v-188h-100v188h-190v80h190v178h-175v80h451v-80h-176v-178h191v-80zM29 -113h24v555l50 40h568v-79h-518v-556l-50 -40h-74v80zM410 796v-165h153v152h100v-192l-50 -39h-505l-50 39v192h100v-152h153v165h99z" />
    <glyph glyph-name="cid962" unicode="&#x80fa;" 
d="M155 -118h29v223h-55v-304h-100v944l50 40h154l50 -40v-903l-50 -40h-78v80zM447 525v-98h226v-79h-29v-253l-89 -111l77 -100h42v-80h-94l-85 106l-84 -106h-95v80h43l77 100l-89 111v253h-40v79h40v98h100zM539 799v-83h84l50 -40v-148h-100v108h-167v-93h-100v133
l50 40h83v83h100zM544 122v226h-97v-224l49 -64zM129 185h55v235h-55v-235zM184 705h-55v-205h55v205z" />
    <glyph glyph-name="cid963" unicode="&#x6848;" 
d="M256 654v-68h415v-80h-124v-120l-30 -10l-41 -14l83 -28h106v-80h-126l-10 4l-179 61l-182 -61l-10 -4h-125v80h106l85 29l-37 13l-30 10v120h-127v80h127v68h99zM572 -197l-120 315h-53v-314h-100v314h-53l-120 -315l-96 23l111 292h-114v80h272v73h100v-73h272v-80
h-114l111 -292zM35 615v105l50 40h216v36h99v-36h216l50 -40v-105h-100v65h-431v-65h-100zM448 439v67h-192v-68l94 -33z" />
    <glyph glyph-name="cid964" unicode="&#x80ae;" 
d="M156 -116h28v223h-56v-304h-100v936l50 40h155l50 -40v-895l-50 -40h-77v80zM304 -114h31l9 638l50 39h186l50 -40v-637h44v-80h-94l-50 40v637h-87l-9 -637l-50 -40h-80v80zM674 627h-367v80h134v91h100v-91h133v-80zM128 187h56v231h-56v-231zM184 699h-56v-201h56v201
z" />
    <glyph glyph-name="cid965" unicode="&#x6602;" 
d="M96 794h506l50 -40v-344l-50 -40h-506l-50 40v344zM344 -197v480l50 40h221l50 -40v-341l-50 -40h-115v80h65v261h-121v-440h-100zM284 -110h-198l-50 40v338l50 40h137v27h99v-67l-50 -40h-136v-259h148v-79zM552 714h-406v-92h406v92zM552 450v92h-406v-92h406z" />
    <glyph glyph-name="cid966" unicode="&#x76ce;" 
d="M29 267l226 154h-225v80h46v169l49 40h175v83h99v-83h175l49 -40v-169h46v-80h-225l226 -154l-71 -67l-250 170l-249 -170zM671 -195h-643v80h34v266l50 35h475l50 -35v-266h34v-80zM524 630h-125v-129h125v129zM175 501h125v129h-125v-129zM162 -115h59v232h-59v-232z
M537 117h-59v-232h59v232zM321 -115h57v232h-57v-232z" />
    <glyph glyph-name="cid967" unicode="&#x51f9;" 
d="M544 696h-65v-465l-50 -40h-158l-50 40v465h-65v-799h388v799zM429 776h165l50 -40v-879l-50 -40h-488l-50 40v879l50 40h165l50 -40v-465h58v465z" />
    <glyph glyph-name="cid968" unicode="&#x6556;" 
d="M365 667h-119v-91h109v-79h-109v-91h119v-80h-198v-77h143l50 -40v-365l-50 -40h-103v80h53v286h-93v-326l-50 -40h-89v80h39v442h-39v80h119v91h-109v79h109v91h-119v80h119v50h99v-50h119v-80zM489 798v-82h184v-80h-21v-458l-73 -169l60 -132h35v-75h-101l-43 93
l-39 -93h-105v75h36l56 132l-78 169v405h94v-384l33 -74l31 74v437h-119l-49 40v122h99z" />
    <glyph glyph-name="cid969" unicode="&#x71ac;" 
d="M356 385h-192l-4 -63h143l50 -40v-229l-50 -40h-105v80h55v149h-97l-10 -191l-50 -38h-66v80h19l16 292h-36v80h113v64h-102v80h102v64h-108v80h108v42h100v-42h109v-80h-109v-64h102v-80h-102v-64h114v-80zM491 580v-209l32 -61l32 61v281h-124l-50 40v103h100v-63h192
v-80h-18v-296l-4 -8l-73 -140l62 -115h33v-80h-98l-13 24l-37 68l-35 -68l-12 -24h-99v80h32l59 115l-74 140l-4 8v224h99zM41 -196v167h100v-167h-100zM381 -196v167h100v-167h-100zM214 -196v167h100v-167h-100zM554 -196v167h99v-167h-99z" />
    <glyph glyph-name="cid970" unicode="&#x7ff1;" 
d="M242 340l-14 -32h148v-80h-51l58 -138l-94 -25l-68 163h-28l-70 -164l-94 26l59 138h-55v80h89l24 56h-54l-50 40v310l50 40h63v44h100v-44h62l50 -40v-310l-50 -40h-163zM380 790h99l44 -40v-907l-44 -40h-76v80h31v236h-46v80h46v231h-46v80h46v200h-54v80zM531 790h99
l44 -40v-907l-44 -40h-76v80h31v236h-46v80h46v231h-46v80h46v200h-54v80zM255 125v-103h121v-79h-121v-140h-100v140h-122v79h122v103h100zM267 444v75h-125v-75h125zM267 674h-125v-75h125v75z" />
    <glyph glyph-name="cid971" unicode="&#x8884;" 
d="M674 334h-129l128 -514l-98 -15l-91 365l-89 -365l-98 15l126 514h-124v80h134v233h-129v80h264v69h99v-109l-50 -40h-84v-233h141v-80zM25 200l120 368h-117v79h181l48 -49l-71 -219l50 92l63 -32l-55 -97l49 -139l-72 -15l-20 65v-446h-100v379zM103 667v130h100v-130
h-100z" />
    <glyph glyph-name="cid972" unicode="&#x50b2;" 
d="M426 474h-65v-89h65v-80h-115l-3 -51h76l44 -42v-367l-44 -39h-79v85h36v279h-36l-16 -366l-89 3l21 498h-23v80h65v89h-65v80h65v90h-65v79h65v74h98v-74h65v-79h-65v-90h65v-80zM552 797v-84h121v-79h-13v-449l-56 -170l46 -135h21v-77h-86l-26 76l-25 -76h-89v77h23
l45 134l-58 171v422h87v-412l16 -47l15 46v440h-72l-51 40v123h102zM73 -197v901h-45v80h95l49 -40v-941h-99z" />
    <glyph glyph-name="cid973" unicode="&#x5965;" 
d="M375 795v-48h223l50 -40v-508h-100v468h-396v-468h-100v508l50 40h173v48h100zM31 -133l207 185h-211v80h273v58h100v-58h273v-80h-211l207 -185l-78 -56l-241 216l-241 -216zM305 216v205h-134v72h134v146h90v-146h134v-72h-134v-205h-90zM291 396l-33 -180h-89l32 180
h90zM499 396l32 -180h-89l-33 180h90zM195 516l-24 109h85l24 -109h-85zM419 516l24 109h84l-24 -109h-84z" />
    <glyph glyph-name="cid974" unicode="&#x61ca;" 
d="M492 797v-38h130l45 -41v-500h-90v461h-263v-461h-90v500l45 41h123v38h100zM207 297h-33v-493h-100v752h-45v80h45v158h100v-417h33v-80zM496 219v-71h176v-80h-155l157 -229l-90 -35l-137 202l-135 -202l-90 35l154 229h-152v80h172v71h100zM561 447h-73v-205h-85v205
h-74v79h74v131h85v-131h73v-79zM389 427l-6 -185h-55l6 185h55zM557 427l6 -185h-54l-6 185h54zM334 547l-6 101h55l6 -101h-55zM503 547l6 101h54l-6 -101h-54z" />
    <glyph glyph-name="cid975" unicode="&#x6fb3;" 
d="M482 798v-39h140l45 -41v-500h-90v461h-283v-461h-90v500l45 41h133v39h100zM486 219v-75h186v-80h-162l162 -216l-91 -44l-144 196l-142 -196l-95 43l163 217h-159v80h182v75h100zM561 447h-80v-205h-90v205h-82v79h82v131h90v-131h80v-79zM29 -196v380l50 44h99v-80
h-50v-344h-99zM128 514v-134h50v-80h-99l-50 45v169h99zM128 788v-134h50v-80h-99l-50 45v169h99zM376 427l-6 -185h-62l6 185h62zM557 427l6 -185h-61l-6 185h61zM314 547l-6 101h62l6 -101h-62zM496 547l6 101h61l-6 -101h-61z" />
    <glyph glyph-name="cid976" unicode="&#x82ad;" 
d="M609 127h-466v-245h517v-80h-567l-50 40v654l50 40h516l50 -40v-330zM444 559v79h-188v-79h-100v79h-128v80h128v78h100v-78h188v78h100v-78h128v-80h-128v-79h-100zM559 206v250h-160v-250h160zM143 206h156v250h-156v-250z" />
    <glyph glyph-name="cid977" unicode="&#x634c;" 
d="M210 324h35l5 64l94 -5l-4 -59h76l48 -40v-438l-48 -40h-72v81h25v357h-35l-29 -401l-47 -38h-67v81h22l26 358h-29v80zM197 565h-38v-339h38v-80h-38v-302l-50 -40h-79v80h35v262h-40v80h40v339h-40v80h40v151h94v-151h38v-80zM673 797v-954l-43 -38h-115v76h63v916h95z
M269 790h144l50 -40v-296l-50 -40h-144l-50 40v296zM558 740v-789h-70v789h70zM369 711h-55v-218h55v218z" />
    <glyph glyph-name="cid978" unicode="&#x6252;" 
d="M292 565h-82v-339h82v-80h-82v-302l-50 -40h-127v80h77v262h-83v80h83v339h-83v80h83v151h100v-151h82v-80zM613 794l18 -909h42v-80h-91l-50 39l-19 950h100zM429 794l-18 -950l-50 -39h-92v80h43l18 909h99z" />
    <glyph glyph-name="cid979" unicode="&#x53ed;" 
d="M441 789l-18 -945l-50 -39h-92v80h43l18 904h99zM611 789l18 -904h42v-80h-91l-50 39l-19 945h100zM78 755h140l49 -39v-838l-49 -40h-140l-50 40v838zM172 676h-49v-758h49v758z" />
    <glyph glyph-name="cid980" unicode="&#x5427;" 
d="M617 232h-218v-347h272v-79h-322l-50 40v900l50 40h268l50 -40v-474zM79 755h137l49 -39v-838l-49 -40h-137l-50 40v838zM170 676h-46v-758h46v758zM399 312h39v394h-39v-394zM567 312v394h-39v-394h39z" />
    <glyph glyph-name="cid981" unicode="&#x7b06;" 
d="M585 74h-426v-190h507v-80h-557l-50 40v566l50 40h476l49 -40v-296zM150 493v129h-70l-50 40v134h100v-94h208v-80h-88v-129h-100zM480 493v129h-70l-50 40v134h100v-94h208v-80h-88v-129h-100zM535 154v216h-141v-216h141zM159 154h136v216h-136v-216z" />
    <glyph glyph-name="cid982" unicode="&#x2f0b;" 
d="M263 785l-61 -937l-50 -38h-122v79h74l59 896h100zM533 785l59 -896h75v-79h-123l-50 38l-61 937h100z" />
    <glyph glyph-name="cid982" unicode="&#x516b;" 
d="M263 785l-61 -937l-50 -38h-122v79h74l59 896h100zM533 785l59 -896h75v-79h-123l-50 38l-61 937h100z" />
    <glyph glyph-name="cid983" unicode="&#x75a4;" 
d="M670 -200h-374l-49 40v737l49 40h287l49 -40v-443l-49 -40h-237v-214h324v-80zM30 194h69v270h-69v79h69v150l50 40h206v65h100v-65h216v-80h-472v-806l-50 -40h-119v79h69v228h-69v80zM346 537v-363h44v363h-44zM533 174v363h-44v-363h44z" />
    <glyph glyph-name="cid984" unicode="&#x5df4;" 
d="M582 278h-440v-383h517v-80h-567l-50 40v880l50 40h490l50 -40v-417zM142 358h149v337h-149v-337zM532 358v337h-141v-337h141z" />
    <glyph glyph-name="cid985" unicode="&#x62d4;" 
d="M381 -115h31l66 117l-61 137v239h100v-232l19 -41l24 42v275h-154l-55 -620l-99 3l68 771h-45v80h52l13 142l99 -2l-13 -140h247v-80h-254l-6 -74h197l49 -34v-330l-72 -137l56 -116h27v-80h-103l-39 86l-45 -86h-102v80zM257 575h-66v-349h66v-80h-66v-302l-50 -40h-109
v80h59v262h-62v80h62v349h-62v80h62v141h100v-141h66v-80zM648 699h-140v79h140v-79z" />
    <glyph glyph-name="cid986" unicode="&#x8dcb;" 
d="M417 -125h26l57 121l-54 144v253h95v-246l14 -37l18 38v277h-141l-33 -623l-99 3l42 775h-38v80h43l7 135l98 -2l-7 -133h227v-80h-232l-4 -75h184l48 -34v-332l-70 -145l45 -119h29v-68h-100l-28 74l-35 -74h-92v68zM286 128h-49v-249h49v-75h-218l-37 37v504h85v-466
h30v521h-72l-45 36v316l45 36h168l45 -36v-316l-45 -36h-5v-192h49v-80zM193 708h-69v-228h69v228zM646 702h-123v77h123v-77z" />
    <glyph glyph-name="cid987" unicode="&#x9776;" 
d="M624 231h-198v-347h247v-79h-293l-45 40v900l45 40h244l45 -40v-474zM309 663h-15v-123l-45 -35h-28v-58h51l40 -36v-280l-40 -35h-51v-70h88v-80h-88v-140h-100v140h-89v80h89v70h-52l-40 35v280l40 36h52v58h-30l-45 35v123h-16v80h16v58h90v-58h68v58h90v-58h15v-80z
M578 311v394h-31v-394h31zM426 311h30v394h-30v-394zM204 576v87h-68v-87h68zM109 167h20v208h-20v-208zM232 375h-20v-208h20v208z" />
    <glyph glyph-name="cid988" unicode="&#x628a;" 
d="M618 191h-228v-306h282v-79h-332l-50 40v883l50 40h278l50 -40v-498zM263 569h-68v-343h68v-80h-68v-302l-50 -40h-112v80h62v262h-67v80h67v343h-67v80h67v147h100v-147h68v-80zM568 271v418h-40v-418h40zM390 271h38v418h-38v-418z" />
    <glyph glyph-name="cid989" unicode="&#x8019;" 
d="M625 226h-198v-346h247v-78h-293l-45 39v898l45 40h244l45 -40v-473zM314 645h-95v-100h89v-81h-89v-101h95v-80h-95v-478h-93v478h-96v80h96v101h-90v81h90v100h-96v80h96v75h93v-75h95v-80zM308 239l9 -434h-74l-9 434h74zM110 239l-9 -434h-74l10 434h73zM579 306v393
h-31v-393h31zM427 306h30v393h-30v-393z" />
    <glyph glyph-name="cid990" unicode="&#x575d;" 
d="M270 142v601l50 40h293l50 -40v-601h-100v562h-193v-562h-100zM261 -162l156 338v476h99v-476l156 -338l-93 -28l-113 241l-112 -241zM241 -146h-214v80h56v581h-56v80h56v198h100v-198h58v-80h-58v-581h58v-80z" />
    <glyph glyph-name="cid991" unicode="&#x9738;" 
d="M441 450h123v39h-123v68h123v37h-164v-220h-100v220h-164v-37h123v-68h-123v-39h123v-68h-123v-22h-100v274l50 40h214v38h-272v79h644v-79h-272v-38h214l50 -40v-274h-100v22h-123v68zM361 -113h18v416l50 40h189l50 -40v-455l-50 -40h-105v79h56v69h-91v-108l-49 -40
h-68v79zM148 -195v56h-119v68h119v24h-71l-44 31v120l44 31h71v26h-46l-45 32v58h-28v68h28v29h90v-29h91v29h90v-29h29v-68h-29v-58l-45 -32h-45v-26h65l45 -31v-120l-45 -31h-65v-24h114v-68h-114v-56h-90zM478 36h91v79h-91v-79zM569 264h-91v-69h91v69zM238 224v27h-91
v-27h91zM122 15h28v58h-28v-58zM258 73h-23v-58h23v58z" />
    <glyph glyph-name="cid992" unicode="&#x7f62;" 
d="M89 793h522l50 -40v-247l-50 -40h-522l-50 40v247zM400 445v-86h254v-80h-254v-127h272v-80h-434l-59 -185h359v139h100v-179l-50 -40h-473l-48 50l68 215h-107v80h272v127h-254v80h254v86h100zM311 546h78v167h-78v-167zM139 546h72v167h-72v-167zM561 713h-72v-167h72
v167z" />
    <glyph glyph-name="cid993" unicode="&#x7238;" 
d="M590 30h-426v-138h507v-80h-557l-50 40v458l50 40h476l50 -40v-240zM671 677h-66v-100l-27 -12l-119 -52l113 -50h99v-84h-126l-11 6l-183 80l-183 -80l-12 -6h-125v84h99l113 50l-119 52l-27 12v100h-66v80h178v40h99v-80l-49 -40h-57v-51l149 -66l149 66v51h-57l-50 40
v80h100v-40h178v-80zM540 110v160h-140v-160h140zM164 110h136v160h-136v-160z" />
    <glyph glyph-name="cid994" unicode="&#x2f69;" 
d="M115 679h108v117h100v-117h258l50 -39v-795l-50 -40h-466l-50 40v795zM531 600h-366v-318h366v318zM531 -115v317h-366v-317h366z" />
    <glyph glyph-name="cid994" unicode="&#x767d;" 
d="M115 679h108v117h100v-117h258l50 -39v-795l-50 -40h-466l-50 40v795zM531 600h-366v-318h366v318zM531 -115v317h-366v-317h366z" />
    <glyph glyph-name="cid995" unicode="&#x67cf;" 
d="M371 681h71v115h100v-115h80l50 -40v-799l-50 -39h-251l-50 39v799zM298 581h-90v-777h-93v777h-89v80h89v139h93v-139h90v-80zM573 -118v327h-152v-327h152zM573 601h-152v-312h152v312zM100 526l-11 -722h-61l11 722h61zM286 526l9 -722h-60l-10 722h61z" />
    <glyph glyph-name="cid996" unicode="&#x767e;" 
d="M115 601h189v105h-276v79h640v-79h-265v-105h178l50 -40v-716l-50 -40h-466l-50 40v716zM531 -115v283h-366v-283h366zM531 521h-366v-273h366v273z" />
    <glyph glyph-name="cid997" unicode="&#x6446;" 
d="M510 451v-77h150v-80h-150v-129h162v-80h-253l-49 -200h180v140h99v-180l-49 -40h-290l-49 47l56 233h-68v80h162v129h-150v80h150v77h99zM299 795h324l50 -40v-243l-50 -40h-324l-50 40v243zM229 565h-52v-339h52v-80h-52v-302l-50 -40h-93v80h43v262h-50v80h50v339h-50
v80h50v151h100v-151h52v-80zM574 715h-30v-163h30v163zM445 552h29v163h-29v-163zM349 552h26v163h-26v-163z" />
    <glyph glyph-name="cid998" unicode="&#x4f70;" 
d="M292 593h107v106h-173v80h446v-80h-173v-106h107l50 -40v-712l-50 -39h-314l-50 39v712zM74 -197v901h-47v80h97l49 -40v-941h-99zM557 513h-216v-276h216v276zM557 -119v276h-216v-276h216z" />
    <glyph glyph-name="cid999" unicode="&#x8d25;" 
d="M449 797v-71h224v-80h-32v-466l-84 -165l71 -128h42v-80h-105l-59 107l-54 -107h-109v80h44l63 126l-91 166v428h100v-412l43 -79l39 78v452h-142l-50 40v111h100zM210 237v470h-76v-470h-100v510l50 40h176l49 -40v-510h-99zM28 -176l95 394h98l95 -394l-98 -15l-46 191
l-46 -191z" />
    <glyph glyph-name="cid1000" unicode="&#x62dc;" 
d="M463 -198v165h-110v80h110v170h-94v80h94v165h-94v80h94v170h-101v80h302v-80h-101v-170h93v-80h-93v-165h93v-80h-93v-170h110v-80h-110v-165h-100zM324 380h-92v-231h102v-80h-102v-225l-50 -40h-98v80h48v185h-102v80h102v231h-92v80h92v222h-92v80h190v35h100v-75
l-50 -40h-48v-222h92v-80z" />
    <glyph glyph-name="cid1001" unicode="&#x7a17;" 
d="M338 66l60 189h-25l-46 40v420l46 40h59v42h102v-42h86l46 -40v-420l-46 -40h-121l-58 -189h-103zM304 798v-65l-40 -40h-46v-103h87v-80h-87v-706h-100v706h-87v80h87v103h-82v80h169v25h99zM490 -194v162h-172v80h172v144h101v-144h78v-80h-78v-162h-101zM104 470
l-14 -666h-57l14 666h57zM303 -196h-56l-14 666h56zM418 336h36v134h-36v-134zM418 540h36v134h-36v-134zM574 674h-35v-134h35v134zM574 336v134h-35v-134h35z" />
    <glyph glyph-name="cid1002" unicode="&#x6591;" 
d="M456 -197h-88l-6 26l-14 60l-13 -60l-6 -26h-87v64h21l46 201l-53 240v292h-38v70h82v119h100v-119h83v-70h-37v-288l-1 -4l-55 -239l45 -202h21v-64zM671 -195h-204v79h52v369h-51v80h51v368h-52v80h204v-80h-52v-368h51v-80h-51v-369h52v-79zM233 -195h-205v79h53v369
h-51v80h51v368h-53v80h205v-80h-53v-368h51v-80h-51v-369h53v-79zM366 316v284h-31v-283l15 -69z" />
    <glyph glyph-name="cid1003" unicode="&#x73ed;" 
d="M240 -174h-211v80h56v358h-56v79h56v343h-56v80h211v-80h-56v-343h56v-79h-56v-358h56v-80zM672 -178h-201v80h51v363h-51v79h51v340h-51v80h201v-80h-51v-340h51v-79h-51v-363h51v-80zM451 799v-949l-50 -40h-111v80h67v909h94zM331 692v-720h-72v720h72z" />
    <glyph glyph-name="cid1004" unicode="&#x642c;" 
d="M204 -198v442h-19v80h19v376l43 34h23v63h100v-63h23l43 -34v-864l-43 -34h-85v78h43v364h-62v-442h-85zM190 568h-37v-340h37v-80h-37v-304l-46 -40h-76v81h31v263h-38v80h38v340h-38v81h38v151h91v-151h37v-81zM461 -108h19l35 72l-50 101l-5 9v193h90v-172l15 -30
l15 30v202h-123v90h168l45 -45v-268l-5 -9l-50 -100l37 -73h20v-90h-76l-12 25l-18 37l-18 -37l-13 -25h-74v90zM450 489h9v260l45 45h118l45 -45v-260h7v-90h-52l-44 45v261h-29v-261l-45 -45h-54v90zM351 666h-62v-342h62v342zM300 390v212h40v-212h-40zM300 -27v212h40
v-212h-40z" />
    <glyph glyph-name="cid1005" unicode="&#x6273;" 
d="M664 795v-73l-50 -39h-235v-112h232l50 -40v-400l-75 -147l49 -103h37v-80h-98l-39 82l-41 -82h-98v80h33l56 108l-68 142v318h95v-306l25 -54l29 55v348h-187v-648l-50 -40h-84v79h34v839l50 40h235v33h100zM258 556h-66v-330h66v-80h-66v-302l-50 -40h-103v80h53v262
h-65v80h65v330h-65v80h65v160h100v-160h66v-80z" />
    <glyph glyph-name="cid1006" unicode="&#x822c;" 
d="M55 -195v438h-28v80h28v377l48 36h50v61h100v-61h41l48 -36v-859l-48 -36h-100v72h52v366h-95v-438h-96zM371 -114h34l57 78l-80 110v200h100v-180l37 -51l38 51v208h-179v79h228l50 -40v-266l-79 -110l58 -79h35v-79h-94l-57 78l-55 -78h-93v79zM357 484h24v265l49 40
h173l50 -40v-265h20v-80h-70l-50 40v265h-73v-265l-50 -40h-73v80zM246 664h-95v-341h95v341zM169 -33v222h59v-222h-59zM169 376v222h59v-222h-59z" />
    <glyph glyph-name="cid1007" unicode="&#x9881;" 
d="M667 712h-106v-82h61l43 -37v-533h-86v497h-134v-497h-86v533l43 37h61v82h-106v80h310v-80zM35 372h244l45 -36v-490l-45 -36h-87v80h38v402h-65v-446l-45 -36h-85v80h36v402h-36v80zM355 -177l111 274v407h92v-410l112 -271l-88 -20l-70 173l-70 -173zM157 797v-338
l-45 -36h-84v80h34v294h95zM304 797v-294h35v-80h-85l-44 36v338h94z" />
    <glyph glyph-name="cid1008" unicode="&#x677f;" 
d="M662 800v-69l-46 -40h-208v-131h211l45 -40v-387l-65 -140l50 -112h28v-80h-91l-37 84l-39 -84h-90v80h29l52 112l-62 140v304h92v-292l20 -46l22 47v334h-165v-636l-45 -40h-65v79h19v848l46 40h207v29h92zM291 581h-87v-777h-90v777h-86v80h86v139h90v-139h87v-80z
M280 526l9 -722h-59l-10 722h60zM100 526l-11 -722h-59l11 722h59z" />
    <glyph glyph-name="cid1009" unicode="&#x7248;" 
d="M665 793v-69l-50 -40h-176v-144h187l45 -36v-372l-61 -150l41 -108h20v-72h-86l-23 61l-25 -61h-83v72h18l44 109l-56 149v295h90v-285l15 -40l16 40v326h-142v-627l-50 -40h-73v80h23v843l50 40h176v29h100zM283 793v-314h29v-80h-162v-104h99l50 -40v-453h-100v413h-49
v-374l-50 -40h-73v80h23v882h100v-284h33v314h100z" />
    <glyph glyph-name="cid1010" unicode="&#x626e;" 
d="M274 376h320l50 -40v-490l-50 -40h-116v80h66v410h-126v-450l-50 -40h-100v80h50v410h-44v80zM262 565h-68v-339h68v-80h-68v-302l-50 -40h-107v80h57v262h-67v80h67v339h-67v80h67v151h100v-151h68v-80zM616 797v-298h56v-80h-106l-50 40v338h100zM415 797v-338l-50 -40
h-105v80h55v298h100z" />
    <glyph glyph-name="cid1011" unicode="&#x62cc;" 
d="M526 795v-367h143v-80h-143v-226h146v-80h-146v-239h-100v239h-145v80h145v226h-143v80h143v367h100zM264 565h-68v-339h68v-80h-68v-302l-50 -40h-107v80h57v262h-67v80h67v339h-67v80h67v151h100v-151h68v-80zM556 479l24 284h90l-25 -284h-89zM308 479l-25 284h89
l25 -284h-89z" />
    <glyph glyph-name="cid1012" unicode="&#x4f34;" 
d="M491 797v-378h173v-80h-173v-219h181v-80h-181v-237h-100v237h-180v80h180v219h-173v80h173v378h100zM74 -197v901h-47v80h97l49 -40v-941h-99zM531 476l34 284h100l-35 -284h-99zM253 476l-35 284h99l35 -284h-99z" />
    <glyph glyph-name="cid1013" unicode="&#x74e3;" 
d="M489 798v-92l-35 -28h-174v-874h-70v912l35 28h174v54h70zM406 225v-400l-20 -16h-64l-32 24l12 822h65l-12 -798h11v368h40zM197 39h-36v-199l-48 -38h-83v76h36v161h-36v80h36v167h-39v80h173v-80h-39v-167h36v-80zM672 39h-35v-238h-95v238h-36v80h36v167h-39v80h173
v-80h-39v-167h35v-80zM491 655v-851h-70v851h70zM198 665h-169v72h41v62h87v-62h41v-72zM673 665h-168v72h41v62h87v-62h40v-72zM118 397l9 225h70l-9 -225h-70zM39 397l-9 225h70l8 -225h-69zM515 397l-9 225h70l8 -225h-69zM594 397l9 225h69l-8 -225h-70z" />
    <glyph glyph-name="cid1014" unicode="&#x534a;" 
d="M30 162h271v220h-249v80h249v332h100v-332h248v-80h-248v-220h270v-79h-270v-276h-100v276h-271v79zM488 517l63 250h95l-63 -250h-95zM118 517l-62 250h94l63 -250h-95z" />
    <glyph glyph-name="cid1015" unicode="&#x529e;" 
d="M41 -111h99l59 701h-134v80h140l9 99v22h100v-25l-8 -96h173l50 -40v-781l-50 -39h-170v79h120v701h-130l-63 -743l-50 -37h-145v79zM35 18l17 485h94l-17 -485h-94zM569 18l-17 485h94l17 -485h-94z" />
    <glyph glyph-name="cid1016" unicode="&#x7eca;" 
d="M532 799v-377h138v-80h-138v-230h141v-80h-141v-229h-100v229h-140v80h140v230h-138v80h138v377h100zM277 -47h-238v80h82l26 233h-119v80h14l54 451h90l-54 -451h24l33 286h94l-68 -599h62v-80zM567 469l14 294h90l-15 -294h-89zM309 469l-15 294h89l15 -294h-89z
M277 -188h-238v80h238v-80z" />
    <glyph glyph-name="cid1017" unicode="&#x90a6;" 
d="M531 -46h40v332h-40v80h40v337h-72v-900h-100v940l50 40h172l50 -40v-396l-19 -20l19 -21v-392l-50 -40h-90v80zM252 797l-2 -82h117v-79h-119l-5 -191h119v-80h-121l-5 -207h139v-80h-141l-6 -233l-50 -39h-138v80h89l5 192h-105v80h107l5 207h-99v80h101l5 191h-111v79
h113l3 83z" />
    <glyph glyph-name="cid1018" unicode="&#x5e2e;" 
d="M513 368h60v136h-56v80h56v125h-83v-451h-90v-52h194l50 -40v-279l-50 -40h-119v80h69v199h-144v-323h-100v323h-144v-268h-100v308l50 40h194v83h95v458l48 38h177l47 -38v-185l-22 -18l22 -18v-196l-47 -38h-107v76zM267 798v-15l-1 -3l-3 -22h102v-80h-110l-9 -76h114
v-80h-122l-8 -76h139v-80h-148l-8 -78l-50 -37h-100v80h54l4 35h-87v80h96l8 76h-94v80h103l8 76h-117v80h126l3 27v13h100z" />
    <glyph glyph-name="cid1019" unicode="&#x6886;" 
d="M571 -45h22v345h-21v79h21v339h-32v-913h-80v949l40 36h112l40 -36v-397l-16 -20l16 -21v-397l-40 -36h-62v72zM469 319h-59l-1 -202h60v-80h-60l-1 -192l-50 -39h-90v80h41l1 151h-47v80h47l1 202h-48v80h49l1 202h-50v80h50l1 117l99 -1l-1 -116h57v-80h-57l-1 -202h58
v-80zM251 595h-69v-792h-90v792h-65v80h65v125h90v-125h69v-80zM84 543l-11 -740l-46 1l11 740zM241 544l11 -740l-46 -1l-11 740z" />
    <glyph glyph-name="cid1020" unicode="&#x699c;" 
d="M538 405v-101h137v-80h-218l-2 -74h159l50 -40v-269l-50 -40h-127v80h78v189h-113l-8 -230l-50 -39h-97v80h49l12 343h-56v80h136v101h100zM284 581h-86v-777h-89v777h-84v80h84v139h89v-139h86v-80zM436 627l22 -99h60l22 99h100l-23 -99h8l47 -38v-128h-95v90h-178v-90
h-95v128l48 38h7l-22 99h99zM95 526l-10 -722h-58l10 722h58zM272 526l9 -722h-58l-9 722h58zM538 796v-62h137v-79h-373v79h136v62h100z" />
    <glyph glyph-name="cid1021" unicode="&#x8180;" 
d="M155 -116h28v223h-56v-304h-100v936l50 40h155l50 -40v-895l-50 -40h-77v80zM535 408v-101h137v-80h-218l-2 -74h159l50 -40v-269l-50 -40h-117v80h68v189h-113l-8 -230l-50 -39h-97v80h49l12 343h-56v80h136v101h100zM433 630l22 -99h60l22 99h100l-23 -99h8l47 -38
v-128h-95v90h-178v-90h-95v128l48 38h7l-22 99h99zM535 799v-62h137v-79h-373v79h136v62h100zM127 187h56v231h-56v-231zM183 699h-56v-201h56v201z" />
    <glyph glyph-name="cid1022" unicode="&#x7ed1;" 
d="M570 -45h22v345h-21v79h21v339h-32v-913h-80v949l40 36h112l40 -36v-397l-16 -20l16 -21v-397l-40 -36h-62v72zM468 319h-59l-1 -212h60v-80h-60l-1 -182l-50 -39h-87v80h38l1 141h-47v80h47l1 212h-48v80h49l1 212h-50v80h50l1 107l99 -1l-1 -106h57v-80h-57l-1 -212h58
v-80zM250 -42h-219v80h74l25 244h-101v80h9l46 435h80l-46 -435h20l28 275h87l-62 -599h59v-80zM250 -169h-219v80h219v-80z" />
    <glyph glyph-name="cid1023" unicode="&#x68d2;" 
d="M673 345h-38l41 -114l-96 -22l-49 136h-100l-33 -135l-96 19l28 116h-25v80h45l19 78h-56v79h76l19 79h-103v80h123l14 55l97 -20l-9 -35h143v-80h-163l-20 -79h175v-79h-194l-20 -78h222v-80zM289 581h-88v-777h-89v777h-85v80h85v139h89v-139h88v-80zM673 -80h-136
v-118h-100v118h-132v80h132v89h-124v79h124v118h100v-118h128v-79h-128v-89h136v-80zM277 526l9 -722h-59l-9 722h59zM98 526l-11 -722h-58l10 722h59z" />
    <glyph glyph-name="cid1024" unicode="&#x78c5;" 
d="M26 308l60 383h-56v80h253v-80h-102l-35 -222h84l47 -37v-582l-47 -37h-119l-47 37v458h-38zM535 408v-101h137v-80h-218l-2 -74h159l50 -40v-269l-50 -40h-127v80h78v189h-113l-8 -230l-50 -39h-97v80h49l12 343h-56v80h136v101h100zM433 630l22 -99h60l22 99h100
l-23 -99h8l47 -38v-128h-95v90h-178v-90h-95v128l48 38h7l-22 99h99zM535 799v-62h137v-79h-373v79h136v62h100zM186 395h-31v-508h31v508z" />
    <glyph glyph-name="cid1025" unicode="&#x868c;" 
d="M319 30v-175l-40 -40h-252v80h96v189h-53l-42 34v509l42 34h53v140h100v-140h53l42 -34v-509l-42 -34h-53v-189h16v135h80zM674 605h-116v-226h116v-80h-116v-225h116v-80h-116v-193h-100v193h-116v80h116v225h-116v80h116v226h-116v80h116v112h100v-112h116v-80z
M112 164h21v417h-21v-417zM234 581h-21v-417h21v417z" />
    <glyph glyph-name="cid1026" unicode="&#x9551;" 
d="M524 408v-101h149v-80h-242l-2 -74h183l50 -40v-269l-50 -40h-134v80h85v189h-137l-8 -230l-50 -39h-97v80h51l10 343h-56v80h148v101h100zM247 471h-61v-209h61v-80h-61v-298h55v-79h-105l-50 39v338h-59v80h59v209h-59v80h220v-80zM413 630l22 -99h78l22 99h100
l-23 -99h11l47 -38v-137h-95v99h-202v-99h-95v137l48 38h10l-22 99h99zM524 797v-60h149v-79h-397v79h148v60h100zM248 640h-171l-50 39v118h99v-78h122v-79z" />
    <glyph glyph-name="cid1027" unicode="&#x508d;" 
d="M495 408v-104h177v-80h-294l-4 -79h237l50 -40v-261l-50 -40h-137v80h88v181h-192l-10 -222l-50 -39h-103v80h56l15 340h-59v80h176v104h100zM74 -197v901h-47v80h97l49 -40v-941h-99zM369 633l23 -105h108l23 105h100l-24 -105h23l47 -38v-139h-95v101h-258v-101h-95
v139l48 38h24l-23 105h99zM495 797v-61h177v-79h-453v79h176v61h100z" />
    <glyph glyph-name="cid1028" unicode="&#x8c24;" 
d="M505 408v-101h167v-80h-278l-2 -74h219l50 -40v-269l-50 -40h-135v80h86v189h-173l-8 -230l-50 -39h-91v80h43l12 343h-56v80h166v101h100zM217 -197h-85l-50 40v657h-54v80h104l50 -40v-657h35v-80zM373 630l22 -99h120l22 99h100l-23 -99h8l47 -38v-128h-95v90h-238
v-90h-95v128l48 38h7l-22 99h99zM505 795v-60h167v-79h-433v79h166v60h100zM192 622h-81l-50 40v133h100v-93h31v-80z" />
    <glyph glyph-name="cid1029" unicode="&#x82de;" 
d="M407 62h-256v-175h517v-80h-567l-50 40v502l50 40h306l50 -40v-247zM143 537v-27h441l50 -40v-482l-50 -40h-235v80h185v403h-441l-50 39v67h100zM454 544v86h-208v-86h-100v86h-118v80h118v86h100v-86h208v86h100v-86h118v-80h-118v-86h-100zM151 142h206v167h-206v-167
z" />
    <glyph glyph-name="cid1030" unicode="&#x80de;" 
d="M158 -116h28v223h-56v-304h-100v936l50 40h155l50 -40v-895l-50 -40h-77v80zM675 -194h-310l-46 40v730l46 39h134l45 -39v-410l-45 -39h-88v-241h264v-80zM400 797v-45h221l46 -40v-666l-46 -39h-138v79h92v587h-221l-46 39v85h92zM411 536v-330h42v330h-42zM130 187h56
v231h-56v-231zM186 699h-56v-201h56v201z" />
    <glyph glyph-name="cid1031" unicode="&#x5305;" 
d="M151 800v-50h441l50 -40v-672l-50 -40h-235v80h185v592h-441l-50 40v90h100zM159 222h206v280h-206v-280zM415 142h-256v-256h509v-80h-559l-50 40v696l50 40h306l50 -40v-360z" />
    <glyph glyph-name="cid1032" unicode="&#x8912;" 
d="M661 327h-38l35 -137l-98 -16l-39 153h-37v-153h-100v153h-38l-38 -153l-97 16l34 137h-38v80h177v30h-101l-50 40v124l50 40h303l49 -40v-124l-49 -40h-102v-30h177v-80zM378 109l-112 -100h46v-123h167v-80h-217l-50 40v114l-101 -91l-74 53l267 240zM400 797v-43h272
v-79h-644v79h272v43h100zM86 174v394h-57v80h107l50 -40v-434h-100zM481 112l54 -78h129v-80h-73l78 -111l-86 -39l-189 270zM536 561h-203v-44h203v44z" />
    <glyph glyph-name="cid1033" unicode="&#x5265;" 
d="M418 330h-141v-484l-50 -40h-77v80h27v444h-141v80h251v106h-228v80h228v106h-234v80h284l50 -40v-332h31v-80zM673 794v-953l-45 -36h-153v80h98v909h100zM537 723v-771h-90v771h90zM29 -182l28 264h90l-28 -264h-90zM331 -182l-27 264h89l27 -264h-89zM129 307l18 -194
h-90l-18 194h90zM410 307l-17 -194h-89l17 194h89z" />
    <glyph glyph-name="cid1034" unicode="&#x8584;" 
d="M671 428h-168v-27h114l50 -40v-280h-100v35h-64v-35h-100v35h-64v-35h-100v280l50 40h114v27h-168v80h168v48h100v-48h36v33h100v-33h32v-80zM457 575v71h-212v-71h-100v71h-116v80h116v71h100v-71h212v71h99v-71h116v-80h-116v-71h-99zM619 65v-29h53v-80h-53v-110
l-50 -40h-148v80h98v70h-281v80h281v29h100zM33 -192v239l50 45h128v-90h-78v-194h-100zM133 551v-95h78v-90h-128l-50 45v140h100zM133 320v-95h78v-89h-128l-50 44v140h100zM366 -63l20 -105h-100l-20 105h100zM503 188h64v31h-64v-31zM339 188h64v31h-64v-31zM339 291h64
v30h-64v-30zM567 321h-64v-30h64v30z" />
    <glyph glyph-name="cid1035" unicode="&#x96f9;" 
d="M441 441h123v44h-123v68h123v47h-164v-235h-100v235h-164v-47h123v-68h-123v-44h123v-68h-123v-27h-100v294l50 40h214v36h-272v79h644v-79h-272v-36h214l50 -40v-294h-100v27h-123v68zM407 -39h-256v-72h517v-80h-567l-50 40v315l50 40h306l50 -40v-163zM143 333v-22
h446l50 -40v-317l-50 -40h-121v80h71v237h-446l-50 40v62h100zM151 41h206v83h-206v-83z" />
    <glyph glyph-name="cid1036" unicode="&#x4fdd;" 
d="M279 786h317l50 -40v-295l-50 -40h-108v-81h182v-80h-182v-445h-100v445h-183v80h183v81h-109l-50 40v295zM74 -197v901h-47v80h97l49 -40v-941h-99zM547 706h-218v-215h218v215zM627 213l46 -408h-100l-45 408h99zM348 213l-46 -408h-99l45 408h100z" />
    <glyph glyph-name="cid1037" unicode="&#x5821;" 
d="M387 203v222h-32l-43 -222h-95l43 222h-57v80h184v60h-123l-50 39v136l50 40h346l50 -40v-136l-50 -39h-123v-60h184v-80h-58l44 -222h-94l-44 222h-32v-222h-100zM656 34h-253v-145h261v-80h-627v80h267v145h-259v80h259v70h99v-70h253v-80zM28 759h101l50 -40v-516
h-100v476h-51v80zM560 700h-246v-56h246v56z" />
    <glyph glyph-name="cid1038" unicode="&#x9971;" 
d="M379 795v-62h236l50 -40v-655l-50 -39h-150v79h100v576h-236l-50 39v102h100zM674 -194h-337l-50 40v710l50 40h152l49 -40v-393l-49 -40h-102v-237h287v-80zM387 516v-313h52v313h-52zM173 455v162h-96l-49 39v141h99v-101h91l50 -40v-201h-95zM248 -194h-151l-50 40
v698h100v-658h101v-80z" />
    <glyph glyph-name="cid1039" unicode="&#x5b9d;" 
d="M646 138h-246v-250h263v-80h-626v80h263v250h-246v80h246v207h-256v80h612v-80h-256v-207h246v-80zM30 550v126l50 40h220v77h100v-77h220l50 -40v-126h-100v87h-440v-87h-100zM644 -32h-212v80h212v-80z" />
    <glyph glyph-name="cid1040" unicode="&#x62b1;" 
d="M673 -194h-342l-50 40v733l50 40h148l49 -40v-416l-49 -40h-98v-237h292v-80zM257 565h-67v-339h67v-80h-67v-302l-50 -40h-109v80h59v262h-63v80h63v339h-63v80h63v151h100v-151h67v-80zM373 795v-39h241l50 -40v-664l-50 -39h-150v79h100v585h-241l-50 39v79h100z
M381 539v-336h48v336h-48z" />
    <glyph glyph-name="cid1041" unicode="&#x62a5;" 
d="M406 -128h25l56 88l-68 113v207h94v-194l27 -44l28 44v222h-186v-503h-99v936l50 39h279l50 -39v-278l-50 -40h-134v79h84v199h-180v-311h232l48 -34v-282l-71 -115l53 -87h29v-68h-92l-43 71l-43 -71h-89v68zM262 565h-69v-339h69v-80h-69v-302l-50 -40h-111v80h61v262
h-66v80h66v339h-66v80h66v151h100v-151h69v-80z" />
    <glyph glyph-name="cid1042" unicode="&#x66b4;" 
d="M125 793h450l50 -39v-247l-50 -40h-450l-50 40v247zM584 53l-142 104h-183l-142 -104l-89 33l96 71h-94v80h132v71h-124v80h124v62h100v-62h176v62h100v-62h125v-80h-125v-71h132v-80h-93l97 -71zM400 120v-276l-50 -40h-124v80h74v236h100zM525 714h-350v-43h350v43z
M525 547v43h-350v-43h350zM262 237h176v71h-176v-71zM61 -196l57 124h95l-58 -124h-94zM545 -196l-58 124h95l57 -124h-94zM173 42l40 -91h-95l-39 91h94zM621 42l-39 -91h-95l40 91h94z" />
    <glyph glyph-name="cid1043" unicode="&#x8c79;" 
d="M441 795v-75h179l50 -40v-834l-50 -40h-146v80h96v755h-179l-50 39v115h100zM312 488v-71l-41 -33v-538l-50 -40h-173v80h123v97h-143v80h143v116h-143v79h143v119h-143v80h184v31h100zM420 35l-56 460h95l55 -460h-94zM310 797v-81l-50 -40h-232v80h182v41h100zM38 508
v142h100v-142h-100zM184 508v142h100v-142h-100z" />
    <glyph glyph-name="cid1044" unicode="&#x9c8d;" 
d="M74 572h94v84h-79l-54 40v98h100v-58h80l54 -40v-124l43 -36v-553l-43 -35h-195l-43 35v553zM674 -197h-288l-44 40v728l44 40h124l43 -40v-413l-43 -40h-79v-235h243v-80zM425 795v-48h199l44 -40v-670l-44 -39h-134v78h88v592h-206l-44 39v88h97zM317 -190h-290v79h290
v-79zM431 531v-333h35v333h-35zM226 19v201h-22v-201h22zM226 500h-22v-200h22v200zM118 19h21v201h-21v-201zM118 300h21v200h-21v-200z" />
    <glyph glyph-name="cid1045" unicode="&#x7206;" 
d="M335 786h280l50 -39v-247l-50 -40h-280l-50 40v247zM439 443v-62h71v62h100v-62h59v-80h-59v-71h63v-80h-51l51 -85l-95 -14l-60 99h-87l-59 -99l-96 14l51 85h-51v80h63v71h-59v80h59v62h100zM30 -186l73 408v575h90v-581l72 -402l-79 -9l-38 216l-39 -216zM525 92v-249
l-50 -40h-78v80h28v209h100zM84 681l8 -420h-54l-9 420h55zM266 681l-8 -420h-55l9 420h54zM388 -84l-16 -111h-95l16 111h95zM651 -84l16 -111h-94l-16 111h94zM655 32l-5 -94h-95l6 94h94zM383 32l6 -94h-94l-6 94h94zM565 707h-181v-43h181v43zM565 540v43h-181v-43h181z
M439 230h71v71h-71v-71z" />
    <glyph glyph-name="cid1046" unicode="&#x676f;" 
d="M536 548v-745h-100v625l-47 -378l-90 11l79 629h-83v80h380v-80h-207l-17 -142h85zM296 581h-90v-777h-92v777h-88v80h88v139h92v-139h90v-80zM284 526l9 -722h-60l-10 722h61zM582 34l-26 486l88 8l28 -485zM99 526l-11 -722h-60l11 722h60z" />
    <glyph glyph-name="cid1047" unicode="&#x7891;" 
d="M312 74l64 181h-29l-49 40v420l49 40h67v42h108v-42h97l49 -40v-420l-49 -40h-144l-62 -181h-101zM26 306l57 384h-53v80h255v-80h-111l-33 -223h91l45 -37v-582l-45 -37h-125l-45 37v458h-36zM473 -193v159h-170v80h170v147h100v-147h96v-80h-96v-159h-100zM188 393h-37
v-508h37v508zM570 674h-43v-134h43v134zM570 336v134h-43v-134h43zM394 540h42v134h-42v-134zM394 336h42v134h-42v-134z" />
    <glyph glyph-name="cid1048" unicode="&#x60b2;" 
d="M397 218v577h100v-60h173v-80h-173v-109h163v-80h-163v-109h173v-80h-173v-59h-100zM202 218v59h-172v80h172v109h-162v80h162v109h-172v80h172v60h100v-577h-100zM516 -193h-252l-50 40v324h100v-284h202v-80zM494 171h112l50 -40v-323h-100v283h-62v80zM186 91h-42
v-283h-100v323l50 40h92v-80zM356 -56v227h100v-227h-100z" />
    <glyph glyph-name="cid1049" unicode="&#x5351;" 
d="M107 65l90 171h-82l-45 40v435l45 40h167v45h100v-45h218l45 -40v-435l-45 -40h-304l-90 -171h-99zM372 -195v150h-343v80h343v172h100v-172h199v-80h-199v-150h-100zM160 533h148v137h-148v-137zM160 317h148v137h-148v-137zM555 317v137h-147v-137h147zM555 670h-147
v-137h147v137z" />
    <glyph glyph-name="cid1050" unicode="&#x5317;" 
d="M485 800v-379h82v285h100v-320l-50 -45h-132v-448h186v-80h-233l-52 40v947h99zM300 797v-988h-100v211h-169v79h169v421h-169v80h169v197h100z" />
    <glyph glyph-name="cid1051" unicode="&#x8f88;" 
d="M247 327l-17 -43h438v-80h-470l-40 -101h150v75h100v-75h253v-80h-253v-64h260v-80h-260v-79h-100v79h-272v80h272v64h-218l-48 52l51 129h-57v80h89l27 67zM397 351v445h100v-37h173v-80h-173v-66h173v-80h-173v-66h173v-79h-173v-37h-100zM202 351v37h-172v79h172v66
h-172v80h172v66h-172v80h172v37h100v-445h-100z" />
    <glyph glyph-name="cid1052" unicode="&#x80cc;" 
d="M61 -196v514l50 40h478l50 -40v-473l-50 -40h-168v80h118v76h-378v-157h-100zM667 767v-131l-50 -40h-135v-122h189v-80h-239l-50 40v361h100v-119h85v91h100zM198 394v70h-172v80h172v101h-172v80h172v70h100v-401h-100zM161 41h378v79h-378v-79zM539 278h-378v-78h378
v78z" />
    <glyph glyph-name="cid1053" unicode="&#x8d1d;" 
d="M55 181v565l50 40h490l50 -40v-565h-100v525h-390v-525h-100zM34 -154l266 381v421h100v-421l266 -381l-92 -40l-224 321l-224 -321z" />
    <glyph glyph-name="cid1054" unicode="&#x94a1;" 
d="M292 154v586l50 40h273l50 -40v-586h-100v547h-173v-547h-100zM283 -168l146 311v492h99v-492l146 -311l-93 -28l-103 219l-102 -219zM273 470h-75v-209h75v-80h-75v-298h69v-79h-119l-50 39v338h-68v80h68v209h-68v80h243v-80zM273 639h-194l-50 39v120h99v-80h145v-79z
" />
    <glyph glyph-name="cid1055" unicode="&#x500d;" 
d="M293 248h306l50 -40v-357l-50 -40h-306l-50 40v357zM74 -197v901h-47v80h97l49 -40v-941h-99zM549 168h-206v-277h206v277zM664 652h-435v80h168v65h100v-65h167v-80zM672 300h-451v80h451v-80zM495 413l47 206h102l-47 -206h-102zM295 413l-46 206h100l46 -206h-100z
" />
    <glyph glyph-name="cid1056" unicode="&#x72c8;" 
d="M275 158v578l50 40h288l50 -40v-578h-100v539h-188v-539h-100zM251 456h-42v-613l-50 -40h-130v80h80v233h-80v79h80v261h-80v80h80v168h-80v80h130l50 -40v-208h42v-80zM258 -158l161 329v470h99v-475l157 -324l-93 -32l-115 237l-116 -237z" />
    <glyph glyph-name="cid1057" unicode="&#x5907;" 
d="M113 282h474l50 -40v-397l-50 -40h-474l-50 40v397zM670 308h-138l-12 7l-176 93l-162 -93l-13 -7h-139v80h107l118 68l-177 94l56 66l207 -111l193 111v41h-420l-49 40v100h99v-60h420l50 -40v-122l-21 -12l-183 -105l132 -70h108v-80zM163 -115h137v119h-137v-119z
M537 -115v119h-137v-119h137zM537 202h-137v-118h137v118zM163 84h137v118h-137v-118z" />
    <glyph glyph-name="cid1058" unicode="&#x60eb;" 
d="M113 466h474l50 -35v-243l-50 -35h-474l-50 35v243zM670 487h-131l-9 3l-186 55l-173 -55l-9 -3h-132v80h113l62 20l-116 35l34 74l218 -65l193 62v8h-420l-49 39v58h99v-18h420l50 -40v-101l-31 -10l-123 -40l76 -22h114v-80zM516 -192h-252l-50 40v278h100v-238h202
v-80zM494 126h112l50 -40v-278h-100v238h-62v80zM186 46h-42v-238h-100v278l50 40h92v-80zM356 -75v201h100v-201h-100zM163 344h137v52h-137v-52zM537 396h-137v-52h137v52zM537 223v51h-137v-51h137zM163 223h137v51h-137v-51z" />
    <glyph glyph-name="cid1059" unicode="&#x7119;" 
d="M379 254h227l50 -40v-366l-50 -40h-227l-50 40v366zM30 -186l84 432v550h95v-560l82 -422l-87 -9l-42 231l-46 -231zM556 174h-127v-286h127v286zM666 658h-348v79h124v62h100v-62h124v-79zM671 297h-357v80h357v-80zM293 683l-9 -440h-61l10 440h60zM90 683l9 -440h-60
l-10 440h61zM363 409l-30 216h95l29 -216h-94zM528 409l29 216h94l-28 -216h-95z" />
    <glyph glyph-name="cid1060" unicode="&#x88ab;" 
d="M584 466v182h-47v-222h74l49 -38v-292l-69 -126l49 -90h30v-73h-94l-36 68l-38 -70h-93v76h32l47 90l-66 125v224h95v-211l22 -42l23 42v238h-177v-501l-50 -40h-81v80h31v521l-40 -75l31 -116l-72 -15l-11 48v-442h-100v380l-67 13l110 368h-107v79h171l48 -49l-73 -242
h4l49 95l57 -29v266l50 40h102v69h100v-69h87l50 -40v-222h-90zM91 667v130h100v-130h-100zM385 426h52v222h-52v-222z" />
    <glyph glyph-name="cid1061" unicode="&#x5954;" 
d="M238 249l-10 -111h239v113h100v-113h105v-80h-105v-255h-100v255h-245l-18 -218l-49 -38h-107v80h60l14 176h-94v80h100l10 116zM409 748l-38 -41h301v-80h-147l142 -153l-80 -47l-187 200h-103l-185 -200l-80 47l141 153h-145v80h219l82 88zM400 506v-108h213v-80h-213
v-117h-100v117h-213v80h213v108h100z" />
    <glyph glyph-name="cid1062" unicode="&#x82ef;" 
d="M569 -178l-98 580h-71v-416h108v-80h-108v-100h-100v100h-108v80h108v416h-71l-98 -580l-99 10l98 570h-102v79h272v112h100v-112h272v-79h-102l98 -570zM462 559v85h-224v-85h-99v85h-111v79h111v73h99v-73h224v73h99v-73h111v-79h-111v-85h-99z" />
    <glyph glyph-name="cid1063" unicode="&#x672c;" 
d="M301 -198v105h-92v80h92v560h-272v80h272v169h99v-169h272v-80h-272v-560h92v-80h-92v-105h-99zM29 -83h50l44 587l100 -4l-47 -625l-50 -38h-97v80zM671 -163h-97l-50 38l-47 625l100 4l44 -587h50v-80z" />
    <glyph glyph-name="cid1064" unicode="&#x7b28;" 
d="M572 -182l-108 546h-61v-381h101v-80h-101v-98h-99v98h-101v80h101v381h-72l-104 -546h-100l105 546h-85v80h256v93h99v-93h259v-80h-99l109 -546h-100zM150 501v125h-70l-50 40v130h100v-90h208v-80h-88v-125h-100zM480 501v125h-70l-50 40v130h100v-90h208v-80h-88
v-125h-100z" />
    <glyph glyph-name="cid1065" unicode="&#x5d29;" 
d="M360 -110h19v624l50 40h182l50 -40v-664l-50 -40h-83v80h33v146h-83v-186l-49 -40h-69v80zM33 -110h22v624l50 40h180l50 -40v-664l-50 -40h-83v80h33v146h-80v-186l-50 -40h-72v80zM405 796v-121h154v111h100v-151l-50 -40h-507l-50 40v151h99v-111h154v121h100z
M478 115h83v152h-83v-152zM155 115h80v152h-80v-152zM561 475h-83v-129h83v129zM235 475h-80v-129h80v129z" />
    <glyph glyph-name="cid1066" unicode="&#x7ef7;" 
d="M469 -194v947l42 36h120l42 -36v-912l-42 -35h-63v71h22v261h-37v-332h-84zM245 -194v947l41 36h121l42 -36v-912l-42 -35h-63v71h22v261h-38v-332h-83zM229 -73h-201v80h70l23 244h-95v80h7l45 458h75l-44 -458h19l28 290h79l-58 -614h52v-80zM229 -195h-201v80h201v-80
zM328 217h38v221h-38v-221zM553 217h37v221h-37v-221zM366 717h-38v-200h38v200zM590 717h-37v-200h37v200z" />
    <glyph glyph-name="cid1067" unicode="&#x752d;" 
d="M308 -195v153h-144v-114l-50 -40h-80v80h30v480l50 40h488l49 -40v-520l-49 -40h-125v80h75v74h-144v-153h-100zM308 436v180l-193 -181l-80 54l224 210h-221v79h634v-79h-276l-56 -52h68v-211h-100zM514 660l158 -186l-83 -44l-157 186zM408 38h144v106h-144v-106z
M164 38h144v106h-144v-106zM552 324h-144v-100h144v100zM164 224h144v100h-144v-100z" />
    <glyph glyph-name="cid1068" unicode="&#x6cf5;" 
d="M672 712h-335l-121 -120h362l50 -40v-220l-50 -40h-175v-448l-50 -40h-132v80h82v408h-146l-50 40v152l-1 -1h-77v80h30l150 149h-181v80h644v-80zM40 235h167l48 -50l-131 -381l-96 21l114 331h-102v79zM670 214l-108 -69l109 -319l-97 -21l-117 345l17 41l135 85z
M528 513h-322v-141h322v141z" />
    <glyph glyph-name="cid1069" unicode="&#x8e66;" 
d="M242 128h-33v-249h33v-75h-181l-31 37v504h72v-466h22v521h-58l-38 36v315l38 36h140l37 -36v-315l-34 -33v-195h33v-80zM475 -197v636l42 36h115l41 -36v-599l-41 -37h-60v73h19v137h-34v-210h-82zM262 -197v636l41 36h115l41 -36v-599l-41 -37h-60v73h19v137h-34v-210
h-81zM516 797v-211h60v173h96v-212l-48 -40h-312l-48 40v212h97v-173h59v211h96zM161 707h-50v-227h50v227zM343 93h34v122h-34v-122zM557 93h34v122h-34v-122zM377 403h-34v-108h34v108zM591 403h-34v-108h34v108z" />
    <glyph glyph-name="cid1070" unicode="&#x8ff8;" 
d="M328 798l28 -113h128l28 113h99l-28 -113h66v-80h-70v-260h88v-80h-88v-339h-100v339h-124l-17 -302l-50 -38h-89v79h42l15 261h-82v80h86l15 260h-84v80h66l-28 113h99zM140 582v-695h534v-80h-584l-50 40v735h100zM359 345h120v260h-105zM40 646v152h100v-152h-100z
" />
    <glyph glyph-name="cid1071" unicode="&#x903c;" 
d="M233 373h377l50 -40v-362l-50 -40h-377l-49 40v362zM145 568v-685h529v-80h-579l-50 40v725h100zM254 655h335l50 -40v-167l-50 -40h-335l-50 40v167zM672 690h-500v80h500v-80zM539 575h-235v-87h235v87zM45 652v147h100v-147h-100zM283 192h89v101h-89v-101zM283 11h89
v101h-89v-101zM560 11v101h-88v-101h88zM560 293h-88v-101h88v101z" />
    <glyph glyph-name="cid1072" unicode="&#x2fd0;" 
d="M570 398h-438l-50 40v283l50 40h152v36h100v-36h186l50 -40v-283zM115 374h471l50 -40v-240l-50 -40h-471l-50 40v240zM470 -197v145h-230l-16 -109l-50 -36h-100v80h56l9 65h-111v80h643v-80h-101v-145h-100zM182 567h338v26h-338v-26zM520 681h-338v-25h338v25z
M182 478h338v25h-338v-25zM165 250h136v44h-136v-44zM165 134h136v44h-136v-44zM536 134v44h-135v-44h135zM536 294h-135v-44h135v44z" />
    <glyph glyph-name="cid1072" unicode="&#x9f3b;" 
d="M570 398h-438l-50 40v283l50 40h152v36h100v-36h186l50 -40v-283zM115 374h471l50 -40v-240l-50 -40h-471l-50 40v240zM470 -197v145h-230l-16 -109l-50 -36h-100v80h56l9 65h-111v80h643v-80h-101v-145h-100zM182 567h338v26h-338v-26zM520 681h-338v-25h338v25z
M182 478h338v25h-338v-25zM165 250h136v44h-136v-44zM165 134h136v44h-136v-44zM536 134v44h-135v-44h135zM536 294h-135v-44h135v44z" />
    <glyph glyph-name="cid1073" unicode="&#x2f50;" 
d="M662 744v-347l-50 -39h-159v-474h213v-80h-263l-50 40v952h100v-359h109v307h100zM315 417h-178v-533h178v-80h-228l-50 40v952h100v-299h178v-80z" />
    <glyph glyph-name="cid1073" unicode="&#x6bd4;" 
d="M662 744v-347l-50 -39h-159v-474h213v-80h-263l-50 40v952h100v-359h109v307h100zM315 417h-178v-533h178v-80h-228l-50 40v952h100v-299h178v-80z" />
    <glyph glyph-name="cid1074" unicode="&#x9119;" 
d="M86 280h83v79h-140v80h140v74h-72l-50 40v199l50 40h243l50 -40v-199l-50 -40h-71v-74h139v-80h-139v-79h83l49 -40v-390l-49 -40h-266l-50 40v390zM540 -46h34v337h-34v80h34v342h-50v-910h-100v950l50 40h150l50 -40v-401l-19 -20l19 -21v-397l-50 -40h-84v80zM302 200
h-166v-310h166v310zM179 168h79l28 -22v-204l-28 -22h-79l-27 22v204zM290 712h-143v-119h143v119zM231 124h-24v-160h24v160z" />
    <glyph glyph-name="cid1075" unicode="&#x7b14;" 
d="M655 183h-283v-108h298v-79h-298v-111h299v-80h-348l-50 40v151h-244v79h244v108h-235v80h235v107h-214v80h468v46h100v-86l-50 -40h-205v-107h283v-80zM153 495v122h-70l-50 40v136h100v-97h208v-79h-88v-122h-100zM483 516v101h-70l-50 40v136h100v-97h208v-79h-88
v-101h-100z" />
    <glyph glyph-name="cid1076" unicode="&#x5f7c;" 
d="M569 454v201h-72v-238h111l47 -38v-286l-89 -117l74 -98h33v-73h-95l-70 95l-73 -97h-93v76h35l75 97l-86 117v216h100v-201l44 -58l45 58v230h-233v-495l-50 -40h-73v80h23v812l50 40h126v62h99v-62h122l50 -40v-241h-100zM79 -196v646h-52v80h102l50 -40v-686h-100z
M179 788v-165l-50 -40h-102v79h52v126h100zM322 417h76v238h-76v-238z" />
    <glyph glyph-name="cid1077" unicode="&#x78a7;" 
d="M671 185h-393l-60 -71h377l49 -40v-225l-49 -40h-436l-50 40v138l-4 -5h-77v80h30l101 123h-120v79h632v-79zM384 752h45v44h99v-44h88l50 -40v-373l-50 -40h-232l-50 40v373zM297 494h-78v-108h86v-79h-272v79h86v108h-79v80h79v107h-83v80h265v-80h-82v-107h78v-80z
M545 34h-337v-145h337v145zM566 673h-132v-107h132v107zM566 379v107h-132v-107h132z" />
    <glyph glyph-name="cid1078" unicode="&#x84d6;" 
d="M93 544h188v50h100v-50h228l50 -40v-271l-50 -40h-516l-50 40v271zM452 574v71h-202v-71h-100v71h-121v80h121v71h100v-71h202v71h99v-71h121v-80h-121v-71h-99zM658 150v-115l-50 -40h-129v-109h191v-80h-241l-50 40v325h100v-96h79v75h100zM342 8h-186v-122h186v-80
h-236l-50 40v325h100v-83h186v-80zM161 331l93 40l-82 35l38 59h-68v-192h57zM559 465h-68l39 -59l-83 -36l93 -39l-38 -58h57v192zM217 273h267l-133 57zM225 465l125 -54l126 54h-251z" />
    <glyph glyph-name="cid1079" unicode="&#x853d;" 
d="M265 542v-187h88l45 -36v-479l-45 -35h-62v71h17v407h-58v-473h-70v473h-58v-483h-90v519l45 36h88v187h100zM504 552v-47h168v-80h-17v-331l-4 -7l-63 -119l51 -90h34v-75h-95l-13 22l-27 48l-24 -47l-12 -23h-99v75h36l46 89l-67 119l-4 8v301h95v-286l26 -47l25 47
v316h-106l-50 40v87h100zM457 574v71h-212v-71h-100v71h-116v80h116v71h100v-71h212v71h99v-71h116v-80h-116v-71h-99zM132 -117v352h40v-352h-40zM259 -117v352h40v-352h-40zM392 526l-20 -152h-90l20 152h90zM128 526l20 -152h-89l-20 152h89z" />
    <glyph glyph-name="cid1080" unicode="&#x6bd5;" 
d="M661 758v-169l-50 -40h-160v-179h214v-80h-264l-49 40v464h99v-165h110v129h100zM299 -196v238h-272v80h272v127h100v-127h272v-80h-272v-238h-100zM314 579h-179v-209h179v-80h-229l-50 40v464h100v-136h179v-79z" />
    <glyph glyph-name="cid1081" unicode="&#x6bd9;" 
d="M658 225v-190l-50 -40h-125v-105h189v-80h-239l-50 40v424h-221v-84h129l50 -40v-300l-50 -40h-239v80h189v220h-129l-50 40v124h-34v80h644v-80h-189v-199h75v150h100zM668 772v-130l-50 -40h-160v-121h214v-79h-264l-50 39v359h100v-118h110v90h100zM321 624h-179v-143
h179v-79h-229l-50 39v359h100v-96h179v-80zM92 -76l-22 148h99l22 -148h-99z" />
    <glyph glyph-name="cid1082" unicode="&#x6bd6;" 
d="M668 122l-370 -194v-45h242v-80h-292l-49 40v33l-113 -60l-54 67l167 88v277h99v-226l316 166zM662 760v-172l-50 -40h-159v-185h213v-80h-263l-50 40v474h100v-169h109v132h100zM315 578h-178v-215h178v-80h-228l-50 40v474h100v-139h178v-80zM152 224l-32 -270h-89
l32 270h89zM646 45l25 -237h-89l-25 237h89zM434 256l26 -129h-90l-26 129h90z" />
    <glyph glyph-name="cid1083" unicode="&#x5e01;" 
d="M35 747h528v49h99v-89l-49 -40h-213v-148h200l50 -40v-559l-50 -40h-114v80h64v479h-150v-631h-100v631h-150v-551h-100v591l50 40h200v148h-265v80z" />
    <glyph glyph-name="cid1084" unicode="&#x5e87;" 
d="M441 798v-55h230v-80h-508v-820l-50 -40h-84v80h34v820l50 40h228v55h100zM665 589v-299l-47 -38h-92v-371h141v-79h-191l-50 39v779h100v-292h48v261h91zM406 271h-109v-390h109v-79h-159l-50 39v779h100v-269h109v-80z" />
    <glyph glyph-name="cid1085" unicode="&#x75f9;" 
d="M293 612h304l47 -40v-324l-47 -40h-304l-47 40v324zM27 190h70v270h-70v80h70v150l50 40h206v65h99v-65h217v-80h-472v-807l-50 -40h-120v80h70v227h-70v80zM662 88h-56v-285h-100v285h-123l-16 -249l-49 -36h-90v80h45l11 205h-59v79h437v-79zM548 532h-56v-82h56v82z
M342 450h56v82h-56v-82zM548 288v82h-56v-82h56zM342 288h56v82h-56v-82z" />
    <glyph glyph-name="cid1086" unicode="&#x95ed;" 
d="M177 18h32l36 407h-73v80h222v73h100v-73h43v-80h-43v-472l-50 -39h-99v79h49v432h-49l-39 -449l-50 -38h-79v80zM408 -115h149v769h-328v80h377l50 -40v-849l-50 -40h-198v80zM147 611v-807h-100v807h100zM147 797v-69h41v-80h-91l-50 40v109h100z" />
    <glyph glyph-name="cid1087" unicode="&#x655d;" 
d="M266 793v-234h99l45 -35v-686l-45 -36h-74v72h30v614h-60v-684h-85v684h-59v-684h-90v720l45 35h99v234h95zM522 792v-91h148v-80h-19v-441l-59 -174l45 -127h35v-75h-99l-26 69l-23 -69h-101v75h34l41 127l-64 174v392h91v-375l18 -52l17 52v424h-88l-49 40v131h99z
M167 408v-484h-40v484h40zM311 408v-484h-40v484h40zM295 582l16 198h85l-16 -198h-85zM58 582l-16 198h84l16 -198h-84z" />
    <glyph glyph-name="cid1088" unicode="&#x5f0a;" 
d="M179 218v344h-62v-341h-85v375l42 34h105v167h100v-167h105l42 -34v-347l-42 -34h-76v68h33v279h-62v-344h-100zM243 191v-9l-4 -59h223v68h100v-68h110v-80h-110v-239h-100v239h-229l-15 -202l-49 -37h-117v79h69l11 160h-104v80h110l5 63v5h100zM536 796v-45h136v-80
h-15v-240l-4 -8l-52 -84l40 -60h32v-68h-83l-12 18l-23 35l-21 -34l-12 -19h-85v68h33l36 59l-55 84l-5 8v218h85v-201l22 -34l20 33v225h-87l-50 40v85h100zM307 655l16 127h85l-16 -127h-85zM63 655l-16 127h84l17 -127h-85zM326 523v-210h-35v210h35zM166 523v-210h-34
v210h34z" />
    <glyph glyph-name="cid1089" unicode="&#x5fc5;" 
d="M645 580l-335 -487v-210h272v-79h-322l-50 40v104l-99 -144l-92 40l191 278v640h100v-495l243 354zM166 608l-20 -496h-100l20 496h100zM639 402l25 -496h-99l-25 496h99zM441 796l20 -269h-99l-20 269h99z" />
    <glyph glyph-name="cid1090" unicode="&#x8f9f;" 
d="M33 -189v932l50 40h221l50 -40v-346l-50 -40h-171v-546h-100zM153 -154v440l43 34h118l43 -34v-440l-43 -34h-118zM666 8h-91v-197h-99v197h-91v80h91v175h-98v80h295v-80h-98v-175h91v-80zM133 703v-266h121v266h-121zM665 636h-279v80h90v81h99v-81h90v-80zM414 374
l-18 233h100l18 -233h-100zM537 374l18 233h100l-18 -233h-100zM238 252v-372h34v372h-34z" />
    <glyph glyph-name="cid1091" unicode="&#x58c1;" 
d="M672 -198h-644v80h272v121h-248v79h248v57h100v-57h248v-79h-248v-121h272v-80zM38 161v568l49 40h217l50 -40v-192l-50 -40h-177v-336h-89zM665 243h-91v-95h-100v95h-91v72h91v103h-97v72h35l-17 125h99l17 -125h25l18 125h99l-18 -125h36v-72h-97v-103h91v-72z
M145 198v205l45 36h124l45 -36v-205l-45 -36h-124zM663 653h-278v72h89v73h100v-73h89v-72zM137 689v-112h117v112h-117zM235 367v-133h34v133h-34z" />
    <glyph glyph-name="cid1092" unicode="&#x81c2;" 
d="M60 -193v436l50 40h478l50 -40v-399l-50 -40h-148v80h98v51h-378v-128h-100zM37 319v427l50 40h217l50 -40v-144l-50 -40h-177v-243h-90zM665 372h-91v-63h-100v63h-91v71h91v60h-97v72h34l-16 85h99l16 -85h28l16 85h99l-16 -85h34v-72h-97v-60h91v-71zM145 347v154
l45 36h124l45 -36v-154l-45 -36h-124zM663 680h-278v72h89v46h100v-46h89v-72zM160 15h378v55h-378v-55zM538 203h-378v-53h378v53zM137 706v-64h117v64h-117zM235 465v-82h34v82h-34z" />
    <glyph glyph-name="cid1093" unicode="&#x907f;" 
d="M177 -77v826l50 40h153l50 -40v-305l-50 -40h-123v-481h-80zM139 567v-685h534v-80h-584l-50 40v725h100zM663 98h-56v-180h-100v180h-57v71h57v151h-61v72h27l-16 218h80l15 -218h9l16 218h80l-16 -218h27v-72h-61v-151h56v-71zM272 -52v386l35 28h88l35 -28v-386
l-35 -28h-88zM662 640h-210v72h55v86h100v-86h55v-72zM39 652v146h100v-146h-100zM277 709v-225h54v225h-54zM342 306v-330h19v330h-19z" />
    <glyph glyph-name="cid1094" unicode="&#x965b;" 
d="M141 -48h28v338h-28v80h28v339h-42v-907h-98v947l49 40h140l49 -40v-399l-18 -20l18 -20v-398l-49 -40h-77v80zM674 -196h-390v79h145v189h-137v80h137v93h100v-93h137v-80h-137v-189h145v-79zM588 797v-135h84v-80h-84v-219h84v-80h-131l-48 40v474h95zM395 797v-135h79
v-80h-79v-219h79v-80h-127l-47 40v474h95z" />
    <glyph glyph-name="cid1095" unicode="&#x97ad;" 
d="M446 130l19 -28l13 56h-50l-38 33v419l38 34h60v67h-100v70h286v-70h-102v-67h61l37 -34v-419l-37 -33h-69l-34 -149l93 -133h47v-71h-105l-61 89l-20 -89h-100v67h29l26 116l-59 86zM272 658h-13v-123l-39 -35h-25v-57h45l34 -36v-280l-34 -35h-45v-70h77v-80h-77v-140
h-87v140h-77v80h77v70h-45l-35 35v280l35 36h45v57h-26l-39 35v123h-14v80h14v58h78v-58h60v58h78v-58h13v-80zM292 -194v903h-13v75h55l37 -32v-946h-79zM181 571v87h-60v-87h60zM205 371h-18v-208h18v208zM98 163h17v208h-17v-208zM596 235v127h-24v-127h24zM596 566h-24
v-124h24v124zM465 235h23v127h-23v-127zM465 442h23v124h-23v-124z" />
    <glyph glyph-name="cid1096" unicode="&#x8fb9;" 
d="M182 637h114l16 161l99 -6l-15 -155h202l50 -40v-636l-50 -40h-172v80h122v556h-160l-59 -599l-50 -37h-97v80h51l55 556h-106v80zM140 579v-695h524v-79h-574l-50 39v735h100zM40 644v152h100v-152h-100z" />
    <glyph glyph-name="cid1097" unicode="&#x7f16;" 
d="M267 -197v889l45 36h112v69h100v-69h103l45 -36v-205l-45 -36h-270v-648h-90zM532 -197v281h-15v-281h-50v281h-16v-281h-74v578l37 38h221l38 -38v-578h-75v281h-16v-281h-50zM250 -73h-222v80h69l26 244h-97v80h10l47 459h80l-47 -459h15l31 291h90l-66 -615h64v-80z
M357 656v-133h225v133h-225zM250 -195h-222v80h222v-80zM598 344h-16v-191h16v191zM451 153h16v191h-16v-191zM517 153h15v191h-15v-191z" />
    <glyph glyph-name="cid1098" unicode="&#x8d2c;" 
d="M536 612v-131h95l46 -55l-242 -540h234v-80h-304l-46 55l238 540h-227v80h106v131h100zM198 235v470h-66v-470h-100v510l50 40h166l49 -40v-510h-99zM24 -178l90 394h98l89 -394l-98 -15l-40 191l-41 -191zM667 798v-110l-50 -40h-291v80h241v70h100z" />
    <glyph glyph-name="cid1099" unicode="&#x6241;" 
d="M447 -193v256h-35v-256h-80v256h-35v-256h-99v549l49 39h364l50 -39v-549h-100v256h-34v-256h-80zM605 443h-443v-597l-50 -40h-84v80h34v805l50 40h196v65h100v-65h197l50 -40v-208zM162 522h394v129h-394v-129zM412 142h35v174h-35v-174zM297 142h35v174h-35v-174z
M561 316h-34v-174h34v174z" />
    <glyph glyph-name="cid1100" unicode="&#x4fbf;" 
d="M218 -114h50l45 105l-107 97l82 49l64 -57l32 75h-102l-47 38v392l47 38h119v74h-169v80h437v-80h-169v-74h119l47 -38v-392l-47 -38h-131l-59 -143l143 -126h100v-79h-158l-124 113l-46 -113h-126v79zM74 -197v901h-47v80h97l49 -40v-941h-99zM334 231h67v118h-67v-118z
M334 429h67v118h-67v-118zM566 231v118h-66v-118h66zM566 547h-66v-118h66v118z" />
    <glyph glyph-name="cid1101" unicode="&#x53d8;" 
d="M665 -198h-122l-12 7l-183 92l-180 -92l-12 -7h-122v80h93l129 66l-145 73l-23 12v128h100v-85l161 -81l159 81v113h-424v80h474l50 -40v-196l-23 -12l-144 -73l131 -66h93v-80zM405 304v343h-110v-343h-100v343h-167v80h272v69h100v-69h272v-80h-167v-343h-100zM154 592
l-29 -279h-97l30 279h96zM639 592l29 -279h-96l-29 279h96z" />
    <glyph glyph-name="cid1102" unicode="&#x535e;" 
d="M672 549h-299v-743h-100v743h-245v80h644v-80zM559 18l-98 411h95l98 -411h-95zM371 794l40 -135h-100l-40 135h100z" />
    <glyph glyph-name="cid1103" unicode="&#x8fa8;" 
d="M280 -123h75v922h90v-958l-45 -36h-120v72zM236 39h-52v-193l-50 -40h-98v80h48v153h-52v80h52v167h-56v80h212v-80h-56v-167h52v-80zM667 39h-52v-238h-100v238h-52v80h52v167h-56v80h212v-80h-56v-167h52v-80zM253 16v687h79v-687h-79zM237 657h-206v80h53v62h100v-62
h53v-80zM668 657h-206v80h53v62h100v-62h53v-80zM143 403l11 225h79l-10 -225h-80zM477 403l-11 225h80l10 -225h-79zM575 403l10 225h80l-11 -225h-79zM45 403l-10 225h79l11 -225h-80z" />
    <glyph glyph-name="cid1104" unicode="&#x8fa9;" 
d="M455 -195h-95l-50 40v669h-66v80h116l50 -40v-669h45v-80zM231 39h-50v-193l-50 -40h-96v79h46v154h-50v80h50v167h-54v80h208v-80h-54v-167h50v-80zM669 39h-56v-238h-100v238h-55v80h55v167h-59v80h219v-80h-60v-167h56v-80zM670 657h-213v80h56v61h100v-61h57v-80z
M232 657h-202v80h51v61h100v-61h51v-80zM416 623h-79l-50 40v133h100v-93h29v-80zM139 403l10 225h80l-10 -225h-80zM473 403l-11 225h80l11 -225h-80zM574 403l11 225h80l-11 -225h-80zM43 403l-10 225h79l11 -225h-80z" />
    <glyph glyph-name="cid1105" unicode="&#x8fab;" 
d="M454 -45h-203v79h56l33 261h-94v80h10l53 418h80l-54 -418h15l32 253h79l-74 -594h67v-79zM231 39h-50v-193l-50 -40h-96v79h46v154h-50v80h50v167h-54v80h208v-80h-54v-167h50v-80zM669 39h-50v-238h-100v238h-50v80h50v167h-54v80h208v-80h-54v-167h50v-80zM232 657
h-202v80h51v61h100v-61h51v-80zM670 657h-202v80h51v61h100v-61h51v-80zM481 403l-10 225h80l10 -225h-80zM139 403l10 225h80l-10 -225h-80zM577 403l11 225h79l-10 -225h-80zM43 403l-10 225h79l11 -225h-80zM454 -185h-203v79h203v-79z" />
    <glyph glyph-name="cid1106" unicode="&#x904d;" 
d="M611 456h-357v-538h-90v782l50 40h162v55h100v-55h135l50 -40v-204zM279 -82v461l45 36h297l45 -36v-461h-90v183h-22v-183h-70v183h-23v-183h-70v183h-22v-183h-90zM134 567v-685h539v-80h-589l-50 40v725h100zM264 536h298v124h-298v-124zM34 652v146h100v-146h-100z
M461 181h23v162h-23v-162zM576 343h-22v-162h22v162zM369 181h22v162h-22v-162z" />
    <glyph glyph-name="cid1107" unicode="&#x6807;" 
d="M302 580h-91v-776h-93v776h-89v80h89v139h93v-139h91v-80zM673 409h-125v-564l-50 -40h-76v80h26v524h-128v79h353v-79zM290 525l9 -721h-61l-10 721h62zM103 525l-11 -721h-61l11 721h61zM653 324l16 -517h-79l-17 517h80zM420 324l-17 -517h-79l16 517h80zM661 695
h-329v79h329v-79z" />
    <glyph glyph-name="cid1108" unicode="&#x5f6a;" 
d="M453 687h-147v-46h109l50 -40v-94h-100v54h-209v-88h64v65h100v-65h129v-79h-129v-68h129v-79h-179l-50 40v107h-64v-551l-49 -40h-75v80h25v718l50 40h99v153h100v-28h147v-79zM185 -192v354l50 40h151l50 -40v-274h235v-80h-285l-50 40v274h-51v-314h-100zM486 13h81
v133h100v-173l-50 -40h-131v80zM486 654h81v133h100v-173l-50 -40h-131v80zM485 334h81v133h99v-173l-50 -40h-130v80z" />
    <glyph glyph-name="cid1109" unicode="&#x8198;" 
d="M146 -116h28v223h-47v-304h-98v956l50 40h141l50 -40v-915l-50 -40h-74v80zM340 654h53v58h-98v79h377v-79h-99v-58h54l47 -40v-214l-47 -40h-287l-46 40v214zM672 98h-136v-252l-47 -40h-86v80h40v212h-148v80h377v-80zM655 237h-343v79h343v-79zM408 56l-32 -249h-83
l32 249h83zM638 56l32 -249h-83l-32 249h83zM127 187h47v239h-47v-239zM174 719h-47v-213h47v213zM473 440h23v134h-23v-134zM387 440h22v134h-22v-134zM581 574h-20v-134h20v134zM472 654h23v58h-23v-58z" />
    <glyph glyph-name="cid1110" unicode="&#x8868;" 
d="M401 797v-70h264v-80h-264v-97h244v-80h-244v-97h271v-80h-324l-77 -132h49v-276h132v-80h-182l-50 40v228l-103 -176l-90 34l210 362h-208v80h272v97h-244v80h244v97h-264v80h264v70h100zM482 252l50 -111h135v-80h-98l102 -225l-94 -27l-188 416z" />
    <glyph glyph-name="cid1111" unicode="&#x9cd6;" 
d="M88 164h403v25h-391l-50 35v59h100v-24h391l50 -35v-60h21l50 -35v-198l-50 -35h-524l-50 35v198zM175 299v283h-61v-283h-82v321l41 39h90v137h100v-137h89l42 -39v-321h-83v283h-61v-283h-75zM513 648v-115l23 -30l23 29v145h-109l-50 40v78h100v-38h174v-80h-15v-167
l-8 -10l-55 -70l42 -52h30v-80h-84l-15 19l-32 39l-30 -39l-14 -19h-85v80h30l40 51l-57 70l-8 10v139h100zM28 -125h644v-70h-644v70zM75 674l-21 114h70l21 -114h-70zM281 674l21 114h70l-21 -114h-70zM302 528v-168h-40v168h40zM164 528v-168h-40v168h40zM138 65h162v30
h-162v-30zM562 95h-162v-30h162v30zM138 -34h162v29h-162v-29zM562 -34v29h-162v-29h162z" />
    <glyph glyph-name="cid1112" unicode="&#x618b;" 
d="M179 151v379h-62v-376h-85v410l42 34h105v199h100v-199h105l42 -34v-377l-42 -34h-76v68h33v309h-62v-379h-100zM532 793v-35h140v-80h-12v-279l-4 -7l-54 -101l42 -73h29v-72h-86l-12 22l-20 34l-18 -34l-11 -22h-89v72h29l38 72l-57 101l-4 8v259h90v-244l19 -34l18 33
v265h-88l-50 40v75h100zM516 -192h-252l-50 40v278h100v-238h202v-80zM494 127h112l50 -40v-280h-100v240h-62v80zM186 47h-42v-240h-100v280l50 40h92v-80zM366 -70v196h100v-196h-100zM297 628l16 148h85l-16 -148h-85zM76 628l-16 148h84l17 -148h-85zM326 480v-219h-35
v219h35zM166 480v-219h-34v219h34z" />
    <glyph glyph-name="cid1113" unicode="&#x522b;" 
d="M31 312h93l12 121l100 -6l-11 -115h120l50 -40v-426l-50 -39h-109v79h59v346h-78l-38 -389l-50 -37h-97v80h51l33 346h-85v80zM83 794h261l50 -40v-267l-50 -40h-261l-50 40v267zM670 794v-953l-45 -36h-153v80h98v909h100zM531 723v-771h-90v771h90zM294 715h-161v-189
h161v189z" />
    <glyph glyph-name="cid1114" unicode="&#x762a;" 
d="M269 598h57v35h99v-35h184l45 -36v-289l-45 -36h-340l-45 36v289zM27 190h70v270h-70v80h70v150l50 40h206v65h99v-65h217v-80h-472v-807l-50 -40h-120v80h70v227h-70v80zM645 49v-78l-50 -40h-262v-45h339v-80h-389l-49 40v202h99v-37h212v38h100zM209 106l57 79l43 20
h260l44 -20l56 -79l-87 -39l-42 59h-202l-42 -59zM314 402h250v32h-250v-32zM564 527h-250v-30h250v30zM564 309v29h-250v-29h250z" />
    <glyph glyph-name="cid1115" unicode="&#x5f6c;" 
d="M275 581h-78v-773h-87v773h-81v80h81v139h87v-139h78v-80zM540 581h-81v-773h-87v773h-75v80h75v139h87v-139h81v-80zM534 526l8 -718h-57l-10 718h59zM272 526l8 -718h-57l-10 718h59zM96 526l-11 -718h-57l10 718h58zM358 526l-11 -718h-57l10 718h58zM555 261h30v169
h85v-210l-38 -40h-77v81zM557 626h30v170h85v-210l-37 -40h-78v80zM557 -111h30v169h85v-209l-37 -40h-78v80z" />
    <glyph glyph-name="cid1116" unicode="&#x658c;" 
d="M258 -195h-93l-21 79l-20 -79h-92v64h23l47 181l-60 233v319h-19v69h71v119h105v-119h78v-69h-28v-319l-61 -231l48 -183h22v-64zM605 796l8 -205h61v-80h-58l26 -630h32v-76h-79l-47 37l-26 669h-243v80h240l-8 205h94zM517 186h-33v-294h37v-79h-244v79h15v497h75v-497
h27v581h90v-208h33v-79zM489 668h-189v80h189v-80zM163 288v314h-35v-314l17 -68zM673 759v-133h-50v133h50z" />
    <glyph glyph-name="cid1117" unicode="&#x6fd2;" 
d="M671 698h-68v-83h20l45 -38v-456h-90v418h-45v-418h-90v456l45 38h20v83h-68v80h231v-80zM279 735v-290h24v354h98v-132h30v-79h-30v-143h28v-80h-254v80h23v290h81zM29 -196v390l50 44h80v-80h-31v-354h-99zM439 -179l75 269h83l75 -269l-82 -15l-34 127l-35 -127z
M423 277v-440l-48 -30h-200v80h195v390h53zM354 334v-415h-89v415h89zM173 -86l14 379h62l-14 -379h-62zM128 524v-134h31v-80h-80l-50 45v169h99zM128 798v-134h31v-80h-80l-50 45v169h99z" />
    <glyph glyph-name="cid1118" unicode="&#x6ee8;" 
d="M666 279h-84v-174h90v-80h-467v80h39v372l50 40h255v39h100v-79l-50 -39h-255v-79h322v-80zM495 795v-58h123l50 -40v-121h-100v81h-245v-81h-100v121l50 40h123v58h99zM30 -196v380l50 44h120v-80h-71v-344h-99zM129 514v-134h71v-80h-120l-50 45v169h99zM129 788v-134
h71v-80h-120l-50 45v169h99zM344 105h138v174h-138v-174zM611 -8l55 -189h-99l-55 189h99zM375 -8l-55 -189h-99l55 189h99z" />
    <glyph glyph-name="cid1119" unicode="&#x5bbe;" 
d="M660 276h-110v-173h122v-80h-644v80h67v383l50 40h379v43h100v-83l-50 -40h-380v-90h466v-80zM30 589v102l50 40h220v65h100v-65h220l50 -40v-102h-100v63h-440v-63h-100zM194 103h256v173h-256v-173zM64 -193l55 176h99l-55 -176h-99zM537 -193l-55 176h99l55 -176h-99z
" />
    <glyph glyph-name="cid1120" unicode="&#x6448;" 
d="M668 270h-80v-167h86v-80h-419v80h31v364l50 40h215v39h100v-79l-50 -39h-215v-78h282v-80zM241 565h-57v-339h57v-80h-57v-302l-50 -40h-96v80h46v262h-58v80h58v339h-58v80h58v151h100v-151h57v-80zM517 797v-69h103l50 -40v-121h-100v81h-205v-81h-100v121l50 40h103
v69h99zM421 -10l-51 -189h-99l51 189h99zM617 -10l51 -189h-99l-51 189h99zM386 103h102v167h-102v-167z" />
    <glyph glyph-name="cid1121" unicode="&#x5175;" 
d="M33 119h66v571l45 41h376v65h90v-106l-45 -40h-376v-116h465v-80h-84v-335h103v-80h-640v80zM189 119h281v335h-281v-335zM34 -197l79 196h96l-79 -196h-96zM571 -197l-79 196h96l79 -196h-96z" />
    <glyph glyph-name="cid1122" unicode="&#x51b0;" 
d="M481 793v-950l-50 -40h-93v80h44v910h99zM668 689l-62 -202l66 -674l-98 -8l-68 683l2 16l67 210zM181 606h125l50 -43l-69 -760l-99 6l64 717h-71v80zM32 -197v450l44 40h87v-80h-43v-410h-88zM120 791v-262h43v-81h-87l-44 41v302h88z" />
    <glyph glyph-name="cid1123" unicode="&#x67c4;" 
d="M676 708h-140v-114h91l47 -40v-711l-47 -41h-100v79h52v106l-66 -5l-25 265l-24 -265l-66 5v-185h-95v752l47 40h91v114h-141v80h376v-80zM284 581h-85v-777h-88v777h-83v80h83v139h88v-139h85v-80zM273 526l8 -722h-57l-9 722h58zM97 526l-10 -722h-57l10 722h57z
M579 514h-47l47 -476v476zM398 38l46 476h-46v-476z" />
    <glyph glyph-name="cid1124" unicode="&#x4e19;" 
d="M160 12l132 471h-152v-676h-100v716l50 40h210v147h-272v80h644v-80h-272v-147h208l50 -40v-676l-50 -40h-164v80h114v596h-150l132 -471l-97 -18l-93 332l-93 -332z" />
    <glyph glyph-name="cid1125" unicode="&#x79c9;" 
d="M673 547h-274v-61h191l50 -40v-91h29v-80h-29v-96l-50 -40h-125l208 -294l-87 -39l-187 265v-267h-99v267l-187 -265l-87 39l207 294h-184v80h251v56h-269v80h269v51h-251v80h251v61h-268v80h268v58h-247v80h492v32h100v-72l-50 -40h-196v-58h274v-80zM540 219v56h-141
v-56h141zM540 406h-141v-51h141v51z" />
    <glyph glyph-name="cid1126" unicode="&#x997c;" 
d="M400 797l20 -108h107l20 108h100l-20 -108h42v-80h-51v-304h54v-80h-54v-422h-100v422h-91v-384l-50 -40h-108v80h58v344h-57v80h57v304h-49v80h43l-20 108h99zM230 -194h-133l-50 40v698h100v-658h83v-80zM170 455v162h-93l-49 39v141h99v-101h81l50 -40v-201h-88z
M427 305h91v304h-91v-304z" />
    <glyph glyph-name="cid1127" unicode="&#x70b3;" 
d="M674 717h-147v-147h95l49 -40v-682l-49 -41h-100v80h50v106l-69 -5l-26 236l-25 -236l-69 5v-186h-99v723l49 40h95v147h-147v80h393v-80zM30 -186l73 408v575h90v-581l72 -402l-79 -9l-38 216l-39 -216zM266 681l-8 -420h-55l9 420h54zM84 681l8 -420h-54l-9 420h55z
M572 490h-48l48 -450v450zM383 40l47 450h-47v-450z" />
    <glyph glyph-name="cid1128" unicode="&#x75c5;" 
d="M237 -193v566l48 38h112v96h-172v80h444v-80h-172v-96h112l48 -38v-524l-48 -38h-149v76h102v129l-77 -16l-38 118l-39 -118l-76 16v-209h-95zM30 190h70v270h-70v80h70v150l50 40h206v65h99v-65h217v-80h-473v-807l-49 -40h-120v80h70v227h-70v80zM332 48l65 200v87h-65
v-287zM562 335h-65v-85l65 -201v286z" />
    <glyph glyph-name="cid1129" unicode="&#x5e76;" 
d="M652 619h-99v-324h119v-80h-119v-412h-100v412h-216l-16 -372l-49 -38h-117v79h69l14 331h-110v80h113l14 315v9h-107v80h87l-27 98h105l26 -98h221l27 98h105l-27 -98h87v-80zM255 607l-14 -312h212v324h-198v-12z" />
    <glyph glyph-name="cid1130" unicode="&#x73bb;" 
d="M580 466v190h-55v-225h84l48 -38v-298l-74 -121l49 -90h37v-77h-97l-43 76l-47 -78h-93v80h38l51 88l-70 122v230h98v-207l27 -51l26 45v239h-187v-508l-50 -40h-73v80h23v813l50 40h104v61h99v-61h95l50 -40v-230h-90zM239 -151h-211v80h56v325h-56v79h56v325h-56v80
h211v-80h-56v-325h56v-79h-56v-325h56v-80zM372 431h54v225h-54v-225z" />
    <glyph glyph-name="cid1131" unicode="&#x83e0;" 
d="M359 -111h36l52 66l-74 97l-8 11v75h99v-50l43 -57l42 52v78h-203v-319l-50 -40h-90v80h40v545l50 40h107v57h100v-57h107l50 -40v-155h-100v116h-57v-142h96l50 -42v-147l-8 -10l-74 -93l49 -65h33v-85h-87l-15 19l-41 54l-43 -55l-15 -18h-89v85zM455 539v87h-208v-87
h-100v87h-118v79h118v87h100v-87h208v87h100v-87h117v-79h-117v-87h-100zM39 -193v240l50 45h128v-90h-78v-195h-100zM139 308v-90h78v-90h-128l-50 45v135h100zM139 519v-90h78v-89h-128l-50 45v134h100zM346 246h57v142h-57v-142z" />
    <glyph glyph-name="cid1132" unicode="&#x64ad;" 
d="M315 267h309l45 -36v-387l-45 -36h-309l-51 36v387zM413 283v178h-23l-40 -178h-95l41 178h-40v72h157v151h-154v80h299v34h112v-74l-57 -40h-99v-151h159v-72h-40l41 -178h-95l-41 178h-24v-178h-101zM239 565h-56v-339h56v-80h-56v-302l-50 -40h-99v80h49v262h-55v80
h55v339h-55v80h55v151h100v-151h56v-80zM553 549l16 114h95l-17 -114h-94zM281 549l-16 114h94l16 -114h-94zM359 72h56v123h-56v-123zM567 195h-56v-123h56v123zM567 -120v121h-56v-121h56zM359 -120h56v121h-56v-121z" />
    <glyph glyph-name="cid1133" unicode="&#x62e8;" 
d="M334 757v-147h25v186h100v-186h214v-80h-234l-12 -83h179l49 -40v-348l-69 -95l53 -80h34v-80h-90l-55 80l-57 -80h-94v80h40l56 81l-65 95v252l-69 -473l-49 -35h-73v80h29l93 646h-46l-45 40v187h86zM232 565h-50v-339h50v-80h-50v-302l-50 -40h-96v80h46v262h-55v80
h55v339h-55v80h55v151h100v-151h50v-80zM508 319v-237l23 -35l25 35v285h-140l-7 -48h99zM515 760h148v-80h-148v80z" />
    <glyph glyph-name="cid1134" unicode="&#x94b5;" 
d="M673 590h-155v-619h44v-79h-44v-91h-96v91h-43v79h43v619h-153v80h153v128h96v-128h155v-80zM250 471h-62v-209h62v-80h-62v-298h56v-79h-106l-50 39v338h-61v80h61v209h-61v80h223v-80zM633 550l40 -728h-91l-41 728h92zM399 550l-40 -728h-91l40 728h91zM250 640h-174
l-50 39v117h99v-77h125v-79z" />
    <glyph glyph-name="cid1135" unicode="&#x6ce2;" 
d="M578 481v172h-81v-225h104l51 -38v-308l-95 -120l67 -85h47v-73h-106l-66 84l-67 -86h-101v76h44l66 85l-102 129v228h99v-207l60 -77l55 70v247h-247v-510l-50 -40h-94v80h44v810l50 40h142v64h99v-64h121l50 -40v-212h-90zM28 -196v380l50 44h100v-80h-51v-344h-99z
M127 514v-134h51v-80h-100l-50 45v169h99zM127 788v-134h51v-80h-100l-50 45v169h99zM306 428h92v225h-92v-225z" />
    <glyph glyph-name="cid1136" unicode="&#x535a;" 
d="M515 797v-50h40v48h100v-48h17v-80h-157v-44h106l50 -40v-395h-100v68h-56v-67h-100v67h-56v-68h-100v395l50 40h106v44h-158v80h158v50h100zM185 797v-270h60v-80h-60v-644h-100v644h-58v80h58v270h100zM632 170v-30h40v-80h-40v-214l-50 -40h-119v80h69v174h-275v80
h275v30h100zM348 -140l-50 169h95l50 -169h-95zM359 336h56v65h-56v-65zM515 336h56v65h-56v-65zM571 544h-56v-63h56v63zM359 481h56v63h-56v-63z" />
    <glyph glyph-name="cid1137" unicode="&#x52c3;" 
d="M535 792l-4 -101h90l50 -40v-806l-50 -40h-99v80h49v726h-44l-32 -766l-50 -40h-82v80h33l32 726h-40v80h43l5 103zM375 51h-123v-207l-50 -40h-131v80h82v167h-125v79h125v25l4 16l79 127h-195v80h273l45 -56l-107 -176v-16h123v-79zM275 416v104h-148v-104h-99v144
l50 39h67v60h-115v79h115v61h100v-61h127v-79h-127v-60h80l50 -39v-144h-100z" />
    <glyph glyph-name="cid1138" unicode="&#x640f;" 
d="M510 797v-50h46v48h100v-48h17v-80h-163v-44h112l50 -40v-395h-100v78h-62v-77h-100v77h-60v-78h-100v395l50 40h110v44h-162v80h162v50h100zM231 565h-52v-339h52v-80h-52v-302l-50 -40h-97v80h47v262h-50v80h50v339h-50v80h50v151h100v-151h52v-80zM630 173v-35h43v-80
h-43v-218l-50 -40h-109v80h59v178h-282v80h282v35h100zM334 -149l-52 177h95l52 -177h-95zM572 544h-62v-59h62v59zM510 346h62v59h-62v-59zM350 485h60v59h-60v-59zM350 346h60v59h-60v-59z" />
    <glyph glyph-name="cid1139" unicode="&#x94c2;" 
d="M352 682h79v116h100v-116h90l50 -40v-799l-50 -39h-269l-50 39v799zM273 469h-75v-209h75v-80h-75v-298h69v-79h-119l-50 39v338h-68v80h68v209h-68v80h243v-80zM572 -117v327h-170v-327h170zM572 602h-170v-312h170v312zM273 638h-194l-50 39v120h99v-80h145v-79z" />
    <glyph glyph-name="cid1140" unicode="&#x7b94;" 
d="M290 496h58v75h100v-75h163l50 -40v-608l-50 -40h-321l-50 40v608zM561 416h-221v-224h221v224zM561 -112v224h-221v-224h221zM482 551v91h-70l-50 39v115h100v-75h208v-79h-88v-91h-100zM152 568v74h-70l-50 39v115h100v-75h207v-79h-88v-74h-99zM42 -192v245l49 44h115
v-89h-65v-200h-99zM141 548v-70h65v-90h-115l-49 45v115h99zM141 338v-70h65v-90h-115l-49 45v115h99z" />
    <glyph glyph-name="cid1141" unicode="&#x4f2f;" 
d="M293 681h109v116h100v-116h120l50 -40v-799l-50 -39h-329l-50 39v799zM77 -197v887h-50v81h104l52 -39v-929h-106zM573 -118v323h-230v-323h230zM573 601h-230v-316h230v316z" />
    <glyph glyph-name="cid1142" unicode="&#x5e1b;" 
d="M108 720h152v75h100v-75h232l50 -40v-335l-50 -40h-484l-50 40v335zM400 276v-77h200l50 -40v-287l-50 -40h-114v80h64v207h-150v-316h-100v316h-150v-282h-100v322l50 40h200v77h100zM542 385v88h-384v-88h384zM542 640h-384v-88h384v88z" />
    <glyph glyph-name="cid1143" unicode="&#x8236;" 
d="M413 701h53v96h100v-96h54l50 -40v-819l-50 -39h-207l-50 39v819zM54 -197v440h-28v80h28v378l46 36h42v61h103v-61h41l47 -36v-861l-47 -37h-98v73h52v367h-93v-440h-93zM571 -118v337h-108v-337h108zM571 621h-108v-322h108v322zM240 665h-93v-342h93v342zM165 376v213
h57v-213h-57zM165 -24v213h57v-213h-57z" />
    <glyph glyph-name="cid1144" unicode="&#x8116;" 
d="M160 -116h28v223h-56v-304h-100v936l50 40h155l50 -40v-895l-50 -40h-77v80zM673 70h-124v-226l-50 -40h-129v80h79v186h-135v79h147l68 149h-193v80h275l42 -61l-80 -168h100v-79zM567 413v107h-148v-107h-100v147l50 39h72v69h-128v79h128v52h100v-52h132v-79h-132v-69
h76l50 -39v-147h-100zM132 187h56v231h-56v-231zM188 699h-56v-201h56v201z" />
    <glyph glyph-name="cid1145" unicode="&#x818a;" 
d="M144 -116h19v223h-39v-304h-96v941l50 40h131l50 -40v-900l-50 -40h-65v80zM526 789v-50h38v48h94v-48h16v-79h-148v-44h100l47 -40v-392h-94v68h-53v-67h-94v67h-52v-68h-95v392l47 40h100v44h-149v79h149v50h94zM637 167v-30h37v-79h-37v-213l-47 -39h-113v79h66v173
h-260v79h260v30h94zM369 -141l-47 168h90l47 -168h-90zM124 187h39v234h-39v-234zM163 704h-39v-203h39v203zM526 331h53v65h-53v-65zM380 331h52v65h-52v-65zM579 538h-53v-63h53v63zM380 475h52v63h-52v-63z" />
    <glyph glyph-name="cid1146" unicode="&#x6e24;" 
d="M571 790l-4 -115h63l45 -40v-791l-45 -40h-68v81h23v709h-20l-25 -792l-88 2l25 790h-27v81h29l4 117zM442 35h-74v-190l-50 -40h-93v80h43v150h-83v80h83v34l5 16l57 102h-140v80h216l46 -56l-84 -151v-25h74v-80zM361 796v-71h77v-80h-77v-87h42l50 -40v-133h-100v93
h-85v-93h-99v133l49 40h43v87h-77v80h77v71h100zM27 -197v380l50 44h85v-80h-36v-344h-99zM126 510v-134h36v-80h-85l-50 45v169h99zM126 787v-134h36v-80h-85l-50 45v169h99z" />
    <glyph glyph-name="cid1147" unicode="&#x6cca;" 
d="M292 691h113v106h100v-106h116l50 -40v-809l-50 -39h-329l-50 39v809zM572 -118v325h-230v-325h230zM572 611h-230v-324h230v324zM29 -199v380l50 44h126v-80h-77v-344h-99zM128 511v-134h77v-80h-126l-50 45v169h99zM128 785v-134h77v-80h-126l-50 45v169h99z" />
    <glyph glyph-name="cid1148" unicode="&#x9a73;" 
d="M130 641v-339h36v401h-138v76h186l47 -38v-453l31 -24v-423l-48 -38h-167v76h120v347h-115l-47 38v377h95zM429 310v-211l60 -71l61 71v211h100v-237l-100 -117l59 -70h65v-80h-122l-64 77l-65 -77h-116v80h60l60 70l-98 117v237h100zM429 780v-177l60 -59l61 59v177h100
v-204l-98 -93l54 -52h68v-80h-114l-72 70l-73 -70h-114v80h69l54 52l-95 93v204h100zM175 6h-147v80h147v-80z" />
    <glyph glyph-name="cid1149" unicode="&#x6355;" 
d="M508 797v-102h164v-80h-164v-76h113l50 -40v-655l-50 -40h-84v79h34v140h-63v-216h-99v216h-62v-217h-100v693l50 40h112v76h-164v80h164v102h99zM225 565h-48v-339h48v-80h-48v-302l-50 -40h-88v80h38v262h-49v80h49v339h-49v80h49v151h100v-151h48v-80zM508 103h63v148
h-63v-148zM347 103h62v148h-62v-148zM571 459h-63v-128h63v128zM347 331h62v128h-62v-128zM653 794v-78h-100v78h100z" />
    <glyph glyph-name="cid1150" unicode="&#x2f18;" 
d="M328 794v-988h-100v988h100zM542 19l-113 566h99l113 -566h-99z" />
    <glyph glyph-name="cid1150" unicode="&#x535c;" 
d="M328 794v-988h-100v988h100zM542 19l-113 566h99l113 -566h-99z" />
    <glyph glyph-name="cid1151" unicode="&#x54fa;" 
d="M514 797v-102h158v-80h-158v-76h107l50 -40v-655l-50 -40h-84v79h34v140h-57v-216h-99v216h-56v-217h-100v693l50 40h106v76h-158v80h158v102h99zM75 745h113l46 -39v-838l-46 -40h-113l-47 40v838zM145 666h-28v-758h28v758zM571 459h-57v-138h57v138zM514 103h57v138
h-57v-138zM655 794v-78h-100v78h100zM359 321h56v138h-56v-138zM359 103h56v138h-56v-138z" />
    <glyph glyph-name="cid1152" unicode="&#x8865;" 
d="M26 190l160 378h-147v79h211l48 -49l-95 -230l74 111l68 -44l-66 -88l73 -116l-73 -32l-35 66v-458h-100v416l-21 -51zM492 793v-990h-100v990h100zM626 630l47 -634h-95l-47 634h95zM138 667v130h100v-130h-100z" />
    <glyph glyph-name="cid1153" unicode="&#x57e0;" 
d="M502 797v-65h95l50 -40v-192l-50 -40h-235v-65h252l50 -40v-197l-50 -40h-102v-88h160v-80h-160v-147h-100v147h-159v80h159v88h-100l-50 40v534l50 40h90v65h100zM232 -154h-204v80h52v589h-52v80h52v191h100v-191h52v-80h-52v-589h52v-80zM362 315v-117h202v117h-202z
M362 540h185v112h-185v-112z" />
    <glyph glyph-name="cid1154" unicode="&#x4e0d;" 
d="M400 565v-757h-100v670l-165 -458l-97 23l232 651h-232v80h624v-80h-285l-46 -129h69zM542 26l-95 502l96 15l98 -497z" />
    <glyph glyph-name="cid1155" unicode="&#x5e03;" 
d="M434 542v-137h159l50 -40v-468l-50 -39h-106v79h56v388h-109v-521h-100v521h-109v-470h-100v293l-94 24l134 415h-129v80h155l42 129l95 -24l-34 -105h378v-80h-404l-59 -182h125v137h100z" />
    <glyph glyph-name="cid1156" unicode="&#x6b65;" 
d="M622 600h-184v-153h219v-80h-614v80h74v252h100v-252h122v348h99v-115h184v-80zM628 277v-161l-1 -8l-66 -270l-49 -32h-467v80h426l57 233v158h100zM308 -73v410h100v-410h-100zM57 -51l58 328h99l-57 -328h-100z" />
    <glyph glyph-name="cid1157" unicode="&#x7c3f;" 
d="M670 459h-187v-34h128l50 -40v-297h-100v41h-78v-41h-100v41h-79v-41h-99v297l49 40h129v34h-188v80h188v54h100v-54h45v41h100v-41h42v-80zM609 71v-33h62v-80h-62v-117l-50 -40h-140v80h90v77h-311v80h311v33h100zM152 582v78h-70l-50 40v96h100v-56h207v-80h-88v-78
h-99zM482 603v57h-70l-50 40v96h100v-56h208v-80h-88v-57h-100zM32 -198v250l50 45h95v-90h-45v-205h-100zM132 578v-91h45v-90h-95l-50 45v136h100zM132 339v-90h45v-90h-95l-50 45v135h100zM333 -69l46 -112h-99l-46 112h99zM304 201h79v38h-79v-38zM483 201h78v38h-78
v-38zM304 310h79v35h-79v-35zM561 345h-78v-35h78v35z" />
    <glyph glyph-name="cid1158" unicode="&#x90e8;" 
d="M536 -46h34v332h-34v80h34v337h-54v-900h-100v940l50 40h154l50 -40v-396l-19 -20l19 -21v-392l-50 -40h-84v80zM88 259h242l50 -40v-372l-50 -40h-242l-50 40v372zM280 179h-142v-292h142v292zM386 653h-354v80h127v62h100v-62h127v-80zM390 304h-362v80h362v-80z
M240 417l36 203h101l-36 -203h-101zM77 417l-36 203h100l36 -203h-100z" />
    <glyph glyph-name="cid1159" unicode="&#x6016;" 
d="M445 778l-18 -74h246v-79h-265l-42 -180h59v125h99v-125h95l50 -40v-478l-50 -40h-73v80h23v398h-45v-561h-99v561h-43v-476h-100v259l-81 15l110 462h-75v79h94l22 91zM231 349h-45v-545h-100v752h-60v80h60v158h100v-365h45v-80z" />
    <glyph glyph-name="cid1160" unicode="&#x64e6;" 
d="M228 555h-48v-340h48v-80h-48v-291l-50 -40h-96v80h46v251h-51v80h51v340h-51v80h51v161h100v-161h48v-80zM543 605l6 -46h91l34 -32l-50 -233h45v-68h-124l-42 31l-47 342zM666 16h-155v-172l-50 -40h-91v80h41v132h-164v80h419v-80zM346 597v-27h63l45 -40l-48 -274
l-44 -32h-107v72h67l4 24h-71v70h84l3 17h-87v70h99l4 21h-57l-45 36v63h90zM509 797v-42h113l50 -40v-97h-100v58h-224v-58h-100v97l50 40h111v42h100zM635 128h-357v80h357v-80zM246 -193l24 183h90l-25 -183h-89zM573 -193l-25 183h90l24 -183h-89zM596 494h-39l15 -112z
" />
    <glyph glyph-name="cid1161" unicode="&#x731c;" 
d="M274 -197v478l50 40h280l50 -40v-438l-50 -40h-120v80h70v69h-180v-149h-100zM239 456h-37v-613l-50 -40h-121v80h71v233h-71v79h71v261h-71v80h71v168h-71v80h121l50 -40v-208h37v-80zM657 504h-143v-66h160v-79h-420v79h160v66h-143v80h143v66h-149v79h149v64h100v-64
h150v-79h-150v-66h143v-80zM554 241h-180v-65h180v65zM374 32h180v64h-180v-64z" />
    <glyph glyph-name="cid1162" unicode="&#x88c1;" 
d="M668 394v-256l-45 -41h-65v-213h112v-80h-162l-50 40v253h-34v81h34v337h-431v80h151v67h-140v80h140v56h100v-56h139v-80h-139v-67h180v203h100v-203h112v-80h-112v-337h20v216h90zM308 -193h-115l-45 36v184l-31 -107l-87 16l113 393h-110v80h145v69h100v-69h145v-80
h-188l-48 -167h51v-283h70v-72zM328 277l25 -113h53v-80h-36l55 -249l-89 -13l-97 443zM663 788v-165h-80v165h80z" />
    <glyph glyph-name="cid1163" unicode="&#x6750;" 
d="M357 -197l44 759h-52v80h190v153h100v-153h33v-80h-33v-717l-50 -40h-96v80h46v677h-41l-44 -759h-97zM324 580h-100v-776h-97v776h-99v80h99v139h97v-139h100v-80zM311 525l11 -721h-68l-11 721h68zM109 525l-11 -721h-68l12 721h67z" />
    <glyph glyph-name="cid1164" unicode="&#x624d;" 
d="M355 -116h89v695h-108l-154 -742l-49 -33h-100v80h57l145 695h-205v80h414v136h99v-136h128v-80h-128v-735l-49 -40h-139v80z" />
    <glyph glyph-name="cid1165" unicode="&#x8d22;" 
d="M640 792v-172h33v-80h-33v-695l-50 -40h-100v80h50v655h-41l-43 -697l-50 -38h-78v80h32l39 655h-62v80h203v172h100zM209 230v470h-76v-470h-100v510l50 40h176l49 -40v-510h-99zM27 -183l95 394h98l95 -394l-98 -15l-46 191l-46 -191z" />
    <glyph glyph-name="cid1166" unicode="&#x776c;" 
d="M77 740h142l47 -40v-814l-47 -40h-142l-47 40v814zM669 270h-141v-466h-99v466h-141v80h141v48h99v-48h141v-80zM642 242l33 -438h-95l-32 438h94zM408 242l-31 -438h-94l30 438h95zM666 798v-75l-50 -40h-332v79h282v36h100zM306 420l-17 235h95l16 -235h-94zM550 420
l24 235h94l-23 -235h-95zM436 420l-15 235h95l14 -235h-94zM125 197h46v192h-46v-192zM171 661h-46v-192h46v192zM171 -75v192h-46v-192h46z" />
    <glyph glyph-name="cid1167" unicode="&#x8e29;" 
d="M275 127h-47v-249h47v-74h-211l-35 36v503h82v-465h29v520h-70l-43 36v315l43 36h162l44 -36v-315l-44 -36h-4v-192h47v-79zM668 270h-136v-466h-99v466h-136v80h136v48h99v-48h136v-80zM641 242l33 -438h-95l-32 438h94zM417 242l-31 -438h-94l30 438h95zM665 798v-75
l-50 -40h-322v79h272v36h100zM315 420l-17 235h95l16 -235h-94zM549 420l24 235h94l-23 -235h-95zM440 420l-15 235h95l14 -235h-94zM185 705h-67v-227h67v227z" />
    <glyph glyph-name="cid1168" unicode="&#x91c7;" 
d="M400 407v-97h269v-80h-106l95 -412l-98 -14l-99 426h-61v-429h-100v429h-62l-98 -426l-98 14l95 412h-106v80h269v97h100zM44 754h508v43h100v-83l-50 -40h-558v80zM495 441l25 200h100l-25 -200h-100zM95 441l-25 200h100l25 -200h-100zM304 441l-25 200h99l25 -200h-99
z" />
    <glyph glyph-name="cid1169" unicode="&#x5f69;" 
d="M439 270h-154v-466h-99v466h-154v80h154v48h99v-48h154v-80zM412 242l33 -438h-95l-32 438h94zM152 242l-31 -438h-94l30 438h95zM436 798v-75l-50 -40h-358v79h308v36h100zM464 -117h111v169h100v-209l-50 -40h-161v80zM464 627h111v169h100v-209l-50 -40h-161v80z
M461 255h111v169h100v-209l-50 -40h-161v80zM193 420l-15 235h95l14 -235h-94zM320 420l24 235h94l-23 -235h-95zM50 420l-17 235h95l16 -235h-94z" />
    <glyph glyph-name="cid1170" unicode="&#x83dc;" 
d="M575 -189l-123 289h-51v-295h-100v295h-52l-122 -289l-94 25l111 264h-115v80h272v58h100v-58h271v-80h-115l112 -264zM456 574v71h-212v-71h-100v71h-116v80h116v71h100v-71h212v71h100v-71h116v-80h-116v-71h-100zM42 519h508v43h100v-83l-50 -40h-558v80zM493 267
l25 141h100l-25 -141h-100zM93 267l-25 141h100l25 -141h-100zM302 267l-25 141h100l24 -141h-99z" />
    <glyph glyph-name="cid1171" unicode="&#x8521;" 
d="M672 15h-271v-174l-50 -40h-137v80h87v134h-272v80h643v-80zM457 585v66h-212v-66h-100v66h-116v80h116v66h100v-66h212v66h99v-66h116v-80h-116v-66h-99zM444 592l15 -54h163l42 -56l-108 -164h109v-75h-187l-49 30l-82 304zM138 582v-29h152l50 -43l-44 -235l-50 -32
h-205v75h162l30 160h-145l-50 37v67h100zM640 139h-578v80h578v-80zM566 -194l-40 174h94l41 -174h-95zM41 -194l40 174h95l-41 -174h-94zM185 332h-139v60h139v-60zM199 403h-139v60h139v-60zM544 462h-65l19 -69z" />
    <glyph glyph-name="cid1172" unicode="&#x9910;" 
d="M643 -200h-118l-38 15l-191 187h-96v-122h139v-80h-189l-49 40v436l49 40h150v53h100v-53h150l50 -40v-234l-50 -40h-126l25 -24h185v-64h-120l35 -34h94v-80zM187 605l6 -43h65v61h-179l-50 35v68h100v-33h29v101h100v-19h105v-64h-105v-18h50l50 -35v-130l-50 -35h-277
v69h63l-6 43h99zM435 689l79 -50l51 33v27h-176v79h226l50 -40v-104l-19 -12l-52 -34l81 -50l-62 -63l-98 62l-79 -52l-63 62l62 40l-62 40zM583 305l-49 88h-368l-49 -88l-91 32l63 112l45 24h432l46 -24l62 -112zM200 236v-39h300v39h-300zM500 82v39h-300v-39h300z" />
    <glyph glyph-name="cid1173" unicode="&#x53c2;" 
d="M672 398h-106l102 -112l-84 -43l-141 155h-182l-145 -182l-84 43l111 139h-115v80h179l66 83h-169l-44 58l107 180l88 -36l-69 -122h351v101h100v-141l-50 -40h-196l-66 -83h347v-80zM49 -104h510v37h100v-77l-50 -39h-560v79zM59 43h471v37h99v-77l-49 -40h-521v80z
M68 195h442v37h100v-77l-50 -40h-492v80z" />
    <glyph glyph-name="cid1174" unicode="&#x8695;" 
d="M29 -112h272v110h-202l-50 40v225l50 40h202v97h100v-97h202l50 -40v-225l-50 -40h-202v-110h173v80h99v-120l-50 -40h-594v80zM655 710h-284l-84 -128h385v-80h-94l94 -142l-88 -37l-118 179h-231l-117 -179l-88 37l93 142h-94v80h146l83 128h-211v80h608v-80zM553 223
h-152v-146h152v146zM149 77h152v146h-152v-146z" />
    <glyph glyph-name="cid1175" unicode="&#x6b8b;" 
d="M672 291h-144v-199h45v133h96v-173l-50 -40h-91v-130h146v-79h-196l-50 39v170h-120v80h120v199h-110v80h110v166h-110v80h110v182h100v-182h144v-80h-144v-166h144v-80zM46 -119h144v611h-92l-48 36v161h-22v80h276v-80h-155v-117h90l51 -36v-699l-51 -36h-193v80z
M70 -26l-29 468h90l29 -468h-90zM661 787v-136h-91v136h91z" />
    <glyph glyph-name="cid1176" unicode="&#x60ed;" 
d="M673 473h-24v-668h-85v668h-28v-668h-85v919l43 38h84v31h84v-69l-42 -38h-84v-133h137v-80zM439 -9h-45v-189h-95v189h-104v80h104v153h-71l-40 44l41 383h-33v80h41l8 67l79 -9l-7 -58h118v-80h-126l-37 -348h37v260h90v-260h38v-79h-43v-153h45v-80zM183 314h-26v-511
h-99v770h-32v80h32v144h99v-403h26v-80z" />
    <glyph glyph-name="cid1177" unicode="&#x60e8;" 
d="M658 418h-57l73 -153l-93 -28l-87 181h-76l-89 -182l-92 29l74 153h-61v80h100l37 75h-88l-48 51l62 171l96 -23l-44 -119h189v90h100v-130l-50 -40h-110l-37 -75h201v-80zM234 304h-53v-500h-100v752h-55v80h55v158h100v-410h53v-80zM263 -113h296v38h99v-78l-50 -39
h-345v79zM270 36h280v38h99v-78l-49 -40h-330v80zM275 189h262v38h100v-77l-50 -40h-312v79z" />
    <glyph glyph-name="cid1178" unicode="&#x707f;" 
d="M536 797v-912h35v770h95v-810l-43 -40h-267l-43 40v810h95v-770h34v912h94zM30 -186l83 427v556h95v-556l83 -427l-88 -9l-41 228l-44 -228zM293 683l-9 -440h-61l10 440h60zM90 683l9 -440h-60l-10 440h61z" />
    <glyph glyph-name="cid1179" unicode="&#x82cd;" 
d="M306 28h212v163h-336v-302h466v-80h-516l-50 40v382l50 40h436l50 -40v-243l-50 -40h-262v80zM464 546v86h-228v-86h-100v86h-108v80h108v86h100v-86h228v86h100v-86h108v-80h-108v-86h-100zM31 320l83 169l46 26h385l47 -26l77 -170l-93 -27l-66 143h-316l-70 -144z" />
    <glyph glyph-name="cid1180" unicode="&#x8231;" 
d="M54 -195v438h-27v80h27v377l45 36h40v61h100v-61h40l45 -36v-859l-45 -36h-95v72h50v366h-90v-438h-90zM484 96h71v279h-95v-491h208v-80h-258l-50 40v571l50 40h194l50 -40v-359l-50 -40h-120v80zM342 494l39 269l49 35h154l50 -35l39 -269l-99 -9l-34 233h-65l-34 -233
zM234 664h-90v-341h90v341zM161 -23v212h56v-212h-56zM161 376v212h56v-212h-56z" />
    <glyph glyph-name="cid1181" unicode="&#x4ed3;" 
d="M34 441l130 321l47 28h298l48 -30l112 -321l-96 -21l-102 292h-224l-118 -294zM283 70h242v240h-345v-419h490v-80h-540l-50 40v499l50 40h445l50 -40v-320l-50 -40h-292v80z" />
    <glyph glyph-name="cid1182" unicode="&#x6ca7;" 
d="M240 494l44 269l49 35h246l50 -35l43 -269l-99 -9l-38 233h-157l-39 -233zM417 96h137v269h-196v-481h312v-80h-362l-50 40v561l50 40h295l50 -40v-349l-50 -40h-186v80zM127 514v-134h81v-80h-130l-50 45v169h99zM28 -196v380l50 44h130v-80h-81v-344h-99zM127 788v-134
h81v-80h-130l-50 45v169h99z" />
    <glyph glyph-name="cid1183" unicode="&#x85cf;" 
d="M38 -84v198h-10v80h93v56h-51l-35 31v267h70v-235h16v183l50 40h348l-2 60v10h90l2 -70h65v-80h-62l9 -276h52v-91h-49l7 -210h37v-72h-81l-45 35l-9 247h-18v91h15l-9 276h-300v-613l-50 -40h-134v80h84v231h-18v-198h-65zM505 334h-47v-89l44 -40v-185l-44 -40v-89h47
v-81h-217l-45 40v525l45 40h217v-81zM457 620v47h-212v-64h-100v64h-116v80h116v49h100v-49h212v49h99v-49h116v-80h-116v-47h-99zM412 60v105h-79v-105h79zM333 246h35v88h-35v-88zM333 -109h35v88h-35v-88zM620 548v53h50v-53h-50z" />
    <glyph glyph-name="cid1184" unicode="&#x64cd;" 
d="M234 565h-53v-339h50v-80h-50v-302l-50 -40h-101v80h51v262h-52v80h52v339h-52v80h52v151h100v-151h53v-80zM328 795h269l50 -40v-150l-50 -40h-269l-50 40v150zM512 269v-46h161v-79h-161v-338h-100v338h-161v79h161v46h100zM289 547h121l40 -40v-187l-40 -40h-121
l-40 40v187zM513 547h121l40 -40v-187l-40 -40h-121l-40 40v187zM384 118l-39 -312h-95l39 312h95zM673 -194h-94l-40 312h95zM547 715h-170v-70h170v70zM594 467h-41v-107h41v107zM370 467h-41v-107h41v107z" />
    <glyph glyph-name="cid1185" unicode="&#x7cd9;" 
d="M268 361h-75v-558h-90v558h-75v80h75v354h90v-354h75v-80zM467 319h148l50 -40v-323l-50 -40h-148l-49 40v323zM389 540v-655h283v-79h-332l-50 39v695h99zM672 352h-261v80h98v158h-64l-39 40v150h79v-110h24v125h100v-125h60v-80h-60v-158h63v-80zM94 320l-7 -517h-55
l7 517h55zM257 320l7 -517h-55l-7 517h55zM202 472l7 293h55l-7 -293h-55zM39 472l-7 293h55l7 -293h-55zM290 634v147h99v-147h-99zM565 240h-48v-244h48v244z" />
    <glyph glyph-name="cid1186" unicode="&#x69fd;" 
d="M327 624h48v43h-97v80h97v46h81v-46h38v46h81v-46h99v-80h-99v-43h48l43 -41v-314l-43 -40h-296l-43 40v314zM346 201h258l48 -40v-321l-48 -40h-258l-48 40v321zM270 581h-81v-777h-82v777h-80v80h80v139h82v-139h81v-80zM260 526l8 -722h-55l-8 722h55zM93 526l-9 -722
h-55l10 722h54zM558 121h-165v-81h165v81zM558 -120v80h-165v-80h165zM581 543h-26v-77h26v77zM462 466h26v77h-26v-77zM462 310h26v76h-26v-76zM581 310v76h-26v-76h26zM370 466h25v77h-25v-77zM370 310h25v76h-25v-76zM456 624h38v43h-38v-43z" />
    <glyph glyph-name="cid1187" unicode="&#x66f9;" 
d="M94 628h120v43h-188v79h188v47h99v-47h70v47h99v-47h188v-79h-188v-43h120l50 -40v-311l-50 -40h-508l-50 40v311zM124 197h448l50 -40v-309l-50 -39h-448l-50 39v309zM522 -112v75h-348v-75h348zM522 117h-348v-74h348v74zM552 548h-70v-76h70v76zM313 472h70v76h-70
v-76zM144 472h70v76h-70v-76zM144 317h70v75h-70v-75zM313 317h70v75h-70v-75zM552 317v75h-70v-75h70zM313 628h70v43h-70v-43z" />
    <glyph glyph-name="cid1188" unicode="&#x8349;" 
d="M672 -70h-272v-127h-100v127h-272v80h272v89h-199l-50 40v375l50 40h498l50 -40v-375l-50 -40h-199v-89h272v-80zM463 583v77h-226v-77h-100v77h-109v80h109v59h100v-59h226v59h100v-59h109v-80h-109v-77h-100zM549 178v118h-398v-118h398zM549 474h-398v-98h398v98z" />
    <glyph glyph-name="cid1189" unicode="&#x5395;" 
d="M28 -117h40v868l50 40h554v-80h-505v-868l-49 -40h-90v80zM340 173v427h-47v-427h-90v463l45 36h137l45 -36v-463h-90zM183 -181l90 334h87l89 -334l-87 -15l-46 170l-45 -170zM661 680v-839l-45 -36h-146v72h101v803h90zM542 618v-690h-80v690h80z" />
    <glyph glyph-name="cid1190" unicode="&#x7b56;" 
d="M593 -186l-191 198v-208h-100v208l-190 -198l-79 48l269 280v109h-141v-196h-100v236l50 40h191v66h-270v80h270v69h100v-69h270v-80h-270v-66h191l50 -40v-201l-50 -40h-85v80h35v121h-141v-108l269 -281zM152 533v98h-70l-50 40v125h100v-85h207v-80h-88v-98h-99z
M482 533v98h-67l-50 40v125h100v-85h205v-80h-88v-98h-100z" />
    <glyph glyph-name="cid1191" unicode="&#x4fa7;" 
d="M72 -195v896h-44v80h90l46 -40v-936h-92zM349 227v490h-51v-490h-93v526l45 36h147l45 -36v-526h-93zM671 794v-952l-45 -35h-107v80h62v907h90zM552 739v-789h-80v789h80zM179 -185l100 395h88l100 -395l-90 -14l-54 218l-53 -218z" />
    <glyph glyph-name="cid1192" unicode="&#x518c;" 
d="M671 273h-25v-424l-50 -40h-81v80h31v384h-68v-424l-50 -40h-74v80h25v384h-64v-424l-50 -40h-81v80h31v384h-61v-424l-50 -40h-75v80h25v384h-27v75h27v399l50 40h161l50 -40v-399h64v399l49 40h168l50 -40v-399h25v-75zM546 707h-68v-359h68v359zM215 707h-61v-359h61
v359z" />
    <glyph glyph-name="cid1193" unicode="&#x6d4b;" 
d="M127 514v-134h53v-80h-102l-50 45v169h99zM28 -190v374l50 44h102v-80h-53v-338h-99zM127 788v-134h53v-80h-102l-50 45v169h99zM349 230v490h-51v-490h-93v526l45 36h147l45 -36v-526h-93zM671 793v-952l-45 -35h-107v80h62v907h90zM552 742v-789h-80v789h80zM179 -182
l100 395h88l100 -395l-90 -14l-54 218l-53 -218z" />
    <glyph glyph-name="cid1194" unicode="&#x5c42;" 
d="M611 495h-443v-649l-50 -40h-90v80h40v868l50 40h493l50 -40v-219zM663 144h-287l-50 -248h217v146h100v-186l-50 -40h-325l-50 46l57 282h-79v80h467v-80zM168 575h393v139h-393v-139zM650 344h-441v80h441v-80z" />
    <glyph glyph-name="cid1195" unicode="&#x8e6d;" 
d="M274 128h-47v-249h47v-75h-209l-35 37v504h82v-466h23v521h-64l-43 36v315l43 36h155l42 -36v-315l-41 -35v-193h47v-80zM338 718h20l-18 80h95l19 -80h54l19 80h96l-19 -80h20l48 -40v-378l-48 -40h-286l-48 40v378zM355 232h252l48 -40v-351l-48 -40h-252l-48 40v351z
M559 152h-156v-96h156v96zM559 -119v95h-156v-95h156zM577 638h-53v-298h53v109h-37v80h37v109zM423 449h-37v-109h52v298h-52v-109h37v-80zM174 707h-51v-227h51v227z" />
    <glyph glyph-name="cid1196" unicode="&#x63d2;" 
d="M673 484h-157v-599h56v178h-38v79h38v176h-36v80h86l50 -40v-513l-50 -40h-312l-50 40v513l50 40h84v-80h-34v-176h38v-79h-38v-178h56v599h-161v80h161v103h-146v79h291v53h100v-93l-50 -39h-95v-103h157v-80zM239 555h-55v-338h55v-80h-55v-293l-50 -40h-91v80h41v253
h-57v80h57v338h-57v80h57v161h100v-161h55v-80z" />
    <glyph glyph-name="cid1197" unicode="&#x53c9;" 
d="M28 -113h91l169 190l-189 208l-9 10v353h100v-327l159 -175l155 175v383h-417v80h467l50 -40v-449l-9 -10l-184 -207l173 -191h86v-80h-137l-15 17l-168 185l-165 -185l-15 -17h-142v80zM313 300l-36 353h94l36 -353h-94z" />
    <glyph glyph-name="cid1198" unicode="&#x832c;" 
d="M27 114h64l98 281h-161v80h189l34 95l96 -21l-26 -74h351v-80h-379l-66 -187v-406h-99v232h-101v80zM516 342v-143h141v-80h-141v-229h156v-80h-412v80h156v229h-141v80h141v143h100zM468 550v84h-236v-84h-100v84h-104v79h104v84h100v-84h236v84h100v-84h104v-79h-104
v-84h-100z" />
    <glyph glyph-name="cid1199" unicode="&#x8336;" 
d="M400 335v-139h267v-79h-267v-276l-50 -40h-137v80h87v236h-267v79h267v139h100zM463 530v93h-226v-93h-100v93h-109v80h109v93h100v-93h226v93h100v-93h109v-80h-109v-93h-100zM31 262l98 199l46 26h355l47 -26l92 -199l-93 -28l-80 173h-287l-85 -174zM35 -195l44 255
h100l-44 -255h-100zM565 -195l-44 255h100l44 -255h-100z" />
    <glyph glyph-name="cid1200" unicode="&#x67e5;" 
d="M114 328h470l50 -40v-315l-50 -40h-470l-50 40v315zM669 644h-79l80 -269l-98 -18l-84 287h-89v-274h-100v274h-88l-86 -285l-96 18l80 267h-80v79h270v73h100v-73h270v-79zM669 -196h-640v80h640v-80zM534 12v79h-370v-79h370zM534 248h-370v-78h370v78z" />
    <glyph glyph-name="cid1201" unicode="&#x78b4;" 
d="M25 311l56 381h-52v80h239v-80h-98l-32 -220h87l44 -37v-579l-44 -37h-120l-45 37v455h-35zM359 345h239l49 -40v-336l-49 -40h-239l-50 40v336zM530 800v-51h142v-80h-142v-286h-100v286h-144v80h144v51h100zM671 -195h-389v80h389v-80zM410 644l-29 -261h-91l29 261h91
zM668 383h-91l-28 261h91zM181 398h-32v-505h32v505zM548 265h-139v-88h139v88zM548 9v88h-139v-88h139z" />
    <glyph glyph-name="cid1202" unicode="&#x643d;" 
d="M222 565h-48v-339h48v-80h-48v-302l-50 -40h-92v80h42v262h-48v80h48v339h-48v80h48v151h100v-151h48v-80zM508 341v-128h155v-79h-155v-290l-50 -40h-95v80h45v250h-156v79h156v128h100zM400 797v-93h116v93h100v-93h55v-79h-55v-93h-100v93h-116v-93h-100v93h-56v79h56
v93h100zM243 252l58 224l49 32h216l49 -32l58 -224l-98 -16l-50 193h-134l-50 -193zM361 79l-33 -274h-97l34 274h96zM668 -195h-97l-33 274h96z" />
    <glyph glyph-name="cid1203" unicode="&#x5bdf;" 
d="M672 29h-272v-185l-50 -40h-137v80h87v145h-272v80h644v-80zM439 636l16 -59h167l42 -55l-113 -178h113v-74h-187l-48 30l-88 321zM400 796v-47h216l50 -40v-103h-100v63h-432v-48h-100v88l50 40h216v47h100zM137 609v-27h153l49 -43l-44 -237l-49 -32h-205v74h161
l30 163h-145l-50 37v65h100zM639 161h-578v79h578v-79zM566 -193l-41 183h94l41 -183h-94zM40 -193l41 183h94l-41 -183h-94zM198 431h-139v64h139v-64zM184 356h-138v64h138v-64zM545 501h-70l21 -77z" />
    <glyph glyph-name="cid1204" unicode="&#x5c94;" 
d="M403 151v-266h152v247h100v-287l-50 -40h-504l-50 40v287h100v-247h152v266h100zM59 519h536l50 -40v-258l-50 -40h-181v80h131v178h-280l-54 -227l-49 -33h-103v80h62l43 180h-105v80zM264 795l-34 -205l-49 -35h-141v80h98l26 160h100zM536 795l26 -160h98v-80h-141
l-49 35l-34 205h100z" />
    <glyph glyph-name="cid1205" unicode="&#x5dee;" 
d="M672 277h-458l-23 -104h462v-80h-213v-203h232v-79h-616v79h285v203h-167l-24 -110l-49 -33h-73v80h31l54 247h-85v80h102l21 95h-102v80h120l22 101h-152v80h120l-25 83h100l24 -83h183l26 83h99l-25 -83h120v-80h-369l-22 -101h381v-80h-398l-21 -95h440v-80z" />
    <glyph glyph-name="cid1206" unicode="&#x8be7;" 
d="M671 130h-162v-244h162v-80h-212l-50 40v284h-156v80h156v190h-147v80h298v51h100v-91l-50 -40h-101v-190h162v-80zM263 -197h-116l-50 40v616h-69v80h119l50 -40v-616h66v-80zM513 795v-72h109l50 -40v-128h-100v88h-214v-88h-100v128l50 40h105v72h100zM220 609h-101
l-50 40v146h100v-106h51v-80z" />
    <glyph glyph-name="cid1207" unicode="&#x62c6;" 
d="M673 134h-85v-331h-99v331h-87v80h87v211h-111v-573l-38 -48h-110v80h48v819l50 40h235v53h100v-93l-50 -40h-235v-158h295v-80h-85v-211h85v-80zM244 565h-58v-339h58v-80h-58v-302l-50 -40h-104v80h54v262h-57v80h57v339h-57v80h57v151h100v-151h58v-80z" />
    <glyph glyph-name="cid1208" unicode="&#x67f4;" 
d="M574 -195l-127 361h-47v-362h-99v362h-48l-126 -361l-95 22l118 339h-120v80h271v61h99v-61h271v-80h-121l119 -339zM374 579h-66v-163h66v-80h-346v80h35v349h100v-349h45v381h100v-138h66v-80zM672 765v-150l-50 -40h-121v-159h170v-80h-220l-50 40v421h100v-142h71
v110h100z" />
    <glyph glyph-name="cid1209" unicode="&#x8c7a;" 
d="M628 795v-212h45v-80h-45v-658l-50 -40h-103v80h53v618h-39l-56 -660l-50 -38h-82v80h36l52 618h-59v80h198v212h100zM308 488v-71l-41 -33v-538l-50 -40h-169v80h119v97h-139v80h139v116h-139v79h139v119h-139v80h180v31h100zM296 797v-81l-40 -40h-228v80h178v41h90z
M38 508v142h100v-142h-100zM180 508v142h100v-142h-100z" />
    <glyph glyph-name="cid1210" unicode="&#x6400;" 
d="M297 615h227v63h-213l-50 39v80h100v-40h212l50 -40v-102l50 -40v-202l-50 -40h-135l-143 -241l-91 33l123 208h-80l-50 40v202zM232 565h-52v-339h52v-80h-52v-302l-50 -40h-95v80h45v262h-53v80h53v339h-53v80h53v151h100v-151h52v-80zM655 -197l-397 33l11 79l397 -33
zM633 -48l-341 33l13 79l340 -33zM591 307v-136h82v-80h-132l-50 40v176h100zM573 535h-63v-122h63v122zM347 413h63v122h-63v-122z" />
    <glyph glyph-name="cid1211" unicode="&#x63ba;" 
d="M660 411h-53l69 -139l-93 -28l-83 167h-83l-82 -168l-92 29l67 139h-54v80h93l40 82h-84l-48 51l62 171l96 -23l-44 -119h185v90h100v-130l-50 -40h-110l-40 -82h204v-80zM241 565h-58v-339h58v-80h-58v-304l-50 -40h-99v80h49v264h-57v80h57v339h-57v80h57v149h100v-149
h58v-80zM269 -114h292v42h99v-82l-50 -39h-341v79zM276 34h276v43h99v-83l-49 -40h-326v80zM281 187h258v41h100v-80l-50 -40h-308v79z" />
    <glyph glyph-name="cid1212" unicode="&#x8749;" 
d="M673 -10h-132v-184h-90v184h-132v79h132v110h-90l-45 40v393l45 40h10l-25 136h90l25 -136h69l25 136h90l-26 -136h12l44 -40v-393l-44 -40h-90v-110h132v-79zM294 28v-175l-37 -40h-230v80h88v189h-49l-38 34v510l38 34h49v140h91v-140h49l38 -34v-510l-38 -34h-49v-189
h15v135h73zM216 580h-19v-418h19v418zM105 162h19v418h-19v-418zM586 259v117h-45v-117h45zM586 572h-45v-116h45v116zM407 259h44v117h-44v-117zM407 456h44v116h-44v-116z" />
    <glyph glyph-name="cid1213" unicode="&#x998b;" 
d="M306 615h221v63h-207l-50 39v80h100v-40h206l50 -40v-102l50 -40v-198l-50 -40h-134l-138 -245l-91 33l119 212h-76l-50 40v198zM231 -182h-142l-50 40v691h100v-651h92v-80zM154 450v171h-78l-49 39v135h99v-95h63l50 -40v-210h-85zM658 -190l-383 33l11 79l383 -33z
M594 313v-142h82v-80h-132l-50 40v182h100zM636 -39l-335 32l13 79l334 -32zM356 417h60v118h-60v-118zM576 535h-60v-118h60v118z" />
    <glyph glyph-name="cid1214" unicode="&#x8c17;" 
d="M291 597h230v69h-217l-50 39v89h100v-49h216l50 -40v-108h1l50 -40v-198l-50 -40h-146l-136 -225l-91 33l116 192h-73l-50 40v198zM227 -181h-91l-50 40v618h-58v80h108l50 -40v-618h41v-80zM653 -188l-393 33l11 83l393 -33zM631 -46l-345 33l13 84l344 -33zM587 295
v-122h84v-80h-134l-50 40v162h100zM213 612h-101l-50 40v141h100v-101h51v-80zM341 399h66v118h-66v-118zM571 517h-64v-118h64v118z" />
    <glyph glyph-name="cid1215" unicode="&#x7f20;" 
d="M659 3h-86v-118h97v-80h-294v80h97v118h-87v80h87v89h-47l-42 36v376l42 36h193l43 -36v-376l-43 -36h-46v-89h86v-80zM547 796v-63h126v-80h-309v-846h-99v886l49 40h133v63h100zM251 -73h-222v80h69l26 244h-97v80h10l47 459h80l-47 -459h15l31 291h90l-66 -615h64v-80
zM251 -195h-222v80h222v-80zM468 244h25v112h-25v-112zM468 437h25v111h-25v-111zM577 244v112h-24v-112h24zM577 548h-24v-111h24v111z" />
    <glyph glyph-name="cid1216" unicode="&#x94f2;" 
d="M255 471h-65v-209h65v-80h-65v-298h57v-79h-107l-50 39v338h-62v80h62v209h-62v80h227v-80zM671 345h-276v-500l-50 -40h-80v80h30v500l50 39h326v-79zM675 655h-387v80h150v64h99v-64h138v-80zM255 638h-178l-50 39v120h99v-80h129v-79zM523 449l34 182h95l-34 -182h-95
zM357 449l-34 182h94l34 -182h-94z" />
    <glyph glyph-name="cid1217" unicode="&#x4ea7;" 
d="M28 -114h34v470l50 40h32l-52 186h95l51 -186h236l58 186h95l-58 -186h87v-80h-494v-470l-50 -40h-84v80zM400 793v-73h271v-80h-641v80h271v73h99z" />
    <glyph glyph-name="cid1218" unicode="&#x9610;" 
d="M534 6h-139v-97h-90v97h-139v72h139v60h-88l-45 36v290l45 36h7l-21 80h99l21 -80h54l21 80h99l-21 -80h7l45 -36v-290l-45 -36h-88v-60h139v-72zM412 -118h148v770h-328v79h378l50 -39v-850l-50 -40h-198v80zM140 609v-808h-100v808h100zM145 795v-70h42v-79h-92l-50 39
v110h100zM262 210h43v73h-43v-73zM438 210v73h-43v-73h43zM438 428h-43v-73h43v73zM262 355h43v73h-43v-73z" />
    <glyph glyph-name="cid1219" unicode="&#x98a4;" 
d="M73 645h264l43 -38v-291l-43 -38h-264l-43 38v291zM672 707h-94v-82h54l39 -36v-531h-77v495h-118v-495h-77v531l38 36h54v82h-94v80h275v-80zM76 250h259l43 -38v-245l-43 -38h-259l-43 38v245zM395 -178l99 272v406h81v-406l99 -272l-77 -20l-62 172l-62 -172zM294 569
h-178v-215h178v215zM252 799v-45h130v-80h-354v80h130v45h94zM382 -179h-354v80h354v-80zM163 550h85l35 -31v-115l-35 -31h-85l-35 31v115zM292 174h-174v-44h174v44zM292 6v44h-174v-44h174zM215 487h-20v-51h20v51z" />
    <glyph glyph-name="cid1220" unicode="&#x660c;" 
d="M98 294h507l50 -40v-407l-50 -39h-507l-50 39v407zM130 792h443l50 -40v-365l-50 -40h-443l-49 40v365zM555 -113v124h-407v-124h407zM555 214h-407v-123h407v123zM523 426v104h-343v-104h343zM523 713h-343v-104h343v104z" />
    <glyph glyph-name="cid1221" unicode="&#x7316;" 
d="M312 304h309l50 -40v-422l-50 -40h-309l-50 40v422zM319 786h295l50 -39v-367l-50 -40h-295l-49 40v367zM239 456h-37v-613l-50 -40h-121v80h71v233h-71v79h71v261h-71v80h71v168h-71v80h121l50 -40v-208h37v-80zM572 225h-210v-132h210v132zM572 -118v131h-210v-131h210
zM564 707h-195v-104h195v104zM564 420v103h-195v-103h195z" />
    <glyph glyph-name="cid1222" unicode="&#x573a;" 
d="M261 792h359l41 -62l-268 -268h230l50 -40v-577l-50 -40h-94v80h44v497h-275l-41 63l265 267h-261v80zM237 -154h-209v80h55v589h-55v80h55v191h99v-191h55v-80h-55v-589h55v-80zM386 -117h28l24 470l94 -5l-28 -514l-46 -31h-72v80zM251 -117h25l23 470l94 -5l-26 -514
l-48 -31h-68v80z" />
    <glyph glyph-name="cid1223" unicode="&#x5c1d;" 
d="M672 109h-437l-66 -219h360v129h100v-169l-50 -40h-473l-49 49l77 250h-106v80h644v-80zM30 426v126l50 40h220v201h100v-201h220l50 -40v-126h-100v86h-440v-86h-100zM654 296h-608v80h608v-80zM495 625l43 154h99l-42 -154h-100zM105 625l-42 154h99l43 -154h-100z" />
    <glyph glyph-name="cid1224" unicode="&#x5e38;" 
d="M68 -134v298l50 40h182v61h-164l-50 40v167l50 40h428l50 -40v-167l-50 -40h-164v-61h182l50 -40v-269l-50 -40h-106v79h56v190h-132v-321h-100v321h-132v-258h-100zM209 782l25 -104h76v121h100v-121h72l29 104h99l-29 -104h40l50 -40v-109h-100v69h-442v-69h-100v109
l50 40h55l-25 104h100zM514 432h-328v-87h328v87z" />
    <glyph glyph-name="cid1225" unicode="&#x957f;" 
d="M222 797v-362h450v-79h-189l105 -468h84v-80h-126l-49 34l-115 514h-160v-468h131v-80h-181l-50 40v508h-94v79h94v362h100zM309 643h200v147h100v-187l-50 -40h-250v80z" />
    <glyph glyph-name="cid1226" unicode="&#x507f;" 
d="M672 119h-283l-57 -235h211v165h100v-205l-50 -40h-321l-49 47l64 268h-80v80h465v-80zM74 -197v901h-47v80h97l49 -40v-941h-99zM572 411v96h-270v-96h-99v136l50 40h135v210h99v-210h135l50 -40v-136h-100zM635 298h-391v80h391v-80zM533 620l31 162h95l-31 -162h-95z
M247 620l-31 162h95l31 -162h-95z" />
    <glyph glyph-name="cid1227" unicode="&#x80a0;" 
d="M156 -116h28v223h-56v-304h-100v936l50 40h155l50 -40v-895l-50 -40h-77v80zM303 792h314l41 -62l-218 -278h182l50 -40v-567l-50 -40h-86v80h36v487h-218l-41 63l209 277h-219v80zM295 -129h20l25 472l84 -5l-26 -504l-42 -31h-59zM415 -129h20l25 472l84 -5l-27 -504
l-41 -31h-59zM128 187h56v231h-56v-231zM184 699h-56v-201h56v201z" />
    <glyph glyph-name="cid1228" unicode="&#x2f1a;" 
d="M28 -113h64v845l50 39h527v-79h-478v-845l-49 -40h-114v80z" />
    <glyph glyph-name="cid1228" unicode="&#x5382;" 
d="M28 -113h64v845l50 39h527v-79h-478v-845l-49 -40h-114v80z" />
    <glyph glyph-name="cid1229" unicode="&#x655e;" 
d="M26 -198v701l47 40h86v254h100v-254h82l48 -40v-661l-48 -40h-93v80h46v580h-173v-660h-95zM505 792v-85h165v-80h-21v-446l-65 -171l52 -130h35v-75h-101l-33 80l-30 -80h-105v75h36l48 130l-70 171v405h94v-388l23 -59l22 59v429h-100l-49 40v125h99zM168 407h80
l30 -27v-413l-30 -27h-80l-30 27v413zM59 580l-31 193h80l31 -193h-80zM276 580l32 193h79l-31 -193h-80zM218 353h-20v-359h20v359z" />
    <glyph glyph-name="cid1230" unicode="&#x7545;" 
d="M73 667h54v131h90v-131h53l47 -40v-616l-47 -40h-53v-170h-90v170h-54l-47 40v616zM324 786h296l35 -62l-190 -257h162l43 -41v-580l-43 -41h-91v81h44v500h-205l-35 64l190 256h-206v80zM302 -128h21l39 485l82 -5l-42 -517l-42 -32h-58v69zM417 -128h21l37 485l82 -5
l-41 -517l-41 -32h-58v69zM103 51h24v228h-24v-228zM103 359h24v228h-24v-228zM240 51v228h-23v-228h23zM240 587h-23v-228h23v228z" />
    <glyph glyph-name="cid1231" unicode="&#x5531;" 
d="M79 755h128l49 -39v-838l-49 -40h-128l-50 40v838zM333 309h287l50 -40v-422l-50 -40h-287l-50 40v422zM345 791h263l50 -39v-367l-50 -40h-263l-49 40v367zM161 676h-37v-758h37v758zM571 230h-188v-132h188v132zM571 -113v131h-188v-131h188zM558 712h-163v-104h163
v104zM558 425v103h-163v-103h163z" />
    <glyph glyph-name="cid1232" unicode="&#x5021;" 
d="M272 301h349l50 -40v-417l-50 -40h-349l-50 40v417zM289 791h315l50 -39v-362l-50 -40h-315l-49 40v362zM75 -197v901h-47v80h97l49 -40v-941h-99zM572 222h-250v-130h250v130zM572 -116v128h-250v-128h250zM554 430v101h-215v-101h215zM554 712h-215v-101h215v101z" />
    <glyph glyph-name="cid1233" unicode="&#x8d85;" 
d="M305 95h-74v-224h440v-64h-495l-35 16l-32 46l-2 -65h-80l15 459h79l-8 -269v-1l29 -41v390h-113v80h101v204h-90v80h90v90h89v-90h91v-80h-91v-204h101v-80h-89v-167h74v-80zM396 302h221l49 -40v-311l-49 -40h-221l-50 40v311zM340 784h272l49 -40v-364l-49 -40h-95v80
h45v284h-70l-18 -326l-50 -38h-84v80h36l16 284h-52v80zM567 222h-121v-231h121v231z" />
    <glyph glyph-name="cid1234" unicode="&#x6284;" 
d="M276 565h-75v-339h75v-80h-75v-302l-50 -40h-115v80h65v262h-72v80h72v339h-72v80h72v151h100v-151h75v-80zM536 796v-817h-99v817h99zM666 150v-301l-45 -45h-323v90h278v256h90zM400 661l-18 -589l-90 2l19 588zM657 662l13 -467l-90 -1l-12 467z" />
    <glyph glyph-name="cid1235" unicode="&#x949e;" 
d="M282 471h-80v-209h80v-80h-80v-298h74v-79h-124l-50 39v338h-73v80h73v209h-73v80h253v-80zM543 799v-820h-99v820h99zM418 680l-18 -589l-90 2l19 588zM664 150v-301l-45 -45h-295v87h250v259h90zM658 681l13 -467l-90 -1l-12 467zM282 640h-204l-50 39v120h99v-80h155
v-79z" />
    <glyph glyph-name="cid1236" unicode="&#x671d;" 
d="M525 -113h47v217h-87v-259l-50 -39h-80v79h30v857l50 40h187l50 -40v-895l-50 -40h-97v80zM349 -56h-108v-141h-100v141h-110v80h110v108h-64l-50 40v332l50 40h64v94h-110v79h110v80h100v-80h108v-79h-108v-94h62l50 -40v-332l-50 -40h-62v-108h108v-80zM485 183h87v220
h-87v-220zM572 702h-87v-219h87v219zM253 464h-126v-86h126v86zM253 212v86h-126v-86h126z" />
    <glyph glyph-name="cid1237" unicode="&#x5632;" 
d="M460 -117h11v864l43 38h112l42 -38v-903l-42 -38h-57v77h19v228h-36v-267l-42 -38h-50v77zM451 -49h-65v-145h-92v145h-56v80h56v102h-16l-45 38v363l45 38h16v68h-56v80h56v79h92v-79h57v-80h-57v-68h17l42 -38v-363l-42 -38h-17v-102h65v-80zM68 744h104l40 -32v-813
l-40 -32h-104l-40 32v813zM132 680h-24v-749h24v749zM552 191h36v234h-36v-234zM588 709h-36v-204h36v204zM362 495h-44v-103h44v103zM362 209v103h-44v-103h44z" />
    <glyph glyph-name="cid1238" unicode="&#x6f6e;" 
d="M423 -117h25v864l47 38h131l45 -38v-903l-45 -38h-69v77h23v228h-40v-267l-45 -38h-72v77zM421 -49h-68v-145h-100v145h-67v80h67v102h-23l-49 38v363l49 38h23v77h-67v80h67v68h100v-68h68v-80h-68v-77h25l49 -38v-363l-49 -38h-25v-102h68v-80zM28 -196v380l50 44h84
v-80h-35v-344h-99zM127 514v-134h35v-80h-84l-50 45v169h99zM127 788v-134h35v-80h-84l-50 45v169h99zM540 191h40v234h-40v-234zM580 709h-40v-204h40v204zM330 495h-53v-103h53v103zM330 209v103h-53v-103h53z" />
    <glyph glyph-name="cid1239" unicode="&#x5de2;" 
d="M573 -192l-124 234h-51v-233h-99v233h-51l-124 -234l-91 31l106 203h-111v80h271v54h-192l-49 40v302l49 40h483l49 -40v-302l-49 -40h-192v-54h271v-80h-112l107 -203zM134 575l-92 89v46l92 89l79 -45l-69 -67l69 -67zM588 575l-93 89v46l93 89l78 -45l-69 -67l69 -67z
M361 575l-92 89v46l92 89l78 -45l-68 -67l68 -67zM540 255v72h-142v-72h142zM157 255h142v72h-142v-72zM157 407h142v71h-142v-71zM540 478h-142v-71h142v71z" />
    <glyph glyph-name="cid1240" unicode="&#x5435;" 
d="M531 796v-817h-99v817h99zM402 684l-18 -609l-90 2l19 608zM656 685l13 -487l-90 -1l-12 487zM665 150v-301l-45 -45h-317v90h272v256h90zM80 755h137l49 -39v-838l-49 -40h-137l-50 40v838zM171 676h-46v-758h46v758z" />
    <glyph glyph-name="cid1241" unicode="&#x7092;" 
d="M30 -186l89 433v549h95v-559l87 -423l-87 -9l-47 231l-51 -231zM544 799v-820h-99v820h99zM421 681l-18 -589l-90 2l19 588zM659 150v-296l-45 -45h-279v80h234v261h90zM656 682l13 -467l-90 -1l-12 467zM90 683l9 -450h-60l-10 450h61zM303 683l-9 -450h-61l10 450h60z
" />
    <glyph glyph-name="cid1242" unicode="&#x8f66;" 
d="M285 775l-24 -86h403v-79h-424l-81 -298h160v178h100v-178h228v-80h-228v-151h245v-80h-245v-195h-100v195h-287v80h287v151h-226l-49 47l92 331h-104v79h126l29 101z" />
    <glyph glyph-name="cid1243" unicode="&#x626f;" 
d="M403 652v-759h68v900h100v-297h96v-80h-96v-523h101v-80h-412v80h48v759h95zM272 565h-74v-339h74v-80h-74v-302l-50 -40h-117v80h67v262h-71v80h71v339h-71v80h71v151h100v-151h74v-80z" />
    <glyph glyph-name="cid1244" unicode="&#x64a4;" 
d="M567 800v-84h111v-79h-13v-449l-52 -174l42 -133h18v-77h-79l-23 71l-21 -71h-78v77h15l39 134l-55 173v422h85v-412l12 -40l12 39v440h-63l-50 40v123h100zM207 -195v521l48 40h147l47 -40v-480l-47 -40h-73v80h25v78h-52v-159h-95zM194 565h-36v-341h36v-81h-36v-304
l-47 -40h-77v80h31v264h-39v81h39v341h-39v81h39v152h93v-152h36v-81zM378 800v-71h74v-80h-131l-22 -177h51v145h90v-185l-45 -40h-147l-44 45l27 212h-27v80h74v71h100zM302 43h52v83h-52v-83zM354 285h-52v-79h52v79z" />
    <glyph glyph-name="cid1245" unicode="&#x63a3;" 
d="M657 286v-64l-50 -40h-208v-51h243v-79h-243v-46h268v-80h-268v-87l-50 -35h-179v80h129v42h-268v80h268v46h-243v79h243v51h-256v80h514v24h100zM322 311v109h-42v-127h-100v127h-42v-109h-100v149l50 40h92v38h-151v80h151v36h-85l-50 40v88h100v-48h35v63h100v-63h134
v-80h-134v-36h152v-80h-152v-38h92l50 -40v-149h-100zM671 797v-460l-45 -36h-161v72h116v424h90zM551 766v-355h-89v355h89z" />
    <glyph glyph-name="cid1246" unicode="&#x5f7b;" 
d="M386 763h234l50 -39v-878l-50 -40h-86v80h36v798h-29l-27 -878l-99 2l26 876h-55v79zM341 796v-259h62v-80h-62v-571h58v-80h-108l-50 40v611h-53v80h53v259h100zM71 -193v646h-45v80h95l50 -40v-686h-100zM171 791v-165l-50 -40h-95v79h45v126h100z" />
    <glyph glyph-name="cid1247" unicode="&#x6f88;" 
d="M561 797v-84h111v-79h-13v-449l-52 -174l42 -133h18v-77h-79l-23 71l-21 -71h-78v77h15l39 134l-55 173v422h85v-412l12 -40l12 39v440h-63l-50 40v123h100zM201 -198v521l48 40h147l47 -40v-480l-47 -40h-73v80h25v78h-52v-159h-95zM372 797v-71h74v-80h-131l-22 -177
h51v145h90v-185l-45 -40h-147l-44 45l27 212h-27v80h74v71h100zM27 -196v380l50 44h99v-80h-50v-344h-99zM126 518v-134h50v-80h-99l-50 45v169h99zM126 798v-134h50v-80h-99l-50 45v169h99zM296 40h52v83h-52v-83zM348 282h-52v-79h52v79z" />
    <glyph glyph-name="cid1248" unicode="&#x90f4;" 
d="M564 -45h28v339h-28v81h28v344h-41v-916h-81v956l40 41h122l41 -41v-404l-16 -20l16 -21v-400l-41 -40h-68v81zM233 584h-62v-779h-80v779h-63v80h63v136h80v-136h62v-80zM455 584h-63v-779h-80v779h-62v80h62v136h80v-136h63v-80zM444 526l10 -721h-40l-10 721h40z
M223 526l10 -721h-40l-10 721h40zM79 526l-10 -721h-40l10 721h40zM300 526l-10 -721h-39l10 721h39z" />
    <glyph glyph-name="cid1249" unicode="&#x2f82;" 
d="M664 688h-217v-210h157l50 -40v-301l-50 -40h-157v-210h217v-80h-567l-50 40v881l50 40h567v-80zM554 177v221h-407v-221h407zM147 478h200v210h-200v-210zM147 -113h200v210h-200v-210z" />
    <glyph glyph-name="cid1249" unicode="&#x81e3;" 
d="M664 688h-217v-210h157l50 -40v-301l-50 -40h-157v-210h217v-80h-567l-50 40v881l50 40h567v-80zM554 177v221h-407v-221h407zM147 478h200v210h-200v-210zM147 -113h200v210h-200v-210z" />
    <glyph glyph-name="cid1250" unicode="&#x2fa0;" 
d="M673 295h-168l40 -152h128v-80h-107l46 -178h61v-80h-101l-49 32l-120 458h-78v-410h101v-80h-151l-50 40v450h-53v-450l-50 -40h-94v80h44v851l50 40h551v-80h-501v-321h501v-80zM636 518h-413v80h413v-80z" />
    <glyph glyph-name="cid1250" unicode="&#x8fb0;" 
d="M673 295h-168l40 -152h128v-80h-107l46 -178h61v-80h-101l-49 32l-120 458h-78v-410h101v-80h-151l-50 40v450h-53v-450l-50 -40h-94v80h44v851l50 40h551v-80h-501v-321h501v-80zM636 518h-413v80h413v-80z" />
    <glyph glyph-name="cid1251" unicode="&#x5c18;" 
d="M399 301v-108h259v-79h-259v-216h272v-79h-643v79h272v216h-259v79h259v108h99zM399 799v-465h-99v465h99zM623 761v-332h41v-80h-91l-50 40v372h100zM176 761v-372l-50 -40h-91v80h41v332h100z" />
    <glyph glyph-name="cid1252" unicode="&#x6668;" 
d="M116 794h496l50 -40v-280l-50 -40h-496l-50 40v280zM671 64h-127l16 -39h101v-80h-67l25 -60h53v-80h-88l-48 27l-97 232h-114v-179h87v-80h-137l-50 40v219h-67v-219l-50 -40h-78v80h28v472l50 40h563v-80h-513v-173h513v-80zM643 192h-446v79h446v-79zM562 514v60h-396
v-60h396zM562 714h-396v-60h396v60z" />
    <glyph glyph-name="cid1253" unicode="&#x5ff1;" 
d="M576 278v-395h97v-80h-147l-50 40v397l-142 -434l-94 23l174 535v254h-50v-280h-95v323l47 42h98v93h99v-93h108l48 -42v-323h-95v280h-61v-264l-25 -76h88zM251 297h-53v-493h-100v752h-70v80h70v158h100v-417h53v-80z" />
    <glyph glyph-name="cid1254" unicode="&#x6c89;" 
d="M203 -114h53l14 572l50 40h243l50 -40v-572h65v-80h-115l-50 40v572h-143l-14 -572l-50 -40h-103v80zM224 567v170l50 40h327l50 -40v-170h-100v131h-227v-131h-100zM128 514v-134h71v-80h-120l-50 45v169h99zM29 -196v380l50 44h120v-80h-71v-344h-99zM128 788v-134h71
v-80h-120l-50 45v169h99z" />
    <glyph glyph-name="cid1255" unicode="&#x9648;" 
d="M144 -48h29v338h-29v80h29v338h-43v-906h-100v946l50 40h143l50 -40v-398l-19 -20l19 -20v-398l-50 -40h-79v80zM549 606v-238h121v-80h-132v-445l-50 -40h-76v80h26v405h-92l-50 44l41 322h-48v80h58l8 61l99 -8l-7 -53h225v-80h-235l-36 -286h49v238h99zM653 249
l19 -446h-95l-18 446h94zM411 249l-19 -446h-94l19 446h94z" />
    <glyph glyph-name="cid1256" unicode="&#x8d81;" 
d="M307 95h-63v-224h427v-64h-490l-34 16l-36 49l-2 -68h-80l13 459h79l-7 -271l30 -40v390h-115v80h96v204h-84v80h84v90h100v-90h85v-80h-85v-204h97v-80h-78v-167h63v-80zM324 488l36 264l50 36h166l49 -36l37 -264l-99 -9l-32 229h-77l-31 -229zM340 -9h216v65h100v-105
l-50 -40h-266v80zM345 183h197v65h100v-105l-50 -40h-247v80zM349 375h184v65h99v-105l-49 -40h-234v80z" />
    <glyph glyph-name="cid1257" unicode="&#x886c;" 
d="M26 190l160 378h-147v79h211l48 -49l-91 -218l65 98l68 -44l-66 -88l73 -116l-73 -32l-36 68v-459h-100v407l-22 -52zM675 583h-32v-739l-48 -38h-145v80h93v697h-208v80h208v130h100v-130h32v-80zM411 4l-50 490h96l49 -490h-95zM130 667v130h100v-130h-100z" />
    <glyph glyph-name="cid1258" unicode="&#x6491;" 
d="M672 -71h-163v-84l-50 -40h-136v80h86v44h-174v80h174v49h-160v79h160v48h-164v80h320v33h100v-73l-50 -40h-106v-48h149v-79h-149v-49h163v-80zM219 565h-44v-339h44v-80h-44v-302l-50 -40h-84v80h34v262h-48v80h48v339h-48v80h48v151h100v-151h44v-80zM300 527h307
l50 -40v-136l-50 -40h-307l-50 40v136zM503 799v-124h117l50 -40v-94h-100v54h-233v-54h-100v94l50 40h117v124h99zM557 448h-207v-57h207v57zM670 787l-38 -99h-89l37 99h90zM326 787l38 -99h-89l-38 99h89z" />
    <glyph glyph-name="cid1259" unicode="&#x79f0;" 
d="M311 799v-70l-46 -40h-51v-115h95v-80h-95v-687h-94v687h-93v80h93v115h-88v80h186v30h93zM545 546v-703l-48 -39h-76v79h29v663h95zM427 418l-23 -575h-83l23 575h83zM577 488v128h-198l-48 40v143h96v-103h197l48 -40v-168h-95zM647 418l24 -575h-82l-24 575h82z
M104 454l-13 -647h-62l13 647h62zM307 -193h-61l-13 647h62z" />
    <glyph glyph-name="cid1260" unicode="&#x57ce;" 
d="M605 795l3 -105h63v-80h-61l11 -347h50v-80h-47l9 -298h39v-76h-85l-47 37l-11 337h-33v80h31l-11 347h-172v-105h90l47 -38v-604l-47 -38h-71v76h23v528h-42v-580l-49 -40h-67v80h17v761l50 40h219l-3 103zM217 -154h-188v80h47v589h-47v80h47v191h100v-191h47v-80h-47
v-589h41v-80zM668 788v-74h-50v74h50z" />
    <glyph glyph-name="cid1261" unicode="&#x6a59;" 
d="M270 581h-81v-777h-83v777h-80v80h80v139h83v-139h81v-80zM344 281h269l50 -40v-184l-50 -40h-269l-50 40v184zM575 798l4 -38h91v-80h-83l4 -38h79v-80h-71l4 -42h67v-90h-108l-49 37l-36 314zM670 -191h-383v79h60l-22 97h99l22 -97h65l22 97h99l-22 -97h60v-79z
M287 785h127l49 -49l-37 -270l-48 -31h-91v80h50l7 59h-57v79h67l7 52h-74v80zM259 526l8 -722h-54l-9 722h55zM92 526l-10 -722h-54l10 722h54zM670 316h-383v80h383v-80zM563 201h-169v-104h169v104z" />
    <glyph glyph-name="cid1262" unicode="&#x6210;" 
d="M507 797l10 -135h154v-80h-147l34 -437h29v286h83v-330l-40 -36h-65l14 -179h90v-80h-137l-49 37l-18 222h-61v80h55l-34 437h-261v-106h163l50 -40v-575l-50 -40h-112v79h63v496h-114v-553l-49 -40h-87v80h37v739l50 40h303l-10 130zM559 777h112v-80h-112v80z" />
    <glyph glyph-name="cid1263" unicode="&#x5448;" 
d="M111 782h478l50 -40v-269l-50 -40h-478l-50 40v269zM654 47h-254v-143h272v-80h-644v80h272v143h-254v80h254v152h-264v80h628v-80h-264v-152h254v-80zM539 702h-378v-189h378v189z" />
    <glyph glyph-name="cid1264" unicode="&#x4e58;" 
d="M667 525h-272v-724h-99v724h-272v80h272v64h-234v80h475v44h99v-84l-49 -40h-192v-64h272v-80zM547 480v-94h42v83h79v-119l-40 -36h-81v-118h120v-80h-170l-49 40v324h99zM248 480v-371h-99v49h-125v80h125v119h-125v80h125v43h99zM267 73l-139 -272h-105l140 272h104z
M528 73l140 -272h-105l-139 272h104z" />
    <glyph glyph-name="cid1265" unicode="&#x7a0b;" 
d="M303 798v-65l-40 -40h-46v-103h87v-80h-87v-706h-100v706h-87v80h87v103h-82v80h169v25h99zM371 798h247l50 -40v-285l-50 -40h-247l-50 40v285zM672 302h-121v-165h110v-80h-110v-171h121v-79h-355v79h134v171h-123v80h123v165h-134v79h355v-79zM103 470l-14 -666h-57
l14 666h57zM302 -196h-56l-14 666h56zM568 718h-147v-205h147v205z" />
    <glyph glyph-name="cid1266" unicode="&#x60e9;" 
d="M371 595v-317h58v416h-192v80h435v-80h-143v-168h134v-80h-134v-168h143v-80h-447v80h47v317h99zM516 -194h-252l-50 40v313h100v-273h202v-80zM98 193v326h-69v80h119l49 -40v-366h-99zM494 161h112l50 -40v-313h-100v273h-62v80zM186 81h-42v-273h-100v313l50 40h92
v-80zM356 -60v219h100v-219h-100zM197 798v-124l-49 -40h-119v80h69v84h99z" />
    <glyph glyph-name="cid1267" unicode="&#x6f84;" 
d="M268 283h345l50 -40v-191l-50 -40h-345l-50 40v191zM539 798l7 -38h124v-80h-109l7 -33h102v-80h-87l7 -37h80v-90h-121l-49 37l-59 304zM211 785h178l49 -49l-64 -260l-48 -31h-115v80h74l13 56h-87v79h105l11 45h-116v80zM675 -191h-469v79h72l-29 92h99l29 -92h126
l30 92h99l-30 -92h73v-79zM28 -196v380l50 44h111v-80h-62v-344h-99zM670 327h-459v80h459v-80zM563 203h-245v-111h245v111zM127 514v-134h62v-80h-111l-50 45v169h99zM127 788v-134h62v-80h-111l-50 45v169h99z" />
    <glyph glyph-name="cid1268" unicode="&#x8bda;" 
d="M604 795l3 -113h65v-80h-62l10 -345h52v-80h-50l9 -299h40v-76h-86l-47 37l-10 338h-21v80h19l-10 345h-183v-119h110l47 -38v-593l-47 -38h-81v76h33v517h-62v-604h-99v839l50 40h229l-3 111zM218 -197h-85l-50 40v657h-54v80h104l50 -40v-657h35v-80zM193 622h-81
l-50 40v133h100v-93h31v-80zM669 788v-81h-50v81h50z" />
    <glyph glyph-name="cid1269" unicode="&#x627f;" 
d="M480 440h-75v-128h90v-79h-90v-128h112v-80h-112v-181l-50 -40h-157v80h107v141h-113v80h113v128h-90v79h90v128h-75v80h75v69l15 28l126 100h-345v80h466l35 -68l-197 -157v-52h75v-80zM671 661l-71 -157l72 -695l-99 -7l-74 704l3 17l76 165zM29 579h135l50 -43
l-86 -734l-99 7l80 690h-80v80z" />
    <glyph glyph-name="cid1270" unicode="&#x901e;" 
d="M257 780h345l50 -40v-237l-50 -40h-345l-50 40v237zM667 337h-188v-123h173v-80h-173v-123h193v-80h-485v80h193v123h-173v80h173v123h-188v80h475v-80zM146 579l3 -695h524v-80h-574l-49 40l-4 735h100zM553 700h-246v-157h246v157zM46 644v152h100v-152h-100z" />
    <glyph glyph-name="cid1271" unicode="&#x9a8b;" 
d="M359 744h87v53h89v-53h88l45 -40v-354l-45 -39h-264l-45 39v354zM132 641v-339h36v401h-138v76h186l47 -38v-453l31 -24v-423l-48 -38h-167v76h120v347h-115l-47 38v377h95zM673 199h-207v-81h155l50 -37v-240l-50 -37h-180v80h130v154h-155l-50 38v123h-58v74h365v-74z
M177 6h-147v80h147v-80zM578 390v94h-43v-94h43zM578 665h-43v-94h43v94zM404 390h42v94h-42v-94zM404 571h42v94h-42v-94z" />
    <glyph glyph-name="cid1272" unicode="&#x79e4;" 
d="M666 691h-118v-461h125v-80h-125v-347h-100v347h-129v80h129v461h-121v80h339v-80zM313 799v-70l-47 -40h-51v-128h96v-80h-96v-674h-94v674h-94v80h94v128h-89v80h187v30h94zM309 -193h-62l-13 634h63zM105 441l-14 -634h-62l14 634h62zM666 634l-15 -350h-84l15 350h84
zM412 634l14 -350h-83l-16 350h85z" />
    <glyph glyph-name="cid1273" unicode="&#x5403;" 
d="M672 603h-323l-50 40v155h100v-115h273v-80zM672 -195h-331l-46 56l255 541h-248v80h324l46 -56l-255 -541h255v-80zM74 755h137l49 -39v-838l-49 -40h-137l-50 40v838zM165 676h-46v-758h46v758z" />
    <glyph glyph-name="cid1274" unicode="&#x75f4;" 
d="M497 600h124l42 -34v-717l-42 -34h-124l-42 34v717zM27 193h70v270h-70v80h70v150l50 40h206v65h99v-65h217v-80h-472v-807l-50 -40h-120v80h70v227h-70v80zM361 -196l-33 214l-33 -214l-85 10l60 376h-57v72h68v244h-21l-40 32v87h80v-55h119v-64h-44v-244h68v-72h-58
l61 -376zM578 533h-38v-650h38v650z" />
    <glyph glyph-name="cid1275" unicode="&#x6301;" 
d="M254 565h-60v-339h60v-80h-60v-302l-50 -40h-110v80h60v262h-65v80h65v339h-65v80h65v151h100v-151h60v-80zM522 799v-115h150v-80h-150v-171h155v-80h-409v80h154v171h-149v80h149v115h100zM619 328v-92h50v-79h-50v-313l-50 -40h-169v80h119v273h-243v79h243v92h100z
M347 -71l-55 178h94l55 -178h-94z" />
    <glyph glyph-name="cid1276" unicode="&#x5319;" 
d="M398 53h-101v-166h377v-80h-450l-50 26l-42 69l-4 -96h-99l16 415h100l-7 -160l59 -98v288h-166v80h377v-80h-111v-118h101v-80zM96 791h246l50 -40v-347l-50 -39h-246l-49 39v347zM531 793v-404h37v294h90v-334l-50 -40h-77v-323h140v-76h-187l-48 38v845h95zM292 444
v98h-146v-98h146zM292 711h-146v-89h146v89z" />
    <glyph glyph-name="cid1277" unicode="&#x6c60;" 
d="M225 591h32v165h100v-165h56v205h100v-205h103l49 -36v-546h-99v502h-53v-539h-100v539h-56v-627h315v-80h-365l-50 36v671h-32v80zM28 -196v380l50 44h135v-79h-86v-345h-99zM127 504v-134h86v-80h-135l-50 45v169h99zM127 786v-134h86v-80h-135l-50 45v169h99z" />
    <glyph glyph-name="cid1278" unicode="&#x8fdf;" 
d="M40 647v152h100v-152h-100zM140 582v-695h524v-80h-574l-50 40v735h100zM300 443h250v255h-250v-255zM599 363h-299v-391l-50 -39h-82v79h32v726l50 40h349l50 -40v-335zM556 331l40 -321h53v-80h-98l-49 36l-45 357z" />
    <glyph glyph-name="cid1279" unicode="&#x5f1b;" 
d="M277 589h33v167h96v-167h36v207h96v-207h84l45 -36v-532h-96v488h-33v-537h-96v537h-36v-625h266v-80h-317l-45 36v669h-33v80zM79 -114h87v246h-89l-50 40v296l50 40h83v190h-133v80h183l50 -40v-270l-50 -40h-83v-216h88l50 -40v-326l-50 -40h-136v80z" />
    <glyph glyph-name="cid1280" unicode="&#x9a70;" 
d="M291 589h35v167h90v-167h37v207h90v-207h82l45 -36v-552h-90v508h-37v-537h-90v537h-37v-625h260v-80h-305l-45 36v669h-35v80zM131 641v-339h36v401h-138v76h186l47 -38v-453l31 -24v-423l-48 -38h-167v76h120v347h-115l-47 38v377h95zM176 6h-147v80h147v-80z" />
    <glyph glyph-name="cid1281" unicode="&#x803b;" 
d="M188 -191v95h-160v79h16v709h-16v80h276v-80h-16v-709h16v-79h-16v-95h-100zM437 646v-759h48v900h100v-305h85v-80h-85v-515h88v-80h-367v80h36v759h95zM144 242h44v185h-44v-185zM144 507h44v185h-44v-185zM144 -17h44v179h-44v-179z" />
    <glyph glyph-name="cid1282" unicode="&#x9f7f;" 
d="M649 604h-229v-147h246v-79h-639v79h65v283h100v-283h129v339h99v-112h229v-80zM640 303v-459l-50 -40h-486l-50 40v459h100v-419h386v419h100zM172 -57l125 270v137h100v-139l124 -268l-93 -28l-81 176l-82 -176z" />
    <glyph glyph-name="cid1283" unicode="&#x4f88;" 
d="M332 797v-58h281l50 -40v-338l-50 -40h-374v80h325v258h-282l-50 40v98h100zM364 446l-87 158h110l91 -158h-114zM340 293v-60h273l50 -40v-345l-50 -40h-374v80h325v265h-274l-50 40v100h100zM364 -65l-87 165h110l88 -165h-111zM85 -197v901h-54v80h104l49 -40v-941
h-99z" />
    <glyph glyph-name="cid1284" unicode="&#x5c3a;" 
d="M169 495h393v210h-393v-210zM612 415h-443v-568l-50 -40h-91v80h41v858l50 40h493l50 -40v-290zM669 -192h-140l-49 36l-65 512l99 8l60 -476h95v-80z" />
    <glyph glyph-name="cid1285" unicode="&#x2f9a;" 
d="M340 -113h70v562h-111v-602l-50 -40h-133v80h83v562h-171v79h272v119h-259v80h259v71h100v-71h259v-80h-259v-119h272v-79h-162v-602l-50 -40h-120v80zM33 -55l22 439h97l-22 -439h-97zM570 -55l-22 439h97l22 -439h-97z" />
    <glyph glyph-name="cid1285" unicode="&#x8d64;" 
d="M340 -113h70v562h-111v-602l-50 -40h-133v80h83v562h-171v79h272v119h-259v80h259v71h100v-71h259v-80h-259v-119h272v-79h-162v-602l-50 -40h-120v80zM33 -55l22 439h97l-22 -439h-97zM570 -55l-22 439h97l22 -439h-97z" />
    <glyph glyph-name="cid1286" unicode="&#x7fc5;" 
d="M28 -115h19l57 128l-69 150l-3 7v252h99v-238l25 -55l25 54v268h-149v80h65v106h-66v80h66v77h99v-77h66v-80h-66v-106h35l50 -40v-320l-3 -7l-68 -151l60 -128h403v-80h-471l-13 27l-31 66l-29 -66l-12 -27h-89v80zM358 -29h29v752h-103v68h146l42 -34v-820l-42 -33h-72
v67zM560 -29h27v752h-98v68h140l42 -34v-820l-42 -33h-69v67zM575 332l-25 -391h-70l25 391h70zM373 332l-26 -391h-69l25 391h70zM508 377l-28 294h70l28 -294h-70zM306 377l-28 294h69l29 -294h-70z" />
    <glyph glyph-name="cid1287" unicode="&#x65a5;" 
d="M673 364h-143v-209h113v-80h-113v-270h-100v270h-108v80h108v209h-244v-520l-50 -40h-108v79h58v849l50 40h386v24h100v-64l-50 -40h-386v-248h487v-80z" />
    <glyph glyph-name="cid1288" unicode="&#x70bd;" 
d="M379 789h239l50 -40v-459l-50 -40h-239l-50 40v459zM35 -186l84 432v550h95v-560l82 -422l-87 -9l-42 232l-46 -232zM569 709h-140v-379h140v379zM635 200l35 -396h-100l-34 396h99zM462 200l-35 -396h-100l36 396h99zM90 683l9 -440h-60l-10 440h61zM303 683l-9 -440
h-61l10 440h60z" />
    <glyph glyph-name="cid1289" unicode="&#x5145;" 
d="M668 624h-403l-88 -258h367v186h100v-226l-50 -40h-46v-397h119v-80h-169l-50 40v437h-171l-57 -444l-49 -33h-133v80h91l49 397h-67l-48 50l99 288h-125v79h266v90h99v-90h266v-79z" />
    <glyph glyph-name="cid1290" unicode="&#x51b2;" 
d="M263 622h127v177h100v-177h127l50 -40v-520l-50 -40h-127v-219h-100v219h-127l-50 40v520zM32 -196v450l50 40h98v-80h-48v-410h-100zM132 791v-262h48v-80h-98l-50 40v302h100zM312 102h78v440h-78v-440zM568 542h-78v-440h78v440z" />
    <glyph glyph-name="cid1291" unicode="&#x2f8d;" 
d="M33 -113h268v234h-204l-50 39v404l50 40h204v193h100v-193h203l50 -40v-404l-50 -39h-203v-234h167v119h100v-158l-50 -40h-585v79zM147 200h154v325h-154v-325zM554 525h-153v-325h153v325z" />
    <glyph glyph-name="cid1291" unicode="&#x866b;" 
d="M33 -113h268v234h-204l-50 39v404l50 40h204v193h100v-193h203l50 -40v-404l-50 -39h-203v-234h167v119h100v-158l-50 -40h-585v79zM147 200h154v325h-154v-325zM554 525h-153v-325h153v325z" />
    <glyph glyph-name="cid1292" unicode="&#x5d07;" 
d="M211 -115h89v227h-270v79h640v-79h-270v-266l-50 -40h-139v79zM401 796v-127h164v117h100v-157l-50 -40h-529l-50 40v157h100v-117h165v127h100zM30 355v110l50 39h220v62h100v-62h219l50 -39v-110h-100v70h-439v-70h-100zM621 252h-542v80h542v-80zM188 68l-54 -262
h-100l55 262h99zM611 68l55 -262h-100l-54 262h99z" />
    <glyph glyph-name="cid1293" unicode="&#x5ba0;" 
d="M671 -193h-238l-50 40v213h-94v79h94v260h-95l-99 -558l-49 -34h-107v80h65l90 512h-159v80h173l24 134l98 -13l-22 -121h138v93h100v-93h130v-80h-187v-260h77v138h100v-178l-50 -39h-127v-173h188v-80zM30 562v126l50 40h220v68h100v-68h220l50 -40v-126h-100v87h-440
v-87h-100z" />
    <glyph glyph-name="cid1294" unicode="&#x62bd;" 
d="M320 650h102v147h100v-147h103l45 -40v-768l-45 -41h-305l-45 41v768zM254 565h-63v-339h63v-80h-63v-302l-50 -40h-108v80h58v262h-62v80h62v339h-62v80h62v151h100v-151h63v-80zM570 570h-48v-305h48v305zM570 -118v303h-48v-303h48zM375 265h47v305h-47v-305z
M375 -118h47v303h-47v-303z" />
    <glyph glyph-name="cid1295" unicode="&#x916c;" 
d="M63 602h23v96h-58v80h296v-80h-66v-96h23l35 -30v-727l-35 -30h-218l-35 30v727zM442 799l-7 -963l-42 -34h-63v68h21l3 441h-27v80h27l3 408h85zM672 799v-995h-84v507h-21v80h21v408h84zM557 764v-925h-84v472h-24v80h24v373h84zM136 81h-38v-52h147v52h-37l-29 25v426
h-15v-426zM245 -115v64h-147v-64h147zM112 158v374h-14v-374h14zM245 532h-13v-374h13v374zM161 602h22v96h-22v-96z" />
    <glyph glyph-name="cid1296" unicode="&#x7574;" 
d="M66 754h186l39 -38v-854l-39 -37h-186l-38 37v854zM674 318h-213l-11 -105h112v80h92v-80h20v-78h-20v-293l-46 -39h-99v78h53v254h-120l-31 -298l-45 -34h-65v78h24l45 437h-59v79h67l10 95h-68v79h76l10 97h-96v79h104l5 47l91 -9l-4 -38h166v-79h-175l-10 -97h179v-79
h-187l-10 -95h205v-79zM462 -83l-16 159h81l18 -159h-83zM104 329h22v349h-22v-349zM104 -100h22v349h-22v-349zM214 678h-20v-349h20v349zM214 -100v349h-20v-349h20z" />
    <glyph glyph-name="cid1297" unicode="&#x8e0c;" 
d="M672 324h-221l-10 -99h101v74h100v-74h30v-79h-30v-302l-50 -40h-116v79h66v263h-109l-4 -46h69l23 -179h-80l-17 135l-22 -217l-49 -35h-71v79h26l44 441h-49v80h57l10 92h-58v79h66l9 92h-85v80h93l5 47l99 -9l-4 -38h175v-80h-184l-9 -92h187v-79h-195l-10 -92h213
v-80zM278 139h-46v-259h35v-76h-201l-36 38v505h83v-467h29v522h-70l-44 36v317l44 36h164l45 -36v-317l-45 -36h-4v-182h46v-81zM188 711h-67v-229h67v229z" />
    <glyph glyph-name="cid1298" unicode="&#x7a20;" 
d="M296 -195v946l45 40h287l45 -40v-907l-45 -39h-105v79h60v827h-196v-906h-91zM278 800v-66l-36 -40h-42v-103h79v-80h-79v-707h-91v707h-80v80h80v103h-75v81h154v25h90zM440 303h90l34 -34v-311l-34 -33h-90l-34 33v311zM569 337h-168v80h41v109h-35v80h35v81h86v-81h36
v-80h-36v-109h41v-80zM96 471l-13 -667h-52l13 667h52zM277 -196h-51l-12 667h51zM496 235h-23v-243h23v243z" />
    <glyph glyph-name="cid1299" unicode="&#x6101;" 
d="M139 207v327h-108v79h108v66h-101v80h216v37h99v-77l-50 -40h-64v-66h108v-79h-108v-327h-100zM579 213l-65 148l-65 -148l-94 26l109 248v306h100v-306l109 -248zM516 -193h-252l-50 40v324h100v-284h202v-80zM494 171h112l50 -40v-323h-100v283h-62v80zM186 91h-42
v-283h-100v323l50 40h92v-80zM356 -56v227h100v-227h-100zM335 500l10 -293h-75l-10 293h75zM118 500l-11 -293h-74l10 293h75zM585 487l5 247h75l-5 -247h-75zM368 487l-5 247h74l5 -247h-74z" />
    <glyph glyph-name="cid1300" unicode="&#x7b79;" 
d="M672 195h-398l-26 -74h242v46h100v-46h82v-68h-82v-208l-50 -40h-156v80h106v168h-267l-69 -194l-48 -29h-77v79h40l102 286h-143v68h167l23 64h-156v68h180l23 64h-218v68h229v62h100v-62h274v-68h-282l-22 -64h292v-68h-317l-22 -64h373v-68zM150 575v75h-70l-50 40
v106h100v-66h208v-80h-88v-75h-100zM480 575v75h-67l-50 40v106h100v-66h205v-80h-88v-75h-100zM281 -91l-41 119h100l41 -119h-100z" />
    <glyph glyph-name="cid1301" unicode="&#x4ec7;" 
d="M405 794l-5 -100h166l50 -40v-768h57v-80h-107l-49 40v768h-121l-35 -769l-50 -39h-105v80h57l33 728h-84v80h88l5 102zM74 -197v901h-47v80h97l49 -40v-941h-99z" />
    <glyph glyph-name="cid1302" unicode="&#x7ef8;" 
d="M255 -195v949l50 40h317l50 -40v-909l-50 -40h-116v80h66v829h-217v-909h-100zM243 -57h-216v80h70l25 246h-97v80h10l48 444h78l-48 -444h17l28 276h87l-61 -602h59v-80zM414 305h100l37 -34v-312l-37 -33h-100l-38 33v312zM557 339h-186v80h45v110h-39v80h39v81h95v-81
h40v-80h-40v-110h46v-80zM243 -188h-216v79h216v-79zM476 237h-25v-244h25v244z" />
    <glyph glyph-name="cid1303" unicode="&#x7785;" 
d="M64 739h98l35 -28v-808l-35 -28h-98l-35 28v808zM607 797v-456l60 -536h-75l-29 257l-29 -257h-75l63 545v447h85zM446 798v-72l-39 -36h-39v-89h77v-80h-77v-716h-81v716h-78v80h78v89h-70v71h150v37h79zM431 475l14 -670h-53l-13 670h52zM276 475l-14 -670h-52l13 670
h53zM463 307l-6 396h50l5 -396h-49zM616 307l6 396h49l-5 -396h-50zM127 669h-28v-198h28v198zM127 -55v197h-28v-197h28zM99 212h28v189h-28v-189z" />
    <glyph glyph-name="cid1304" unicode="&#x4e11;" 
d="M62 368h120l23 357h-155v71h496l45 -35v-876h79v-80h-641v80h123l25 402h-115v81zM241 -115h260v402h-234zM501 725h-206l-23 -357h229v357z" />
    <glyph glyph-name="cid1305" unicode="&#x81ed;" 
d="M120 752h125v43h100v-43h235l49 -40v-389l-49 -40h-460l-49 40v389zM585 -199l-235 253l-235 -253l-80 48l236 253h-243v80h272v71h100v-71h97v69h100v-69h75v-80h-243l236 -253zM530 672h-360v-52h360v52zM170 491h360v49h-360v-49zM530 363v48h-360v-48h360z" />
    <glyph glyph-name="cid1306" unicode="&#x521d;" 
d="M271 773h350l50 -39v-888l-50 -40h-124v80h74v808h-118l-39 -849l-50 -39h-99v80h51l38 808h-83v79zM27 200l120 368h-117v79h181l48 -49l-79 -242h2l57 98l63 -32l-55 -89l53 -117l-72 -15l-28 73v-467h-100v379zM103 667v130h100v-130h-100z" />
    <glyph glyph-name="cid1307" unicode="&#x51fa;" 
d="M669 231v-382l-43 -40h-553l-42 40v382h100v-342h165v439h-187l-57 40v376h100v-336h144v385h100v-385h143v336h100v-376l-43 -40h-200v-439h173v342h100z" />
    <glyph glyph-name="cid1308" unicode="&#x6a71;" 
d="M668 708h-344v-904h-90v942l45 38h389v-76zM218 576h-56v-773h-80v773h-56v80h56v142h80v-142h56v-80zM661 674v-86h12v-80h-12v-663l-39 -40h-80v80h40v270h-38v79h38v274h-42v80h42v86h79zM380 548h108l40 -34v-295l-40 -34h-108l-40 34v295zM75 524l-10 -721l-39 1
l9 721zM209 525l10 -721l-40 -1l-9 721zM350 -83l-8 225h79l9 -225h-80zM438 -83l9 225h79l-8 -225h-80zM526 -195h-185v79h185v-79zM524 587h-180v80h180v-80zM448 480h-28v-227h28v227z" />
    <glyph glyph-name="cid1309" unicode="&#x53a8;" 
d="M31 -116h40v863l50 39h554v-79h-505v-863l-49 -40h-90v80zM667 503h-21v-657l-45 -36h-107v72h62v621h-111v76h111v97h90v-97h21v-76zM252 570h123l48 -38v-307l-48 -38h-123l-47 38v307zM465 -28l-16 456h74l16 -456h-74zM223 -82l-22 232h85l21 -232h-84zM320 -82
l22 232h84l-21 -232h-85zM444 -189h-252v76h252v-76zM435 598h-243v75h243v-75zM328 494h-28v-231h28v231z" />
    <glyph glyph-name="cid1310" unicode="&#x8e87;" 
d="M491 552v-60h75l11 44l94 -9l-55 -221h54v-80h-229l-17 -42h178l50 -40v-301l-50 -40h-227l-50 40v151l-76 11l90 221h-68v80h120v106h-97v80h97v60h100zM260 129h-35v-247h35v-75h-197l-34 37v502h77v-464h25v519h-63l-41 36v323l41 36h153l40 -36v-323l-36 -33v-195h35
v-80zM429 797v-74h88v74h100v-74h53v-80h-53v-74h-100v74h-88v-74h-100v74h-51v80h51v74h100zM172 716h-55v-235h55v235zM552 104h-127v-73h127v73zM552 -117v72h-127v-72h127zM491 306h29l26 106h-55v-106z" />
    <glyph glyph-name="cid1311" unicode="&#x9504;" 
d="M457 -194h-242v80h16v830l43 38h125l42 -38v-830h16v-80zM566 793l-2 -120h64l43 -38v-794l-43 -38h-64v76h22v717h-23l-10 -791h-79l10 791h-30v77h31l2 120h79zM202 455h-39v-208h39v-80h-39v-282h39v-79h-89l-50 39v322h-34v80h34v208h-34v80h173v-80zM203 624h-124
l-50 39v135h100v-95h74v-79zM316 -114h40v225h-40v-225zM316 191h40v208h-40v-208zM356 677h-40v-198h40v198z" />
    <glyph glyph-name="cid1312" unicode="&#x96cf;" 
d="M674 594h-73v-175h73v-79h-73v-184h73v-80h-73v-192h73v-80h-293l-52 38v857h-26v80h78l49 -37v-69h71v117h100v-117h73v-79zM36 504h125v125h-82l-50 40v126h100v-86h82l50 -40v-173l40 -32v-615l-50 -40h-215v80h165v227h-158v80h158v228h-165v80zM430 -116h71v192h-71
v-192zM430 156h71v184h-71v-184zM430 419h71v175h-71v-175z" />
    <glyph glyph-name="cid1313" unicode="&#x6ec1;" 
d="M260 -45h22v345h-22v79h22v339h-33v-913h-79v949l39 36h113l40 -36v-397l-16 -20l16 -21v-397l-40 -36h-62v72zM661 240h-91v-397l-50 -40h-68v80h18v357h-89v80h89v119h-80v80h262v-80h-82v-119h91v-80zM371 543l31 217l49 35h140l49 -35l31 -217l-99 -9l-26 181h-50
l-26 -181zM27 -196v380l47 44h80v-80h-31v-344h-96zM642 193l17 -389h-60l-16 389h59zM451 193l-17 -389h-59l17 389h59zM123 514v-134h31v-80h-80l-47 45v169h96zM123 788v-134h31v-80h-80l-47 45v169h96z" />
    <glyph glyph-name="cid1314" unicode="&#x9664;" 
d="M144 -48h29v338h-29v80h29v338h-43v-906h-100v946l50 40h143l50 -40v-398l-19 -20l19 -20v-398l-50 -40h-79v80zM662 389h-126v-113h137v-80h-137v-351l-50 -40h-78v80h28v311h-141v80h141v113h-130v80h356v-80zM294 517l48 243l49 34h186l50 -34l47 -243l-98 -12
l-42 209h-100l-42 -209zM406 146l-21 -339h-88l21 339h88zM650 146l21 -339h-88l-20 339h87z" />
    <glyph glyph-name="cid1315" unicode="&#x695a;" 
d="M622 23h-235v-139h283v-79h-363l-14 8l-149 93l-13 -101h-100l48 367h100l-23 -173l131 -82v306h-254v80h585l50 -40v-118h-100v78h-181v-120h235v-80zM466 349v298h-103v79h103v70h100v-70h103v-79h-103v-298h-100zM138 349v298h-103v79h103v70h100v-70h103v-79h-103
v-298h-100zM450 622l-9 -273h-80l9 273h80zM334 622l9 -273h-80l-9 273h80zM661 622l10 -273h-80l-9 273h79zM122 622l-9 -273h-79l9 273h79z" />
    <glyph glyph-name="cid1316" unicode="&#x7840;" 
d="M675 242v-397l-46 -40h-269l-46 40v397h91v-357h40v438h-83l-45 40v380h91v-340h37v396h100v-396h36v340h91v-380l-45 -40h-82v-438h39v357h91zM27 310l60 383h-56v80h266v-80h-115l-35 -222h95l47 -37v-582l-47 -37h-130l-47 37v458h-38zM196 397h-38v-508h38v508z" />
    <glyph glyph-name="cid1317" unicode="&#x50a8;" 
d="M519 795v-87h51l8 54l94 -5l-40 -287h33v-80h-165l-17 -74h124l50 -40v-433l-50 -40h-173l-50 40v230l-55 5l70 312h-57v80h77v158h-67v80h67v87h100zM65 -197v901h-37v80h87l49 -40v-941h-99zM352 -195h-83l-50 40v637h-40v80h90l50 -40v-637h33v-80zM320 621h-71
l-50 40v133h99v-93h22v-80zM557 236h-74v-139h74v139zM557 -118v139h-74v-139h74zM519 470h18l22 158h-40v-158z" />
    <glyph glyph-name="cid1318" unicode="&#x77d7;" 
d="M645 719h-245v-21h157l50 -31v-296h46v-56h-606v56h46v296l50 31h157v21h-245v56h245v23h100v-23h245v-56zM663 215h-104v-18h53l40 -32v-296h20v-64h-316v64h20v296l40 32h43v18h-95v56h95v27h100v-27h104v-56zM335 215h-104v-18h52l40 -32v-296h20v-64h-316v64h20v296
l40 32h44v18h-95v56h95v27h100v-27h104v-56zM193 371h314v25h-314v-25zM507 637h-314v-25h314v25zM193 452h314v24h-314v-24zM193 532h314v24h-314v-24zM127 -131h117v25h-117v-25zM127 28h117v25h-117v-25zM456 -131h116v25h-116v-25zM456 28h116v25h-116v-25zM244 133
h-117v-24h117v24zM572 133h-116v-24h116v24zM127 -50h117v23h-117v-23zM456 -50h116v23h-116v-23z" />
    <glyph glyph-name="cid1319" unicode="&#x6410;" 
d="M300 206h321l50 -40v-323l-50 -40h-321l-50 40v323zM655 456h-138l-80 -131h129v77h100v-122l-50 -45h-358v90h70l80 131h-151v80h54l51 104h-107v80h154v80h100v-80h162v-80h-199l-51 -104h234v-80zM230 565h-48v-339h48v-80h-48v-302l-50 -40h-94v80h44v262h-54v80h54
v339h-54v80h54v151h100v-151h48v-80zM350 -117h62v82h-62v-82zM350 44h62v82h-62v-82zM572 -117v82h-60v-82h60zM572 126h-60v-82h60v82z" />
    <glyph glyph-name="cid1320" unicode="&#x89e6;" 
d="M153 -196v239h-30v-239h-90v773l45 36h139v65h-141l-47 38v83h95v-46h140l48 -37v-106l41 -33v-736l-45 -36h-61v72h16v166h-30v-239h-80zM670 36v-198l-39 -35h-256v70h99v210h-55l-41 32v512l41 34h58v130h88v-130h59l41 -34v-512l-41 -32h-61v-210h29v163h78zM582 593
h-22v-444h22v444zM460 149h22v444h-22v-444zM123 122h30v176h-30v-176zM233 122h30v176h-30v-176zM123 378h30v163h-30v-163zM263 541h-30v-163h30v163z" />
    <glyph glyph-name="cid1321" unicode="&#x5904;" 
d="M32 -113h64l62 176l-108 196l-4 8v324h99v-308l55 -100l34 97v365h-146l-50 40v109h99v-70h147l50 -39v-415l-2 -6l-69 -196l102 -184h303v-80h-367l-14 24l-66 120l-39 -112l-10 -29h-140v80zM498 797v-839h-100v839h100zM566 87l-41 545h94l41 -545h-94z" />
    <glyph glyph-name="cid1322" unicode="&#x63e3;" 
d="M577 -194v376h-26v-377h-78v377h-23v-377h-79v377h-26v-376h-88v410l44 33h107v69h-156v80h419v-80h-158v-69h108l44 -33v-410h-88zM234 565h-51v-339h51v-80h-51v-302l-50 -40h-94v80h44v262h-53v80h53v339h-53v80h53v151h100v-151h51v-80zM513 800v-283h54v264h98v-302
l-50 -38h-308l-50 38v302h98v-264h53v283h105z" />
    <glyph glyph-name="cid1323" unicode="&#x5ddd;" 
d="M425 749v-901h-99v901h99zM188 797l-26 -955l-49 -38h-85v80h37l23 913h100zM659 797v-997h-99v997h99z" />
    <glyph glyph-name="cid1324" unicode="&#x7a7f;" 
d="M44 -116h71l78 182h-68l-50 40v169h100v-129h278v158h-404v80h598v-80h-94v-158h108v-80h-108v-221l-50 -39h-132v79h82v181h-154l-101 -235l-47 -27h-107v80zM36 544v153l50 40h214v58h99v-58h214l49 -40v-153h-99v113h-427v-113h-100zM274 601v-136l-50 -40h-173v80
h123v96h100zM530 601v-96h117v-80h-167l-50 40v136h100z" />
    <glyph glyph-name="cid1325" unicode="&#x693d;" 
d="M660 381h-150l-20 -21l40 -63l6 -19v-95l51 147l86 -21l-48 -152l50 -312l-89 -12l-50 292v-283l-47 -40h-88v81h41v66l-86 -104l-75 49l161 193v46l-91 -103l-72 51l163 185v2l-16 26l-78 -80l-70 54l110 113h-101v81h235l9 66h-192l-45 44l27 225l92 -8l-5 -40h193
l46 -45l-32 -242h45v-81zM276 578h-83v-777h-84v777h-82v80h82v139h84v-139h83v-80zM95 523l-10 -722h-56l10 722h56zM265 523l9 -722h-56l-9 722h56zM549 668h-151l-7 -60h150z" />
    <glyph glyph-name="cid1326" unicode="&#x4f20;" 
d="M673 382h-262l-24 -127h233l48 -49l-155 -404h-96l-137 293l93 21l88 -182l96 241h-229l-50 45l30 162h-94v79h109l33 177h-126v79h141l14 76l102 -9l-13 -67h183v-79h-198l-33 -177h247v-79zM74 -197v901h-47v80h97l49 -40v-941h-99z" />
    <glyph glyph-name="cid1327" unicode="&#x8239;" 
d="M55 -195v438h-27v80h27v377l45 36h40v61h100v-61h40l45 -36v-859l-45 -36h-95v72h50v366h-90v-438h-90zM406 295h205l50 -40v-413l-50 -40h-205l-50 40v413zM345 403h27v343l50 40h177l50 -40v-343h24v-79h-74l-50 39v344h-77v-344l-50 -39h-77v79zM561 215h-105v-333
h105v333zM235 664h-90v-341h90v341zM162 376v212h56v-212h-56zM162 -23v212h56v-212h-56z" />
    <glyph glyph-name="cid1328" unicode="&#x5598;" 
d="M80 755h115l49 -39v-838l-49 -40h-115l-50 40v838zM579 -196v376h-25v-376h-74v376h-23v-376h-76v376h-25v-376h-85v410l42 33h104v69h-151v80h404v-80h-152v-69h104l42 -33v-410h-85zM518 798v-283h51v264h95v-302l-47 -38h-299l-47 38v302h95v-264h51v283h101zM152 676
h-30v-758h30v758z" />
    <glyph glyph-name="cid1329" unicode="&#x4e32;" 
d="M82 287h217v81h-192l-50 40v251l50 40h192v99h100v-99h191l50 -40v-251l-50 -40h-191v-81h217l50 -40v-279l-50 -40h-217v-126h-100v126h-217l-50 40v279zM566 207h-167v-199h167v199zM132 8h167v199h-167v-199zM157 448h142v171h-142v-171zM540 619h-141v-171h141v171z
" />
    <glyph glyph-name="cid1330" unicode="&#x75ae;" 
d="M30 193h70v270h-70v80h70v150l50 40h206v65h99v-65h217v-80h-473v-807l-49 -40h-120v80h70v227h-70v80zM398 52h143v193h-190v-360h316v-80h-366l-50 40v440l50 40h290l50 -40v-273l-50 -40h-193v80zM225 375l51 210l49 33h236l49 -33l51 -210l-97 -15l-44 178h-154
l-43 -178z" />
    <glyph glyph-name="cid1331" unicode="&#x7a97;" 
d="M98 406h175v58h99v-58h235l50 -40v-521l-50 -40h-509l-50 40v521zM557 326h-409v-441h409v441zM258 151l95 -64l77 52v46h-198l-49 40v79h99v-39h198l50 -40v-123l-17 -12l-82 -56l63 -42h35v-80h-71l-14 9l-90 61l-90 -61l-14 -9h-69v80h33l62 42l-82 56zM31 544v153
l50 40h219v58h99v-58h219l50 -40v-153h-100v113h-437v-113h-100zM271 608v-131l-50 -40h-176v80h126v91h100zM533 608v-91h121v-80h-171l-50 40v131h100z" />
    <glyph glyph-name="cid1332" unicode="&#x5e62;" 
d="M661 -46h-132v-67h145v-80h-389v80h146v67h-132v80h132v45h-85l-44 38v288l44 39h268l44 -39v-288l-44 -38h-85v-45h132v-80zM110 -196v793h-17v-657h-68v693l34 35h51v132h77v-132h50l35 -35v-693h-69v657h-16v-793h-77zM670 682h-380v79h141v39h98v-39h141v-79z
M674 467h-389v80h389v-80zM513 560l35 105h98l-36 -105l-48 -1h-1zM350 560l-35 105h97l36 -105h-98zM390 155h46v66h-46v-66zM390 302h46v65h-46v-65zM570 155v66h-45v-66h45zM570 367h-45v-65h45v65z" />
    <glyph glyph-name="cid1333" unicode="&#x5e8a;" 
d="M441 798v-55h230v-80h-503v-820l-50 -40h-89v80h39v820l50 40h223v55h100zM385 -198v642h-174v80h174v106h100v-106h174v-80h-174v-642h-100zM196 -194l56 588h100l-56 -588h-100zM571 -194l-55 588h99l56 -588h-100z" />
    <glyph glyph-name="cid1334" unicode="&#x95ef;" 
d="M413 -115h149v769h-328v80h377l50 -40v-849l-50 -40h-198v80zM298 484v-162h92v204h-206v79h256l50 -39v-251l42 -33v-317l-50 -39h-169v79h119v237h-184l-50 40v202h100zM142 611v-807h-100v807h100zM409 87h-235v79h235v-79zM142 797v-69h41v-80h-91l-50 40v109h100z
" />
    <glyph glyph-name="cid1335" unicode="&#x521b;" 
d="M28 469l33 284l50 37h200l50 -37l33 -284l-99 -7l-29 248h-110l-29 -248zM175 80h109v276h-146v-472h256v-80h-306l-50 40v552l50 40h246l50 -40v-355l-50 -40h-159v79zM664 794v-953l-45 -36h-153v80h98v909h100zM524 723v-771h-90v771h90z" />
    <glyph glyph-name="cid1336" unicode="&#x5439;" 
d="M79 749h147l49 -39v-838l-49 -40h-147l-50 40v838zM180 670h-56v-758h56v758zM575 455v158h-215l-48 38v147h95v-109h216l47 -38v-196h-95zM288 -173l139 432v263h100v-263l145 -432l-94 -19l-98 280l-98 -280z" />
    <glyph glyph-name="cid1337" unicode="&#x708a;" 
d="M35 -179l99 428v547h95v-556l97 -419l-88 -16l-56 267l-58 -267zM543 561v-317l120 -421l-97 -18l-71 248l-64 -247l-97 16l109 418v321h100zM580 440v194h-170l-48 38v127h95v-89h171l47 -38v-232h-95zM333 683l-14 -440h-71l15 440h70zM100 683l15 -440h-70l-16 440h71
z" />
    <glyph glyph-name="cid1338" unicode="&#x6376;" 
d="M664 515h-28v-170h37v-80h-37v-170h28v-80h-155v-129h146v-80h-392v80h146v129h-155v80h29v170h-38v80h38v170h-29v80h155v85h-152v80h301v39h100v-79l-50 -40h-99v-85h155v-80zM229 528h-48v-342h48v-80h-48v-262l-50 -40h-90v80h40v222h-54v80h54v342h-54v80h54v188
h100v-188h48v-80zM509 345h37v170h-37v-170zM509 95h37v170h-37v-170zM372 345h37v170h-37v-170zM372 95h37v170h-37v-170z" />
    <glyph glyph-name="cid1339" unicode="&#x9524;" 
d="M664 496h-27v-167h36v-80h-36v-167h27v-79h-148v-119h139v-80h-373v80h139v119h-148v79h28v167h-36v80h36v167h-28v80h148v98h-145v80h287v42h95v-82l-47 -40h-95v-98h148v-80zM253 471h-58v-209h58v-80h-58v-298h52v-79h-102l-50 39v338h-65v80h65v209h-65v80h223v-80z
M253 640h-174l-50 39v120h99v-80h125v-79zM516 82h36v167h-36v-167zM516 329h36v167h-36v-167zM386 329h35v167h-35v-167zM386 82h35v167h-35v-167z" />
    <glyph glyph-name="cid1340" unicode="&#x5782;" 
d="M647 479h-60v-153h85v-80h-85v-165h60v-80h-247v-117h230v-80h-560v80h230v117h-247v80h60v165h-85v80h85v153h-60v79h247v115h-244v80h486v43h100v-83l-50 -40h-192v-115h247v-79zM213 81h87v165h-87v-165zM400 81h87v165h-87v-165zM213 326h87v153h-87v-153zM400 326
h87v153h-87v-153z" />
    <glyph glyph-name="cid1341" unicode="&#x6625;" 
d="M671 341h-91l93 -201l-77 -25v-272l-50 -37h-388l-50 37v267l-81 26l85 205h-85v80h118l30 74h-120v80h153l30 72h-192v80h225l29 68l100 -29l-17 -39h269v-80h-303l-30 -72h324v-80h-358l-32 -74h418v-80zM496 165h-288v-100h288v100zM179 245h340l-43 96h-257z
M496 -114v99h-288v-99h288z" />
    <glyph glyph-name="cid1342" unicode="&#x693f;" 
d="M666 310h-48l59 -214l-40 -8v-247l-49 -40h-210l-49 40v247l-40 7l45 215h-35v68h49l20 96h-53v68h68l20 95h-104v68h118l20 94l91 -16l-16 -78h154v-68h-168l-19 -95h171v-68h-185l-20 -96h221v-68zM282 581h-85v-777h-88v777h-83v80h83v139h88v-139h85v-80zM271 526
l8 -722h-57l-9 722h58zM95 526l-10 -722h-57l10 722h57zM540 -119v89h-114v-89h114zM412 218h132l-25 92h-88zM540 138h-114v-88h114v88z" />
    <glyph glyph-name="cid1343" unicode="&#x9187;" 
d="M66 595h25v95h-62v80h314v-80h-70v-95h25l37 -30v-723l-37 -30h-232l-37 30v723zM672 14h-98v-169l-50 -40h-114v80h64v129h-121v80h134l61 120h-179v80h256l40 -64l-69 -136h76v-80zM414 611h197l50 -40v-190l-50 -40h-197l-50 40v190zM563 794v-66h109v-79h-319v79h111
v66h99zM144 77h-40v-52h156v52h-40l-30 24v424h-16v-424zM561 531h-97v-110h97v110zM260 -118v63h-156v-63h156zM260 525h-14v-372h14v372zM118 153v372h-14v-372h14zM170 595h24v95h-24v-95z" />
    <glyph glyph-name="cid1344" unicode="&#x5507;" 
d="M667 409h-141l17 -42h127v-80h-95l23 -55h69v-80h-105l-47 28l-94 229h-108v-176h114v-80h-164l-50 40v216h-49v-564l-50 -40h-80v80h30v856l50 40h556v-80h-506v-212h503v-80zM248 116h368l50 -40v-231l-50 -40h-368l-50 40v231zM566 36h-269v-151h269v151zM638 566
h-434v80h434v-80z" />
    <glyph glyph-name="cid1345" unicode="&#x6df3;" 
d="M674 15h-159v-170l-50 -40h-181v80h131v130h-194v80h212l99 119h-295v80h391l40 -64l-109 -135h115v-80zM292 604h312l50 -40v-180l-50 -40h-312l-50 40v180zM30 -196v380l50 44h120v-80h-71v-344h-99zM497 797v-71h178v-79h-454v79h177v71h99zM129 788v-134h71v-80h-120
l-50 45v169h99zM129 514v-134h71v-80h-120l-50 45v169h99zM554 524h-212v-100h212v100z" />
    <glyph glyph-name="cid1346" unicode="&#x7eaf;" 
d="M674 -195h-193l-50 40v211h-82l-48 38v450h95v-412h35v471h-141v79h141v113h99v-113h141v-79h-141v-471h35v412h95v-450l-47 -38h-83v-172h144v-79zM281 -56h-242v80h78l26 242h-115v80h12l52 451h91l-52 -451h20l31 283h94l-64 -605h69v-80zM281 -188h-242v80h242v-80z
" />
    <glyph glyph-name="cid1347" unicode="&#x8822;" 
d="M670 466h-78l82 -104l-64 -32v-121l-50 -35h-422l-50 35v122l-62 31l82 104h-80v68h133l22 28h-127v68h181l30 38h-220v68h253v64h100v-64h251v-68h-266l-30 -38h287v-68h-341l-22 -28h391v-68zM353 -123h117v50h-66l-40 32v127l40 32h66v37h90v-37h67l39 -32v-127
l-39 -32h-67v-50h18v39h85v-73l-42 -34h-268v68zM29 -123h117v50h-67l-40 32v127l40 32h67v37h89v-37h67l40 -32v-127l-40 -32h-67v-50h19v39h84v-73l-42 -34h-267v68zM198 432h303l-27 34h-249zM510 362h-322v-25h322v25zM510 244v25h-322v-25h322zM262 54h-27v-63h27v63z
M119 -9h27v63h-27v-63zM587 54h-27v-63h27v63zM444 -9h26v63h-26v-63z" />
    <glyph glyph-name="cid1348" unicode="&#x6233;" 
d="M434 236h-107v-67h107v-75h-107v-68h107v-77h-107v-72h107v-75h-343l-46 38v459h-18v74h64l46 -37v-24h97v65h93v-65h107v-76zM674 312v-196l-40 -40h-51v-194h89v-80h-136l-49 40v234h-38v80h38v341h-32v80h32v218h96v-218h90v-80h-90v-341h17v156h74zM342 395v319h-96
v80h145l50 -40v-359h-99zM134 395v319h-96v80h145l50 -40v-359h-99zM672 777v-161h-68v161h68zM43 395l11 153h64l-12 -153h-63zM251 395l12 153h63l-11 -153h-64zM54 567l-11 121h63l12 -121h-64zM263 567l-12 121h64l11 -121h-63zM137 -123h97v72h-97v-72zM137 26h97v68
h-97v-68zM137 169h97v67h-97v-67z" />
    <glyph glyph-name="cid1349" unicode="&#x7ef0;" 
d="M420 -200v149h-151v80h151v107h-91l-50 40v364l50 40h77v217h100v-67h162v-79h-162v-71h105l50 -40v-364l-50 -40h-91v-107h151v-80h-151v-149h-100zM252 -56h-222v80h79l25 247h-106v80h10l49 446h83l-49 -446h21l29 278h90l-63 -605h54v-80zM561 216v102h-182v-102h182
zM561 500h-182v-102h182v102zM252 -188h-222v80h222v-80z" />
    <glyph glyph-name="cid1350" unicode="&#x75b5;" 
d="M30 193h70v270h-70v80h70v150l50 40h206v65h99v-65h217v-80h-473v-807l-49 -40h-120v80h70v227h-70v80zM490 261h-48v-382h39v-72h-267v72h22v623h80v-623h32v721h94v-259h48v-80zM662 254h-65v-372h76v-76h-124l-47 38v756h95v-266h65v-80z" />
    <glyph glyph-name="cid1351" unicode="&#x8328;" 
d="M463 550v84h-226v-84h-100v84h-109v79h109v84h100v-84h226v84h100v-84h109v-79h-109v-84h-100zM215 -154l178 300v179h100v-178l178 -301l-94 -36l-134 226l-133 -226zM562 263v115h-277l-50 40v105h100v-65h276l50 -40v-155h-99zM236 73h-97v-263h-95v301l47 38h145v-76
zM236 259h-145l-47 37v228h95v-190h97v-75z" />
    <glyph glyph-name="cid1352" unicode="&#x78c1;" 
d="M672 598h-95l-38 -329h12l26 212l79 -6l-70 -589h24v140h63v-179l-32 -40h-151v79h12l33 303h-87v80h17l38 329h-121l-30 -329h9l25 212l79 -6l-68 -589h24v140h63v-179l-31 -40h-174v79h27l35 303h-74v80h9l31 329h-42v80h71l-25 120h94l25 -120h76l26 120h94l-26 -120
h72v-80zM27 312l51 384h-48v80h230v-80h-94l-30 -223h76l41 -37v-582l-41 -37h-112l-40 37v458h-33zM170 399h-27v-508h27v508z" />
    <glyph glyph-name="cid1353" unicode="&#x96cc;" 
d="M674 601h-51v-177h51v-80h-51v-185h51v-81h-51v-194h51v-81h-245l-44 38v866h-21v81h65l51 -37v-70h49v115h94v-115h51v-80zM27 -115h14v817h68v-817h24v902h86v-289h21v-79h-21v-534h21v-79h-213v79zM339 787v-289h34v-79h-34v-534h34v-79h-80l-40 40v941h86zM480 -116
h49v194h-49v-194zM480 159h49v185h-49v-185zM480 424h49v177h-49v-177z" />
    <glyph glyph-name="cid1354" unicode="&#x8f9e;" 
d="M82 233h46v174h-99v80h99v176h-92v80h192v54h100v-94l-50 -40h-50v-176h98v-80h-98v-174h46l50 -40v-347l-50 -40h-192l-50 40v347zM666 8h-111v-197h-99v197h-111v80h111v175h-118v80h335v-80h-118v-175h111v-80zM665 639h-319v80h110v78h99v-78h110v-80zM224 153h-92
v-267h92v267zM381 374l-28 233h100l28 -233h-100zM530 374l28 233h100l-28 -233h-100z" />
    <glyph glyph-name="cid1355" unicode="&#x6148;" 
d="M655 581l-133 -314h47v74h99v-114l-50 -40h-263v80h57l65 153h-122v80h25l57 146h-223l-57 -146h28l34 81h109l-133 -314h47v74h100v-114l-50 -40h-264v80h58l65 153h-123v80h25l57 146h-82v79h128l-24 72h100l24 -72h187l25 72h100l-25 -72h129v-79h-131l-57 -146h27
l35 81h109zM518 -188h-258l-50 40v275h100v-235h208v-80zM501 126h117l50 -40v-274h-100v234h-67v80zM178 46h-46v-234h-100v274l50 40h96v-80zM359 -61v188h99v-188h-99z" />
    <glyph glyph-name="cid1356" unicode="&#x74f7;" 
d="M662 201h-452v-53h346l48 -38v-231h70v-75h-118l-47 37v231h-299v-191h149v-79h-199l-50 39v360h-80v80h632v-80zM587 301l-173 138l-173 -138l-70 56l193 155v129h100v-129l193 -155zM558 567v97h-297l-50 40v92h100v-52h297l50 -40v-137h-100zM34 317v183l50 40h104
v-80h-54v-143h-100zM134 784v-117h54v-80h-104l-50 40v157h100zM455 -67h-200v80h200v-80z" />
    <glyph glyph-name="cid1357" unicode="&#x8bcd;" 
d="M261 -197h-112l-50 40v616h-71v80h121l50 -40v-616h62v-80zM231 607h-109l-50 40v146h100v-106h59v-80zM268 770h353l49 -40v-886l-49 -40h-147v80h97v806h-303v80zM314 451h171l45 -40v-412l-45 -41h-171l-45 41v412zM440 370h-81v-331h81v331zM540 534h-281v80h281v-80
z" />
    <glyph glyph-name="cid1358" unicode="&#x6b64;" 
d="M374 364h-66v-480h66v-80h-346v80h35v838h100v-838h45v913h100v-354h66v-79zM669 718v-324l-50 -40h-118v-470h170v-80h-220l-50 40v953h100v-363h68v284h100z" />
    <glyph glyph-name="cid1359" unicode="&#x523a;" 
d="M273 799v-68h142v-80h-142v-59h95l50 -40v-384h-100v344h-45v-709h-99v709h-45v-344h-99v384l49 40h95v59h-142v80h142v68h99zM672 794v-953l-45 -36h-153v80h98v909h100zM540 723v-771h-90v771h90zM396 128l25 -325h-98l-25 325h98zM148 128l-25 -325h-96l24 325h97z
" />
    <glyph glyph-name="cid1360" unicode="&#x8d50;" 
d="M366 789h243l50 -39v-295l-50 -40h-243l-49 40v295zM183 235v470h-51v-470h-100v510l50 40h151l49 -40v-510h-99zM558 -118h19v394h-214l-47 38v76h94v-38h215l47 -38v-470l-47 -38h-67v76zM29 -178l84 394h98l83 -394l-95 -15l-37 199l-38 -199zM316 -125h23v364h85
v-398l-43 -34h-65v68zM439 -125h22v364h85v-398l-42 -34h-65v68zM559 710h-143v-67h143v67zM559 495v67h-143v-67h143z" />
    <glyph glyph-name="cid1361" unicode="&#x6b21;" 
d="M481 561v-278l190 -450l-97 -28l-141 325l-124 -324l-97 26l169 448v281h100zM565 440v192h-278l-48 42v125h100v-87h280l47 -38v-234h-101zM42 -186v450l50 40h146v-80h-96v-410h-100zM142 778v-262h96v-80h-146l-50 40v302h100z" />
    <glyph glyph-name="cid1362" unicode="&#x806a;" 
d="M185 -201v95h-157v79h16v719h-16v80h269v-80h-16v-719h16v-79h-16v-95h-96zM372 641h245l49 -40v-313l-49 -40h-245l-50 40v313zM581 -190h-130l-45 39v363h90v-325h85v-77zM567 561h-145v-233h145v233zM581 210h52l40 -38v-364h-80v326h-12v76zM394 134h-6v-326h-79v364
l40 38h45v-76zM510 -55v267h59v-267h-59zM526 658l30 128h95l-31 -128h-94zM369 658l-31 128h94l31 -128h-94zM138 502h47v190h-47v-190zM138 236h47v186h-47v-186zM138 -27h47v183h-47v-183z" />
    <glyph glyph-name="cid1363" unicode="&#x8471;" 
d="M533 290h-94l-20 -108l-50 -34h-94v80h52l11 62h-112l-20 -108l-49 -34h-95v80h52l12 62h-82v80h97l14 77h-65l-50 40v75h100v-35h467l50 -40v-299l-50 -40h-135v80h85v219h-88v-1l-15 -76h79v-80zM457 565v75h-212v-75h-100v75h-116v80h116v76h100v-76h212v76h99v-76
h116v-80h-116v-75h-99zM520 -194h-256l-50 40v263h100v-223h206v-80zM499 116h107l50 -40v-272h-100v232h-57v80zM183 36h-38v-232h-100v272l50 40h88v-80zM359 -78v187h100v-187h-100zM241 370h112l14 77h-111v-1z" />
    <glyph glyph-name="cid1364" unicode="&#x56f1;" 
d="M87 726h203v72h95v-72h230l50 -40v-841l-50 -40h-528l-50 40v841zM565 647h-429v-763h429v763zM272 429l97 -193l63 94v139h-211l-50 40v95h99v-55h212l50 -40v-199l-6 -9l-109 -161l62 -124h63v-79h-132l-56 111l-75 -111h-121v79h62l87 128l-128 258z" />
    <glyph glyph-name="cid1365" unicode="&#x5306;" 
d="M36 322h114l32 352h-93l-50 40v79h100v-39h477l50 -40v-869l-50 -40h-139v80h89v789h-85l-31 -352h84v-80h-91l-34 -400l-49 -37h-109v80h62l30 357h-100l-37 -400l-50 -37h-114v80h68l32 357h-106v80zM250 322h100l30 352h-97z" />
    <glyph glyph-name="cid1366" unicode="&#x4ece;" 
d="M28 -188l108 693v292h100v-286l106 -699l-99 -10l-58 380l-58 -380zM352 -188l108 699v286h99v-286l106 -699l-99 -10l-58 380l-57 -380z" />
    <glyph glyph-name="cid1367" unicode="&#x4e1b;" 
d="M28 -55l108 564v285h100v-280l106 -569l-99 -11l-58 310l-58 -310zM358 -55l108 564v285h99v-280l106 -569l-99 -11l-58 310l-58 -310zM672 -194h-644v80h644v-80z" />
    <glyph glyph-name="cid1368" unicode="&#x51d1;" 
d="M667 363h-53l47 -90l-95 -22l-59 112h-163l-34 -111l-96 19l27 92h-45v80h69l22 72h-83v80h107l21 72h-136v80h161l15 50l99 -19l-10 -31h206v-80h-230l-22 -72h244v-80h-269l-22 -72h299v-80zM671 -8h-149l143 -145l-92 -44l-142 143l-142 -143l-93 45l145 144h-149v80
h189v84h-177v80h455v-80h-178v-84h190v-80zM32 -196v450l50 40h98v-80h-48v-410h-100zM132 791v-262h48v-80h-98l-50 40v302h100z" />
    <glyph glyph-name="cid1369" unicode="&#x7c97;" 
d="M672 -196h-356v80h19v855l49 40h219l50 -40v-855h19v-80zM302 352h-90v-549h-95v549h-90v80h90v354h95v-354h90v-80zM99 311l-7 -508h-61l7 508h61zM291 311l7 -508h-61l-7 508h61zM434 189h119v226h-119v-226zM434 -116h119v225h-119v-225zM553 700h-119v-205h119v205z
M230 463l7 293h61l-7 -293h-61zM38 463l-7 293h61l7 -293h-61z" />
    <glyph glyph-name="cid1370" unicode="&#x918b;" 
d="M67 599h24v96h-61v81h312v-81h-70v-96h25l37 -31v-733l-37 -31h-230l-37 31v733zM420 295h188l50 -40v-408l-50 -40h-188l-50 40v408zM672 330h-319v80h36v186h-29v80h29v109h95v-109h58v109h94v-109h29v-80h-29v-186h36v-80zM144 73h-40v-53h155v53h-39l-30 25v430h-16
v-430zM563 215h-98v-124h98v124zM563 -113v124h-98v-124h98zM484 410h58v186h-58v-186zM259 -125v64h-155v-64h155zM259 528h-14v-378h14v378zM118 150v378h-14v-378h14zM170 599h24v96h-24v-96z" />
    <glyph glyph-name="cid1371" unicode="&#x7c07;" 
d="M321 403h-158v-99h101l50 -39v-419l-50 -40h-82v80h32v339h-51v-379l-50 -40h-82v80h32v517h-32v80h98v82h100v-82h92v-80zM330 -168l114 241h-96v76h108v129h-66l-48 38v88h95v-50h223v-76h-104v-129h112v-76h-100l104 -243l-94 -25l-74 171l-81 -173zM487 568v93h-76
l-50 40v95h100v-55h208v-80h-82v-93h-100zM157 583v78h-76l-50 40v95h100v-55h208v-80h-82v-78h-100zM433 564v-63h227v-76h-274l-48 38v101h95z" />
    <glyph glyph-name="cid1372" unicode="&#x4fc3;" 
d="M672 -195h-238l-37 21l-82 108l-12 -131h-95l46 497h95l-21 -227l96 -137v423h-135l-50 40v350l50 40h326l50 -40v-350l-50 -40h-91v-165h145v-80h-145v-228h148v-81zM75 -197v901h-47v80h97l49 -40v-941h-99zM565 710h-226v-271h226v271z" />
    <glyph glyph-name="cid1373" unicode="&#x8e7f;" 
d="M323 124h98v44h-92l-49 40v152l49 40h92v61h100v-61h92l49 -40v-152l-49 -40h-92v-44h98l50 -39v-155l-50 -40h-98v-88h-100v88h-98l-50 40v155zM252 129h-37v-242h37v-75h-190l-33 37v497h75v-459h22v514h-59l-40 36v313l40 36h147l39 -36v-313l-38 -35v-193h37v-80z
M520 796v-48h100l50 -40v-105h-100v65h-198v-65h-100v105l50 40h100v48h98zM669 450h-123l-50 40v98h100v-58h73v-80zM273 530h73v58h100v-98l-50 -40h-123v80zM166 706h-51v-225h51v225zM569 45h-48v-75h48v75zM373 -30h48v75h-48v-75zM379 248h42v72h-42v-72zM563 320h-42
v-72h42v72z" />
    </font>
</defs>
</svg>
